<mxfile host="app.diagrams.net" agent="Mozilla/5.0 (Windows NT 10.0; Win64; x64) AppleWebKit/537.36 (KHTML, like Gecko) Chrome/134.0.0.0 Safari/537.36" version="26.1.1">
  <diagram name="Page-1" id="5cd5eEU5CSa56O9Fg9NY">
    <mxGraphModel dx="10831" dy="5426" grid="1" gridSize="10" guides="1" tooltips="1" connect="1" arrows="1" fold="1" page="1" pageScale="1" pageWidth="827" pageHeight="1169" math="0" shadow="0">
      <root>
        <mxCell id="0" />
        <mxCell id="1" parent="0" />
        <mxCell id="QRdIB-d-0XUhI7obMMeW-1" value="" style="shape=image;verticalLabelPosition=bottom;labelBackgroundColor=default;verticalAlign=top;aspect=fixed;imageAspect=0;image=data:image/png,iVBORw0KGgoAAAANSUhEUgAAAEcAAAA9CAMAAADI14SKAAAAAXNSR0IArs4c6QAAAARnQU1BAACxjwv8YQUAAAGVUExURQAAAAAAAAAAAAAAAAAAAAAAAAAAAAAAAAAAAAAAAAAAAAAAAAAAAAAAAAAAAAAAAAAAAAAAAAAAAAAAAAAAAAAAAAAAAAAAAAAAAAAAAAAAAAAAAAAAAAAAAAAAAAAAAAAAAAAAAAAAAAAAAAAAAAAAAAAAAAAAAAAAAAAAAAAAAAAAAAAAAAAAAAAAAAAAAAAAAAAAAAAAAAAAAAAAAAAAAAAAAAAAAAAAAAAAAAAAAAAAAAAAAAAAAAAAAAcKBQAAAAcJBQAAAAcJBQcJBAcJBAYJBAYJBAYIBAQGAgYHBAQFAgQFAgQFAgMFAgcKAwMFAgcKAwcKAwYKAwYHAwQHAwQHAwQHAwQHAwcLBAoOBgoOBgoOBgYJBAYJBAYJBAYIAwYIAwECAQgLBAoOBQUHAwEBARUeDCQzEwcKBAwRBjJIGxYgDQgMBSo7FwkMBQ0UBxchDCU1FUZkJgUHAwoOBT5YIgEBAAYIAwoPBjVLHQMEAgAAAFuCMmCINGmVOXKiPnepQYC2RoS8SInDS43JTZLQUG9xMO4AAAB8dFJOUwABAgMEBQYHCAkKCwwNDg8QERITFBUWFxgZGhscHR4fICEiIyQlJicpKywtLzAxMjQ1NjpKS0xNTlBTWV9ka2tubm9xc3V3eIOLi42PkZSUlZiZoauusLGysrW2t8nKy97f4evv8PHx8fPz8/T19fb29vb3+Pj4+fn5+fzzdlIsAAAACXBIWXMAABcRAAAXEQHKJvM/AAAEeElEQVRYR+2W6ZvaVBTGJ2xJICSQjQBhCQzjWutS61qr1nHXutW6tY5WBTrV6dSt1juOjHD/7p5z7wWSQEKfx0/69P0wA/c9/M7NyV3O1n39HyRJkvj0LwQQLvE9JmGCxMCKTuEfEcPFhiOSAmGhxFhcPwAI3MxcayKl4NuFnwgi41MMk+VajZSk4BpJtucix+PHJAjL5fKgHA8VHgoxR4TbObQTQIQef/cUYPIFWZYLBSBFQJLUu3ZEST5fQMXdkAilk/EZoCiqqiqKHAmF3Ke/P6KUyApKZqD1EwIOnfx4VlaLJU0rFVW5sAQhZvwXBBBwS2AqAsR+GRVy6OTg2VJZNwy9XIJYnhOVOT0+Rp9oZZBW4lmSOQB6waiaZrWia0UGYqQ5hhKjUqkYzMuncujk9ku249hW1ZiDQHMMJaZlWWZFhwklcCTBoSfXX/M8z7URhMXOZrJnfhEYShzXdWyTW+kcenJzt9ms1xyIxjLkck8f/C0sSrw6OFalfA8cAL3ebjU8p6ojKH/2YCIM4Pg+pLCTOVKIA6D3u+2mZwOoqDwTwlDSxgx2FTlr6xPhAOiDoN2sIejFMIaSgCe4Rw7958aHHPTKr2EMJf2g43vwXKq8fv1ImQiHTg8/ClqN2oWbJ2KAi2z3GEdT2ToUP14KllqUA6BPuq3dGIaSQb/j1yyjBEtr/WPFOQC6/EYcwzjNmqmXlKTyrHDo9I8/4xhKdnqdhptS5kx2hfPz3pV98XEhMui1605aeVY4v+09/tCVn2bimxAZBC3PNrTk8sQ5d/ae2Nl+8MtbURDZ7kKZ08qTi3LufPPkA4Ne0PkiCiJQZtdMK0+Us/81YPrdTqv1+SgMIhvLkw9z9q8+CrPptv1mo3FpNBWjIMLKk7J6wpwZYHa2g06rUfdqXv3S4RJENpansODMbl19ZNCH7QUnjW07rndxCSKbVs+SMxt99TDsIjyALLNarVqOd/HGHERa9dTNlc3JgjMbfdbvBW2/jierXi7rFdPx3hsKEPG91M2VzQvObHQ5gMo0YTJwZZSKxVLZYCC+RUjDNfXks2fBmY0+7XRaPhydpoFXmKKoRQ1Bb/MtS1LPHihzXkHO9PBj3/cbnmuxIxWuebimGajOjxDiWmxTrCvPkjMdvlvHd22bFZgMXuLQXRQ4yNu9DiACR20x4a0vONPhO26t5jpwB5ZhMnh3gXIAwhrVXgUQYZdRGkcm0+FbpmXDTcrvZNZvgOYg23n59oTARJMea17n4ZtGpVrF25u3AZgULPAYqGKa5w5Iyo3MOLAOz0OnoevQTPBn4h3CAqSVDcN4/ndx6Sdz8ucUFVobaG6WXRIEMxAWW4WuSNOew86HeeK3YbGcOXjDrBNjlFAoZoEZQZtWLKrsJSZMh+XE/hEbQ/ay+TMJV6Th7mKqwouKRUIoa1RjFJ6G5WF2cqMqIlnLyzrjeCAHoY2UZAyLRBIXfhHjQnN7XZKoMBJj+X8xGBIbXp8kJhbJJAaiEh5KjCRqU9Am/77+G9raugtzRbokQ2TNnQAAAABJRU5ErkJggg==;shadow=1;sketch=1;curveFitting=1;jiggle=2;" vertex="1" parent="1">
          <mxGeometry x="-1392" y="458" width="71" height="61" as="geometry" />
        </mxCell>
        <mxCell id="QRdIB-d-0XUhI7obMMeW-2" style="rounded=0;hachureGap=4;orthogonalLoop=1;jettySize=auto;html=1;entryX=0.5;entryY=1;entryDx=0;entryDy=0;fontFamily=Architects Daughter;fontSource=https%3A%2F%2Ffonts.googleapis.com%2Fcss%3Ffamily%3DArchitects%2BDaughter;flowAnimation=1;dashed=1;strokeWidth=2;exitX=0.37;exitY=0.009;exitDx=0;exitDy=0;exitPerimeter=0;" edge="1" parent="1" source="QRdIB-d-0XUhI7obMMeW-47" target="QRdIB-d-0XUhI7obMMeW-30">
          <mxGeometry relative="1" as="geometry">
            <mxPoint x="-709" y="1288" as="sourcePoint" />
          </mxGeometry>
        </mxCell>
        <mxCell id="QRdIB-d-0XUhI7obMMeW-3" value="&lt;font style=&quot;font-size: 18px;&quot;&gt;UNION&lt;/font&gt;" style="strokeColor=#0070F2;shadow=1;strokeWidth=2;swimlane;horizontal=0;whiteSpace=wrap;html=1;sketch=1;hachureGap=4;jiggle=2;curveFitting=1;fontFamily=72, sans-serif;fontSource=https%3A%2F%2Ffonts.googleapis.com%2Fcss%3Ffamily%3DArchitects%2BDaughter;startSize=30;" vertex="1" parent="1">
          <mxGeometry x="-3518" y="-1090.5" width="2252" height="354.5" as="geometry">
            <mxRectangle x="-240" y="-230" width="50" height="80" as="alternateBounds" />
          </mxGeometry>
        </mxCell>
        <mxCell id="QRdIB-d-0XUhI7obMMeW-4" value="&lt;font style=&quot;font-size: 18px;&quot;&gt;MM Archive&lt;/font&gt;" style="strokeColor=#d79b00;shadow=1;strokeWidth=2;rounded=0;whiteSpace=wrap;html=1;sketch=1;hachureGap=4;jiggle=2;curveFitting=1;fontFamily=72, sans-serif;fillColor=#ffe6cc;" vertex="1" parent="QRdIB-d-0XUhI7obMMeW-3">
          <mxGeometry x="58.5" y="115" width="120" height="60" as="geometry" />
        </mxCell>
        <mxCell id="QRdIB-d-0XUhI7obMMeW-5" value="" style="shape=image;verticalLabelPosition=bottom;labelBackgroundColor=default;verticalAlign=top;aspect=fixed;imageAspect=0;image=data:image/png,iVBORw0KGgoAAAANSUhEUgAAAE0AAABGCAMAAAC+EOlBAAAAAXNSR0IArs4c6QAAAARnQU1BAACxjwv8YQUAAAFiUExURQAAAAAAAAAAAAAAAAAAAAAAAAAAAAAAAAAAAAAAAAAAAAAAAAAAAAAAAAAAAAAAAAAAAAAAAAAAAAAAAAAAAAAAAAAAAAAAAAAAAAAAAAAAAAAAAAAAAAAAAAAAAAAAAAAAAAAAAAAAAAAAAAAAAAAAAAAAAAAAAAAAAAAAAAAAAAAAAAUOEwUOEwUOEwUOEgUOEgQNEgQNEQQNEQQNEQQNEQQNEQQOFAQOFAQOFAQOFAQOFAELEgAKEAAKEAAHDgAKEAAHDgAHDQIHCgIHCgIHCgAMFQAECAAECBAuQxAuQgwkNQsgMAwkNQsgMAYUHQodKwACAwAfNQAfNgodKx5VfB5VewAJDwA+bQA/bQA/bgFBbwAMFQAFCAIHCgMHCgAAAAAjPAA4YABFdgBFdwBGeABJfgBPhgBPhwBUkABZmQBamQBamgBipwBiqABuvQBvvgBwvwBwwBlGZjCIxjKMzJre7/QAAABgdFJOUwABAgMEBQYHCAkKCwwNDg8QERITFBUWFxgZGhscHR4fICEiIyQlJicoOTo7bG1ub3F0dXZ3eHmztLW2t7jMzc7Oz9Dc3d7j7O3t7u/w8PHz8/T09PT19vf5+fn5+vv7/HWzT1AAAAAJcEhZcwAAFxEAABcRAcom8z8AAAURSURBVFhH7Zf5d9tEFIUbx7JkWbZl7bZkS3YCLWXf9wAthH0tUHALiCUQsAsJlP+f+2bGji29CTSH3+CenBOfGc+nO2807/ld+l//qna2pUYvJIXY2Wk0GurThXm0FhhoF5Kf1jz6sCkxqBd9RXKaKwkmraQ5IcUXUutYYZpYzaZhtJQMg4ANjItJEmOak2IZLdO0rLaQZZkEpOX0V/UsTLMSz36o3Nb1jt024RCrCXHmWZrW4wTs7T83dffdstdVPIBgeuVZmhYxYHEs7FbpueBh7bPK7ErX7bbkAacIG+JhyzL0Pbfr2M99pgalyLSDh7QMsVnFWIuCxsCW5TAOYe/5KuxWOXB7jm21WHME++aPLb0H2LLMRsC98LnCSCnTbq/TNmGuRqN9lt9t6dsbgC3LArgX67BlmUS+2+XNgbZb/r6lI0mbTtKXvv70o019KEynSej1O22W1mg0edpeMS5/3tKPN8XEJI191+FoZM3Q0SaViV8lrciSwO22TZbWZGmLcn+qoU3Hw1BDa+w2WxqazhtowWqnCiMlNmrqaGMdDTu9J9piUc7yjKchbn6/gzeEC1vL4mnFJOVpeRp5PZt5ewWtzdHm1/JsxNNwCAMcAkOjQ9iknUJHNxaL+cHlCU87fguvm9goF7YNGqEE7ZcvAUuHSXl6qqaEiHZ8+ABZ02z0jEagE9IPn3zx6pVJNkyItskD7fjw6gjWtDdB0dask9++v31wJR+nSRSXJycrHM3fufnT4YNZEg56HdOonaiiWR+rrLrSa5fzLB3GUQSawBEKuvOVgHmwpstHTcO0HdePh9mkmM729vZms2k+SUdxHIXVx7x5NRtSOlIJREHWInNGq+30BsHTasVKb0RRGIZRPBql4zwviiIvJmM4DmANyQ3eGgqyltiqYdnd/uPvqIwodff9Et7CMIjiZDjK0iwbj7N0hOzuD3qOLAvMTsmc2bYfq8CQ/hG4MAAwjCIAoeEwwZDvkjecwm69AspzMB+twZblKInjMPC9J9XWV3odRQZ1Vpir4fCjwHiEq1lj4FAFn6g+CDULx0DmmL0ikz9cqVkfiPSPmwVaNZ4IAc6hi5vFRg7e+JqFKpNENWcIQRR4roOr1ayXZ3rjKpdbZMsl8luaPFWHIaBxgNvAV0B9zcrHz7AhoDeYvw7iDdHQiowPATwH2izC1yxZT9WIkpooRLpkafS68Yv2cw1tNhnxqVxeBW7RguKmp7HezqNN82qVOaOJndbOlMLG1izQirGOdk511tYs5HKeNtXW03Um3xAtmh/cn40Snibqacdiw8bS5gf3ARbzNF091dEAk3VBjSgJ2vzaP6ynSke3X96nlO0HDG1+sH9+Pa3VrFdmlIu8gVenAYZXV/c7VdWsvhfGwxS5X2X/CL1Cv+8yIdhHccZvaMaaNGe0rE637wVhnAjFyF/UxzjdHhMCpCOkXjYdya2iynS6PXfg+UEQ+Nih2+85TsfuOPUQUDlFs8AmXtBE5EzLBq/XF4IrtGto0izb6br+dgjQ3siiwLVFZI7ctdDg2R0pm7oy9H54Bsp2JQSDVfnjYGuc7HOFiIQWlBpSYXkrBOgyUV90MLFXapuxWjS09I8aXGqWqSuthoCaSW1vKnDgUaste236IFp3yauGQBjTwiDF25AY4UMgGv1zYBJXlS4Ef8eSEgilsxH4rIbg7Av3KMXbEI1cjAWJxRWpqQtKQYTU0H9Wly79BWVgD242OWzDAAAAAElFTkSuQmCC;shadow=1;sketch=1;curveFitting=1;jiggle=2;" vertex="1" parent="QRdIB-d-0XUhI7obMMeW-3">
          <mxGeometry x="1779.5" y="75.5" width="77" height="70" as="geometry" />
        </mxCell>
        <mxCell id="QRdIB-d-0XUhI7obMMeW-6" value="" style="shape=image;verticalLabelPosition=bottom;labelBackgroundColor=default;verticalAlign=top;aspect=fixed;imageAspect=0;image=data:image/png,iVBORw0KGgoAAAANSUhEUgAAAE0AAABGCAMAAAC+EOlBAAAAAXNSR0IArs4c6QAAAARnQU1BAACxjwv8YQUAAAFiUExURQAAAAAAAAAAAAAAAAAAAAAAAAAAAAAAAAAAAAAAAAAAAAAAAAAAAAAAAAAAAAAAAAAAAAAAAAAAAAAAAAAAAAAAAAAAAAAAAAAAAAAAAAAAAAAAAAAAAAAAAAAAAAAAAAAAAAAAAAAAAAAAAAAAAAAAAAAAAAAAAAAAAAAAAAAAAAAAAAUOEwUOEwUOEwUOEgUOEgQNEgQNEQQNEQQNEQQNEQQNEQQOFAQOFAQOFAQOFAQOFAELEgAKEAAKEAAHDgAKEAAHDgAHDQIHCgIHCgIHCgAMFQAECAAECBAuQxAuQgwkNQsgMAwkNQsgMAYUHQodKwACAwAfNQAfNgodKx5VfB5VewAJDwA+bQA/bQA/bgFBbwAMFQAFCAIHCgMHCgAAAAAjPAA4YABFdgBFdwBGeABJfgBPhgBPhwBUkABZmQBamQBamgBipwBiqABuvQBvvgBwvwBwwBlGZjCIxjKMzJre7/QAAABgdFJOUwABAgMEBQYHCAkKCwwNDg8QERITFBUWFxgZGhscHR4fICEiIyQlJicoOTo7bG1ub3F0dXZ3eHmztLW2t7jMzc7Oz9Dc3d7j7O3t7u/w8PHz8/T09PT19vf5+fn5+vv7/HWzT1AAAAAJcEhZcwAAFxEAABcRAcom8z8AAAURSURBVFhH7Zf5d9tEFIUbx7JkWbZl7bZkS3YCLWXf9wAthH0tUHALiCUQsAsJlP+f+2bGji29CTSH3+CenBOfGc+nO2807/ld+l//qna2pUYvJIXY2Wk0GurThXm0FhhoF5Kf1jz6sCkxqBd9RXKaKwkmraQ5IcUXUutYYZpYzaZhtJQMg4ANjItJEmOak2IZLdO0rLaQZZkEpOX0V/UsTLMSz36o3Nb1jt024RCrCXHmWZrW4wTs7T83dffdstdVPIBgeuVZmhYxYHEs7FbpueBh7bPK7ErX7bbkAacIG+JhyzL0Pbfr2M99pgalyLSDh7QMsVnFWIuCxsCW5TAOYe/5KuxWOXB7jm21WHME++aPLb0H2LLMRsC98LnCSCnTbq/TNmGuRqN9lt9t6dsbgC3LArgX67BlmUS+2+XNgbZb/r6lI0mbTtKXvv70o019KEynSej1O22W1mg0edpeMS5/3tKPN8XEJI191+FoZM3Q0SaViV8lrciSwO22TZbWZGmLcn+qoU3Hw1BDa+w2WxqazhtowWqnCiMlNmrqaGMdDTu9J9piUc7yjKchbn6/gzeEC1vL4mnFJOVpeRp5PZt5ewWtzdHm1/JsxNNwCAMcAkOjQ9iknUJHNxaL+cHlCU87fguvm9goF7YNGqEE7ZcvAUuHSXl6qqaEiHZ8+ABZ02z0jEagE9IPn3zx6pVJNkyItskD7fjw6gjWtDdB0dask9++v31wJR+nSRSXJycrHM3fufnT4YNZEg56HdOonaiiWR+rrLrSa5fzLB3GUQSawBEKuvOVgHmwpstHTcO0HdePh9mkmM729vZms2k+SUdxHIXVx7x5NRtSOlIJREHWInNGq+30BsHTasVKb0RRGIZRPBql4zwviiIvJmM4DmANyQ3eGgqyltiqYdnd/uPvqIwodff9Et7CMIjiZDjK0iwbj7N0hOzuD3qOLAvMTsmc2bYfq8CQ/hG4MAAwjCIAoeEwwZDvkjecwm69AspzMB+twZblKInjMPC9J9XWV3odRQZ1Vpir4fCjwHiEq1lj4FAFn6g+CDULx0DmmL0ikz9cqVkfiPSPmwVaNZ4IAc6hi5vFRg7e+JqFKpNENWcIQRR4roOr1ayXZ3rjKpdbZMsl8luaPFWHIaBxgNvAV0B9zcrHz7AhoDeYvw7iDdHQiowPATwH2izC1yxZT9WIkpooRLpkafS68Yv2cw1tNhnxqVxeBW7RguKmp7HezqNN82qVOaOJndbOlMLG1izQirGOdk511tYs5HKeNtXW03Um3xAtmh/cn40Snibqacdiw8bS5gf3ARbzNF091dEAk3VBjSgJ2vzaP6ynSke3X96nlO0HDG1+sH9+Pa3VrFdmlIu8gVenAYZXV/c7VdWsvhfGwxS5X2X/CL1Cv+8yIdhHccZvaMaaNGe0rE637wVhnAjFyF/UxzjdHhMCpCOkXjYdya2iynS6PXfg+UEQ+Nih2+85TsfuOPUQUDlFs8AmXtBE5EzLBq/XF4IrtGto0izb6br+dgjQ3siiwLVFZI7ctdDg2R0pm7oy9H54Bsp2JQSDVfnjYGuc7HOFiIQWlBpSYXkrBOgyUV90MLFXapuxWjS09I8aXGqWqSuthoCaSW1vKnDgUaste236IFp3yauGQBjTwiDF25AY4UMgGv1zYBJXlS4Ef8eSEgilsxH4rIbg7Av3KMXbEI1cjAWJxRWpqQtKQYTU0H9Wly79BWVgD242OWzDAAAAAElFTkSuQmCC;shadow=1;sketch=1;curveFitting=1;jiggle=2;" vertex="1" parent="QRdIB-d-0XUhI7obMMeW-3">
          <mxGeometry x="1770" y="82.5" width="77" height="70" as="geometry" />
        </mxCell>
        <mxCell id="QRdIB-d-0XUhI7obMMeW-7" value="&lt;font style=&quot;font-size: 18px;&quot;&gt;MM Material Stock&lt;/font&gt;" style="strokeColor=#0070F2;shadow=1;strokeWidth=2;rounded=0;whiteSpace=wrap;html=1;sketch=1;hachureGap=4;jiggle=2;curveFitting=1;fontFamily=72, sans-serif;fontSource=https%3A%2F%2Ffonts.googleapis.com%2Fcss%3Ffamily%3DArchitects%2BDaughter;" vertex="1" parent="QRdIB-d-0XUhI7obMMeW-3">
          <mxGeometry x="1768" y="147.5" width="120" height="60" as="geometry" />
        </mxCell>
        <mxCell id="QRdIB-d-0XUhI7obMMeW-8" value="" style="shape=image;verticalLabelPosition=bottom;labelBackgroundColor=default;verticalAlign=top;aspect=fixed;imageAspect=0;image=data:image/png,iVBORw0KGgoAAAANSUhEUgAAAE0AAABGCAMAAAC+EOlBAAAAAXNSR0IArs4c6QAAAARnQU1BAACxjwv8YQUAAAFiUExURQAAAAAAAAAAAAAAAAAAAAAAAAAAAAAAAAAAAAAAAAAAAAAAAAAAAAAAAAAAAAAAAAAAAAAAAAAAAAAAAAAAAAAAAAAAAAAAAAAAAAAAAAAAAAAAAAAAAAAAAAAAAAAAAAAAAAAAAAAAAAAAAAAAAAAAAAAAAAAAAAAAAAAAAAAAAAAAAAUOEwUOEwUOEwUOEgUOEgQNEgQNEQQNEQQNEQQNEQQNEQQOFAQOFAQOFAQOFAQOFAELEgAKEAAKEAAHDgAKEAAHDgAHDQIHCgIHCgIHCgAMFQAECAAECBAuQxAuQgwkNQsgMAwkNQsgMAYUHQodKwACAwAfNQAfNgodKx5VfB5VewAJDwA+bQA/bQA/bgFBbwAMFQAFCAIHCgMHCgAAAAAjPAA4YABFdgBFdwBGeABJfgBPhgBPhwBUkABZmQBamQBamgBipwBiqABuvQBvvgBwvwBwwBlGZjCIxjKMzJre7/QAAABgdFJOUwABAgMEBQYHCAkKCwwNDg8QERITFBUWFxgZGhscHR4fICEiIyQlJicoOTo7bG1ub3F0dXZ3eHmztLW2t7jMzc7Oz9Dc3d7j7O3t7u/w8PHz8/T09PT19vf5+fn5+vv7/HWzT1AAAAAJcEhZcwAAFxEAABcRAcom8z8AAAURSURBVFhH7Zf5d9tEFIUbx7JkWbZl7bZkS3YCLWXf9wAthH0tUHALiCUQsAsJlP+f+2bGji29CTSH3+CenBOfGc+nO2807/ld+l//qna2pUYvJIXY2Wk0GurThXm0FhhoF5Kf1jz6sCkxqBd9RXKaKwkmraQ5IcUXUutYYZpYzaZhtJQMg4ANjItJEmOak2IZLdO0rLaQZZkEpOX0V/UsTLMSz36o3Nb1jt024RCrCXHmWZrW4wTs7T83dffdstdVPIBgeuVZmhYxYHEs7FbpueBh7bPK7ErX7bbkAacIG+JhyzL0Pbfr2M99pgalyLSDh7QMsVnFWIuCxsCW5TAOYe/5KuxWOXB7jm21WHME++aPLb0H2LLMRsC98LnCSCnTbq/TNmGuRqN9lt9t6dsbgC3LArgX67BlmUS+2+XNgbZb/r6lI0mbTtKXvv70o019KEynSej1O22W1mg0edpeMS5/3tKPN8XEJI191+FoZM3Q0SaViV8lrciSwO22TZbWZGmLcn+qoU3Hw1BDa+w2WxqazhtowWqnCiMlNmrqaGMdDTu9J9piUc7yjKchbn6/gzeEC1vL4mnFJOVpeRp5PZt5ewWtzdHm1/JsxNNwCAMcAkOjQ9iknUJHNxaL+cHlCU87fguvm9goF7YNGqEE7ZcvAUuHSXl6qqaEiHZ8+ABZ02z0jEagE9IPn3zx6pVJNkyItskD7fjw6gjWtDdB0dask9++v31wJR+nSRSXJycrHM3fufnT4YNZEg56HdOonaiiWR+rrLrSa5fzLB3GUQSawBEKuvOVgHmwpstHTcO0HdePh9mkmM729vZms2k+SUdxHIXVx7x5NRtSOlIJREHWInNGq+30BsHTasVKb0RRGIZRPBql4zwviiIvJmM4DmANyQ3eGgqyltiqYdnd/uPvqIwodff9Et7CMIjiZDjK0iwbj7N0hOzuD3qOLAvMTsmc2bYfq8CQ/hG4MAAwjCIAoeEwwZDvkjecwm69AspzMB+twZblKInjMPC9J9XWV3odRQZ1Vpir4fCjwHiEq1lj4FAFn6g+CDULx0DmmL0ikz9cqVkfiPSPmwVaNZ4IAc6hi5vFRg7e+JqFKpNENWcIQRR4roOr1ayXZ3rjKpdbZMsl8luaPFWHIaBxgNvAV0B9zcrHz7AhoDeYvw7iDdHQiowPATwH2izC1yxZT9WIkpooRLpkafS68Yv2cw1tNhnxqVxeBW7RguKmp7HezqNN82qVOaOJndbOlMLG1izQirGOdk511tYs5HKeNtXW03Um3xAtmh/cn40Snibqacdiw8bS5gf3ARbzNF091dEAk3VBjSgJ2vzaP6ynSke3X96nlO0HDG1+sH9+Pa3VrFdmlIu8gVenAYZXV/c7VdWsvhfGwxS5X2X/CL1Cv+8yIdhHccZvaMaaNGe0rE637wVhnAjFyF/UxzjdHhMCpCOkXjYdya2iynS6PXfg+UEQ+Nih2+85TsfuOPUQUDlFs8AmXtBE5EzLBq/XF4IrtGto0izb6br+dgjQ3siiwLVFZI7ctdDg2R0pm7oy9H54Bsp2JQSDVfnjYGuc7HOFiIQWlBpSYXkrBOgyUV90MLFXapuxWjS09I8aXGqWqSuthoCaSW1vKnDgUaste236IFp3yauGQBjTwiDF25AY4UMgGv1zYBJXlS4Ef8eSEgilsxH4rIbg7Av3KMXbEI1cjAWJxRWpqQtKQYTU0H9Wly79BWVgD242OWzDAAAAAElFTkSuQmCC;shadow=1;sketch=1;curveFitting=1;jiggle=2;" vertex="1" parent="QRdIB-d-0XUhI7obMMeW-3">
          <mxGeometry x="1932" y="82.5" width="77" height="70" as="geometry" />
        </mxCell>
        <mxCell id="QRdIB-d-0XUhI7obMMeW-9" value="" style="shape=image;verticalLabelPosition=bottom;labelBackgroundColor=default;verticalAlign=top;aspect=fixed;imageAspect=0;image=data:image/png,iVBORw0KGgoAAAANSUhEUgAAAE0AAABGCAMAAAC+EOlBAAAAAXNSR0IArs4c6QAAAARnQU1BAACxjwv8YQUAAAFiUExURQAAAAAAAAAAAAAAAAAAAAAAAAAAAAAAAAAAAAAAAAAAAAAAAAAAAAAAAAAAAAAAAAAAAAAAAAAAAAAAAAAAAAAAAAAAAAAAAAAAAAAAAAAAAAAAAAAAAAAAAAAAAAAAAAAAAAAAAAAAAAAAAAAAAAAAAAAAAAAAAAAAAAAAAAAAAAAAAAUOEwUOEwUOEwUOEgUOEgQNEgQNEQQNEQQNEQQNEQQNEQQOFAQOFAQOFAQOFAQOFAELEgAKEAAKEAAHDgAKEAAHDgAHDQIHCgIHCgIHCgAMFQAECAAECBAuQxAuQgwkNQsgMAwkNQsgMAYUHQodKwACAwAfNQAfNgodKx5VfB5VewAJDwA+bQA/bQA/bgFBbwAMFQAFCAIHCgMHCgAAAAAjPAA4YABFdgBFdwBGeABJfgBPhgBPhwBUkABZmQBamQBamgBipwBiqABuvQBvvgBwvwBwwBlGZjCIxjKMzJre7/QAAABgdFJOUwABAgMEBQYHCAkKCwwNDg8QERITFBUWFxgZGhscHR4fICEiIyQlJicoOTo7bG1ub3F0dXZ3eHmztLW2t7jMzc7Oz9Dc3d7j7O3t7u/w8PHz8/T09PT19vf5+fn5+vv7/HWzT1AAAAAJcEhZcwAAFxEAABcRAcom8z8AAAURSURBVFhH7Zf5d9tEFIUbx7JkWbZl7bZkS3YCLWXf9wAthH0tUHALiCUQsAsJlP+f+2bGji29CTSH3+CenBOfGc+nO2807/ld+l//qna2pUYvJIXY2Wk0GurThXm0FhhoF5Kf1jz6sCkxqBd9RXKaKwkmraQ5IcUXUutYYZpYzaZhtJQMg4ANjItJEmOak2IZLdO0rLaQZZkEpOX0V/UsTLMSz36o3Nb1jt024RCrCXHmWZrW4wTs7T83dffdstdVPIBgeuVZmhYxYHEs7FbpueBh7bPK7ErX7bbkAacIG+JhyzL0Pbfr2M99pgalyLSDh7QMsVnFWIuCxsCW5TAOYe/5KuxWOXB7jm21WHME++aPLb0H2LLMRsC98LnCSCnTbq/TNmGuRqN9lt9t6dsbgC3LArgX67BlmUS+2+XNgbZb/r6lI0mbTtKXvv70o019KEynSej1O22W1mg0edpeMS5/3tKPN8XEJI191+FoZM3Q0SaViV8lrciSwO22TZbWZGmLcn+qoU3Hw1BDa+w2WxqazhtowWqnCiMlNmrqaGMdDTu9J9piUc7yjKchbn6/gzeEC1vL4mnFJOVpeRp5PZt5ewWtzdHm1/JsxNNwCAMcAkOjQ9iknUJHNxaL+cHlCU87fguvm9goF7YNGqEE7ZcvAUuHSXl6qqaEiHZ8+ABZ02z0jEagE9IPn3zx6pVJNkyItskD7fjw6gjWtDdB0dask9++v31wJR+nSRSXJycrHM3fufnT4YNZEg56HdOonaiiWR+rrLrSa5fzLB3GUQSawBEKuvOVgHmwpstHTcO0HdePh9mkmM729vZms2k+SUdxHIXVx7x5NRtSOlIJREHWInNGq+30BsHTasVKb0RRGIZRPBql4zwviiIvJmM4DmANyQ3eGgqyltiqYdnd/uPvqIwodff9Et7CMIjiZDjK0iwbj7N0hOzuD3qOLAvMTsmc2bYfq8CQ/hG4MAAwjCIAoeEwwZDvkjecwm69AspzMB+twZblKInjMPC9J9XWV3odRQZ1Vpir4fCjwHiEq1lj4FAFn6g+CDULx0DmmL0ikz9cqVkfiPSPmwVaNZ4IAc6hi5vFRg7e+JqFKpNENWcIQRR4roOr1ayXZ3rjKpdbZMsl8luaPFWHIaBxgNvAV0B9zcrHz7AhoDeYvw7iDdHQiowPATwH2izC1yxZT9WIkpooRLpkafS68Yv2cw1tNhnxqVxeBW7RguKmp7HezqNN82qVOaOJndbOlMLG1izQirGOdk511tYs5HKeNtXW03Um3xAtmh/cn40Snibqacdiw8bS5gf3ARbzNF091dEAk3VBjSgJ2vzaP6ynSke3X96nlO0HDG1+sH9+Pa3VrFdmlIu8gVenAYZXV/c7VdWsvhfGwxS5X2X/CL1Cv+8yIdhHccZvaMaaNGe0rE637wVhnAjFyF/UxzjdHhMCpCOkXjYdya2iynS6PXfg+UEQ+Nih2+85TsfuOPUQUDlFs8AmXtBE5EzLBq/XF4IrtGto0izb6br+dgjQ3siiwLVFZI7ctdDg2R0pm7oy9H54Bsp2JQSDVfnjYGuc7HOFiIQWlBpSYXkrBOgyUV90MLFXapuxWjS09I8aXGqWqSuthoCaSW1vKnDgUaste236IFp3yauGQBjTwiDF25AY4UMgGv1zYBJXlS4Ef8eSEgilsxH4rIbg7Av3KMXbEI1cjAWJxRWpqQtKQYTU0H9Wly79BWVgD242OWzDAAAAAElFTkSuQmCC;shadow=1;sketch=1;curveFitting=1;jiggle=2;" vertex="1" parent="QRdIB-d-0XUhI7obMMeW-3">
          <mxGeometry x="1926.5" y="90.5" width="77" height="70" as="geometry" />
        </mxCell>
        <mxCell id="QRdIB-d-0XUhI7obMMeW-10" value="&lt;font style=&quot;font-size: 18px;&quot;&gt;MM Revaluation&lt;/font&gt;" style="strokeColor=#0070F2;shadow=1;strokeWidth=2;rounded=0;whiteSpace=wrap;html=1;sketch=1;hachureGap=4;jiggle=2;curveFitting=1;fontFamily=72, sans-serif;fontSource=https%3A%2F%2Ffonts.googleapis.com%2Fcss%3Ffamily%3DArchitects%2BDaughter;" vertex="1" parent="QRdIB-d-0XUhI7obMMeW-3">
          <mxGeometry x="1915" y="150.5" width="120" height="60" as="geometry" />
        </mxCell>
        <mxCell id="QRdIB-d-0XUhI7obMMeW-11" value="&lt;font style=&quot;font-size: 18px;&quot;&gt;MM New&lt;/font&gt;" style="strokeColor=#0070F2;shadow=1;strokeWidth=2;rounded=0;whiteSpace=wrap;html=1;sketch=1;hachureGap=4;jiggle=2;curveFitting=1;fontFamily=72, sans-serif;fontSource=https%3A%2F%2Ffonts.googleapis.com%2Fcss%3Ffamily%3DArchitects%2BDaughter;" vertex="1" parent="QRdIB-d-0XUhI7obMMeW-3">
          <mxGeometry x="477" y="99" width="120" height="60" as="geometry" />
        </mxCell>
        <mxCell id="QRdIB-d-0XUhI7obMMeW-12" value="&lt;font style=&quot;font-size: 36px;&quot;&gt;9&lt;/font&gt;" style="ellipse;whiteSpace=wrap;html=1;sketch=1;hachureGap=4;jiggle=2;curveFitting=1;fontFamily=Architects Daughter;fontSource=https%3A%2F%2Ffonts.googleapis.com%2Fcss%3Ffamily%3DArchitects%2BDaughter;shadow=1;" vertex="1" parent="QRdIB-d-0XUhI7obMMeW-3">
          <mxGeometry x="148.5" y="20" width="30" height="30" as="geometry" />
        </mxCell>
        <mxCell id="QRdIB-d-0XUhI7obMMeW-13" value="&lt;font style=&quot;font-size: 36px;&quot;&gt;9&lt;/font&gt;" style="ellipse;whiteSpace=wrap;html=1;sketch=1;hachureGap=4;jiggle=2;curveFitting=1;fontFamily=Architects Daughter;fontSource=https%3A%2F%2Ffonts.googleapis.com%2Fcss%3Ffamily%3DArchitects%2BDaughter;shadow=1;" vertex="1" parent="QRdIB-d-0XUhI7obMMeW-3">
          <mxGeometry x="447" y="15" width="30" height="30" as="geometry" />
        </mxCell>
        <mxCell id="QRdIB-d-0XUhI7obMMeW-14" value="&lt;font style=&quot;font-size: 36px;&quot;&gt;1&lt;/font&gt;" style="ellipse;whiteSpace=wrap;html=1;sketch=1;hachureGap=4;jiggle=2;curveFitting=1;fontFamily=Architects Daughter;fontSource=https%3A%2F%2Ffonts.googleapis.com%2Fcss%3Ffamily%3DArchitects%2BDaughter;shadow=1;" vertex="1" parent="QRdIB-d-0XUhI7obMMeW-3">
          <mxGeometry x="1740" y="50" width="30" height="30" as="geometry" />
        </mxCell>
        <mxCell id="QRdIB-d-0XUhI7obMMeW-15" value="&lt;font style=&quot;font-size: 36px;&quot;&gt;1&lt;/font&gt;" style="ellipse;whiteSpace=wrap;html=1;sketch=1;hachureGap=4;jiggle=2;curveFitting=1;fontFamily=Architects Daughter;fontSource=https%3A%2F%2Ffonts.googleapis.com%2Fcss%3Ffamily%3DArchitects%2BDaughter;shadow=1;" vertex="1" parent="QRdIB-d-0XUhI7obMMeW-3">
          <mxGeometry x="1900" y="46.5" width="30" height="30" as="geometry" />
        </mxCell>
        <mxCell id="QRdIB-d-0XUhI7obMMeW-16" value="&lt;font color=&quot;#ff0000&quot; style=&quot;font-size: 48px;&quot;&gt;?&lt;/font&gt;" style="ellipse;whiteSpace=wrap;html=1;sketch=1;hachureGap=4;jiggle=2;curveFitting=1;fontFamily=Architects Daughter;fontSource=https%3A%2F%2Ffonts.googleapis.com%2Fcss%3Ffamily%3DArchitects%2BDaughter;shadow=1;" vertex="1" parent="QRdIB-d-0XUhI7obMMeW-3">
          <mxGeometry x="190" y="20" width="120" height="80" as="geometry" />
        </mxCell>
        <mxCell id="QRdIB-d-0XUhI7obMMeW-17" value="" style="group;fillColor=#fff2cc;strokeColor=#d6b656;" vertex="1" connectable="0" parent="QRdIB-d-0XUhI7obMMeW-3">
          <mxGeometry x="65" y="20" width="92" height="83" as="geometry" />
        </mxCell>
        <mxCell id="QRdIB-d-0XUhI7obMMeW-18" value="" style="shape=image;verticalLabelPosition=bottom;labelBackgroundColor=default;verticalAlign=top;aspect=fixed;imageAspect=0;image=data:image/png,iVBORw0KGgoAAAANSUhEUgAAAE0AAABGCAMAAAC+EOlBAAAAAXNSR0IArs4c6QAAAARnQU1BAACxjwv8YQUAAAFiUExURQAAAAAAAAAAAAAAAAAAAAAAAAAAAAAAAAAAAAAAAAAAAAAAAAAAAAAAAAAAAAAAAAAAAAAAAAAAAAAAAAAAAAAAAAAAAAAAAAAAAAAAAAAAAAAAAAAAAAAAAAAAAAAAAAAAAAAAAAAAAAAAAAAAAAAAAAAAAAAAAAAAAAAAAAAAAAAAAAUOEwUOEwUOEwUOEgUOEgQNEgQNEQQNEQQNEQQNEQQNEQQOFAQOFAQOFAQOFAQOFAELEgAKEAAKEAAHDgAKEAAHDgAHDQIHCgIHCgIHCgAMFQAECAAECBAuQxAuQgwkNQsgMAwkNQsgMAYUHQodKwACAwAfNQAfNgodKx5VfB5VewAJDwA+bQA/bQA/bgFBbwAMFQAFCAIHCgMHCgAAAAAjPAA4YABFdgBFdwBGeABJfgBPhgBPhwBUkABZmQBamQBamgBipwBiqABuvQBvvgBwvwBwwBlGZjCIxjKMzJre7/QAAABgdFJOUwABAgMEBQYHCAkKCwwNDg8QERITFBUWFxgZGhscHR4fICEiIyQlJicoOTo7bG1ub3F0dXZ3eHmztLW2t7jMzc7Oz9Dc3d7j7O3t7u/w8PHz8/T09PT19vf5+fn5+vv7/HWzT1AAAAAJcEhZcwAAFxEAABcRAcom8z8AAAURSURBVFhH7Zf5d9tEFIUbx7JkWbZl7bZkS3YCLWXf9wAthH0tUHALiCUQsAsJlP+f+2bGji29CTSH3+CenBOfGc+nO2807/ld+l//qna2pUYvJIXY2Wk0GurThXm0FhhoF5Kf1jz6sCkxqBd9RXKaKwkmraQ5IcUXUutYYZpYzaZhtJQMg4ANjItJEmOak2IZLdO0rLaQZZkEpOX0V/UsTLMSz36o3Nb1jt024RCrCXHmWZrW4wTs7T83dffdstdVPIBgeuVZmhYxYHEs7FbpueBh7bPK7ErX7bbkAacIG+JhyzL0Pbfr2M99pgalyLSDh7QMsVnFWIuCxsCW5TAOYe/5KuxWOXB7jm21WHME++aPLb0H2LLMRsC98LnCSCnTbq/TNmGuRqN9lt9t6dsbgC3LArgX67BlmUS+2+XNgbZb/r6lI0mbTtKXvv70o019KEynSej1O22W1mg0edpeMS5/3tKPN8XEJI191+FoZM3Q0SaViV8lrciSwO22TZbWZGmLcn+qoU3Hw1BDa+w2WxqazhtowWqnCiMlNmrqaGMdDTu9J9piUc7yjKchbn6/gzeEC1vL4mnFJOVpeRp5PZt5ewWtzdHm1/JsxNNwCAMcAkOjQ9iknUJHNxaL+cHlCU87fguvm9goF7YNGqEE7ZcvAUuHSXl6qqaEiHZ8+ABZ02z0jEagE9IPn3zx6pVJNkyItskD7fjw6gjWtDdB0dask9++v31wJR+nSRSXJycrHM3fufnT4YNZEg56HdOonaiiWR+rrLrSa5fzLB3GUQSawBEKuvOVgHmwpstHTcO0HdePh9mkmM729vZms2k+SUdxHIXVx7x5NRtSOlIJREHWInNGq+30BsHTasVKb0RRGIZRPBql4zwviiIvJmM4DmANyQ3eGgqyltiqYdnd/uPvqIwodff9Et7CMIjiZDjK0iwbj7N0hOzuD3qOLAvMTsmc2bYfq8CQ/hG4MAAwjCIAoeEwwZDvkjecwm69AspzMB+twZblKInjMPC9J9XWV3odRQZ1Vpir4fCjwHiEq1lj4FAFn6g+CDULx0DmmL0ikz9cqVkfiPSPmwVaNZ4IAc6hi5vFRg7e+JqFKpNENWcIQRR4roOr1ayXZ3rjKpdbZMsl8luaPFWHIaBxgNvAV0B9zcrHz7AhoDeYvw7iDdHQiowPATwH2izC1yxZT9WIkpooRLpkafS68Yv2cw1tNhnxqVxeBW7RguKmp7HezqNN82qVOaOJndbOlMLG1izQirGOdk511tYs5HKeNtXW03Um3xAtmh/cn40Snibqacdiw8bS5gf3ARbzNF091dEAk3VBjSgJ2vzaP6ynSke3X96nlO0HDG1+sH9+Pa3VrFdmlIu8gVenAYZXV/c7VdWsvhfGwxS5X2X/CL1Cv+8yIdhHccZvaMaaNGe0rE637wVhnAjFyF/UxzjdHhMCpCOkXjYdya2iynS6PXfg+UEQ+Nih2+85TsfuOPUQUDlFs8AmXtBE5EzLBq/XF4IrtGto0izb6br+dgjQ3siiwLVFZI7ctdDg2R0pm7oy9H54Bsp2JQSDVfnjYGuc7HOFiIQWlBpSYXkrBOgyUV90MLFXapuxWjS09I8aXGqWqSuthoCaSW1vKnDgUaste236IFp3yauGQBjTwiDF25AY4UMgGv1zYBJXlS4Ef8eSEgilsxH4rIbg7Av3KMXbEI1cjAWJxRWpqQtKQYTU0H9Wly79BWVgD242OWzDAAAAAElFTkSuQmCC;shadow=1;sketch=1;curveFitting=1;jiggle=2;" vertex="1" parent="QRdIB-d-0XUhI7obMMeW-17">
          <mxGeometry x="15" width="77" height="70" as="geometry" />
        </mxCell>
        <mxCell id="QRdIB-d-0XUhI7obMMeW-19" value="" style="shape=image;verticalLabelPosition=bottom;labelBackgroundColor=default;verticalAlign=top;aspect=fixed;imageAspect=0;image=data:image/png,iVBORw0KGgoAAAANSUhEUgAAAE0AAABGCAMAAAC+EOlBAAAAAXNSR0IArs4c6QAAAARnQU1BAACxjwv8YQUAAAFiUExURQAAAAAAAAAAAAAAAAAAAAAAAAAAAAAAAAAAAAAAAAAAAAAAAAAAAAAAAAAAAAAAAAAAAAAAAAAAAAAAAAAAAAAAAAAAAAAAAAAAAAAAAAAAAAAAAAAAAAAAAAAAAAAAAAAAAAAAAAAAAAAAAAAAAAAAAAAAAAAAAAAAAAAAAAAAAAAAAAUOEwUOEwUOEwUOEgUOEgQNEgQNEQQNEQQNEQQNEQQNEQQOFAQOFAQOFAQOFAQOFAELEgAKEAAKEAAHDgAKEAAHDgAHDQIHCgIHCgIHCgAMFQAECAAECBAuQxAuQgwkNQsgMAwkNQsgMAYUHQodKwACAwAfNQAfNgodKx5VfB5VewAJDwA+bQA/bQA/bgFBbwAMFQAFCAIHCgMHCgAAAAAjPAA4YABFdgBFdwBGeABJfgBPhgBPhwBUkABZmQBamQBamgBipwBiqABuvQBvvgBwvwBwwBlGZjCIxjKMzJre7/QAAABgdFJOUwABAgMEBQYHCAkKCwwNDg8QERITFBUWFxgZGhscHR4fICEiIyQlJicoOTo7bG1ub3F0dXZ3eHmztLW2t7jMzc7Oz9Dc3d7j7O3t7u/w8PHz8/T09PT19vf5+fn5+vv7/HWzT1AAAAAJcEhZcwAAFxEAABcRAcom8z8AAAURSURBVFhH7Zf5d9tEFIUbx7JkWbZl7bZkS3YCLWXf9wAthH0tUHALiCUQsAsJlP+f+2bGji29CTSH3+CenBOfGc+nO2807/ld+l//qna2pUYvJIXY2Wk0GurThXm0FhhoF5Kf1jz6sCkxqBd9RXKaKwkmraQ5IcUXUutYYZpYzaZhtJQMg4ANjItJEmOak2IZLdO0rLaQZZkEpOX0V/UsTLMSz36o3Nb1jt024RCrCXHmWZrW4wTs7T83dffdstdVPIBgeuVZmhYxYHEs7FbpueBh7bPK7ErX7bbkAacIG+JhyzL0Pbfr2M99pgalyLSDh7QMsVnFWIuCxsCW5TAOYe/5KuxWOXB7jm21WHME++aPLb0H2LLMRsC98LnCSCnTbq/TNmGuRqN9lt9t6dsbgC3LArgX67BlmUS+2+XNgbZb/r6lI0mbTtKXvv70o019KEynSej1O22W1mg0edpeMS5/3tKPN8XEJI191+FoZM3Q0SaViV8lrciSwO22TZbWZGmLcn+qoU3Hw1BDa+w2WxqazhtowWqnCiMlNmrqaGMdDTu9J9piUc7yjKchbn6/gzeEC1vL4mnFJOVpeRp5PZt5ewWtzdHm1/JsxNNwCAMcAkOjQ9iknUJHNxaL+cHlCU87fguvm9goF7YNGqEE7ZcvAUuHSXl6qqaEiHZ8+ABZ02z0jEagE9IPn3zx6pVJNkyItskD7fjw6gjWtDdB0dask9++v31wJR+nSRSXJycrHM3fufnT4YNZEg56HdOonaiiWR+rrLrSa5fzLB3GUQSawBEKuvOVgHmwpstHTcO0HdePh9mkmM729vZms2k+SUdxHIXVx7x5NRtSOlIJREHWInNGq+30BsHTasVKb0RRGIZRPBql4zwviiIvJmM4DmANyQ3eGgqyltiqYdnd/uPvqIwodff9Et7CMIjiZDjK0iwbj7N0hOzuD3qOLAvMTsmc2bYfq8CQ/hG4MAAwjCIAoeEwwZDvkjecwm69AspzMB+twZblKInjMPC9J9XWV3odRQZ1Vpir4fCjwHiEq1lj4FAFn6g+CDULx0DmmL0ikz9cqVkfiPSPmwVaNZ4IAc6hi5vFRg7e+JqFKpNENWcIQRR4roOr1ayXZ3rjKpdbZMsl8luaPFWHIaBxgNvAV0B9zcrHz7AhoDeYvw7iDdHQiowPATwH2izC1yxZT9WIkpooRLpkafS68Yv2cw1tNhnxqVxeBW7RguKmp7HezqNN82qVOaOJndbOlMLG1izQirGOdk511tYs5HKeNtXW03Um3xAtmh/cn40Snibqacdiw8bS5gf3ARbzNF091dEAk3VBjSgJ2vzaP6ynSke3X96nlO0HDG1+sH9+Pa3VrFdmlIu8gVenAYZXV/c7VdWsvhfGwxS5X2X/CL1Cv+8yIdhHccZvaMaaNGe0rE637wVhnAjFyF/UxzjdHhMCpCOkXjYdya2iynS6PXfg+UEQ+Nih2+85TsfuOPUQUDlFs8AmXtBE5EzLBq/XF4IrtGto0izb6br+dgjQ3siiwLVFZI7ctdDg2R0pm7oy9H54Bsp2JQSDVfnjYGuc7HOFiIQWlBpSYXkrBOgyUV90MLFXapuxWjS09I8aXGqWqSuthoCaSW1vKnDgUaste236IFp3yauGQBjTwiDF25AY4UMgGv1zYBJXlS4Ef8eSEgilsxH4rIbg7Av3KMXbEI1cjAWJxRWpqQtKQYTU0H9Wly79BWVgD242OWzDAAAAAElFTkSuQmCC;shadow=1;sketch=1;curveFitting=1;jiggle=2;" vertex="1" parent="QRdIB-d-0XUhI7obMMeW-17">
          <mxGeometry y="13" width="77" height="70" as="geometry" />
        </mxCell>
        <mxCell id="QRdIB-d-0XUhI7obMMeW-20" value="" style="group" vertex="1" connectable="0" parent="QRdIB-d-0XUhI7obMMeW-3">
          <mxGeometry x="494.61" y="12.5" width="84.77999999999997" height="75" as="geometry" />
        </mxCell>
        <mxCell id="QRdIB-d-0XUhI7obMMeW-21" value="" style="shape=image;verticalLabelPosition=bottom;labelBackgroundColor=default;verticalAlign=top;aspect=fixed;imageAspect=0;image=data:image/png,iVBORw0KGgoAAAANSUhEUgAAAE0AAABGCAMAAAC+EOlBAAAAAXNSR0IArs4c6QAAAARnQU1BAACxjwv8YQUAAAFiUExURQAAAAAAAAAAAAAAAAAAAAAAAAAAAAAAAAAAAAAAAAAAAAAAAAAAAAAAAAAAAAAAAAAAAAAAAAAAAAAAAAAAAAAAAAAAAAAAAAAAAAAAAAAAAAAAAAAAAAAAAAAAAAAAAAAAAAAAAAAAAAAAAAAAAAAAAAAAAAAAAAAAAAAAAAAAAAAAAAUOEwUOEwUOEwUOEgUOEgQNEgQNEQQNEQQNEQQNEQQNEQQOFAQOFAQOFAQOFAQOFAELEgAKEAAKEAAHDgAKEAAHDgAHDQIHCgIHCgIHCgAMFQAECAAECBAuQxAuQgwkNQsgMAwkNQsgMAYUHQodKwACAwAfNQAfNgodKx5VfB5VewAJDwA+bQA/bQA/bgFBbwAMFQAFCAIHCgMHCgAAAAAjPAA4YABFdgBFdwBGeABJfgBPhgBPhwBUkABZmQBamQBamgBipwBiqABuvQBvvgBwvwBwwBlGZjCIxjKMzJre7/QAAABgdFJOUwABAgMEBQYHCAkKCwwNDg8QERITFBUWFxgZGhscHR4fICEiIyQlJicoOTo7bG1ub3F0dXZ3eHmztLW2t7jMzc7Oz9Dc3d7j7O3t7u/w8PHz8/T09PT19vf5+fn5+vv7/HWzT1AAAAAJcEhZcwAAFxEAABcRAcom8z8AAAURSURBVFhH7Zf5d9tEFIUbx7JkWbZl7bZkS3YCLWXf9wAthH0tUHALiCUQsAsJlP+f+2bGji29CTSH3+CenBOfGc+nO2807/ld+l//qna2pUYvJIXY2Wk0GurThXm0FhhoF5Kf1jz6sCkxqBd9RXKaKwkmraQ5IcUXUutYYZpYzaZhtJQMg4ANjItJEmOak2IZLdO0rLaQZZkEpOX0V/UsTLMSz36o3Nb1jt024RCrCXHmWZrW4wTs7T83dffdstdVPIBgeuVZmhYxYHEs7FbpueBh7bPK7ErX7bbkAacIG+JhyzL0Pbfr2M99pgalyLSDh7QMsVnFWIuCxsCW5TAOYe/5KuxWOXB7jm21WHME++aPLb0H2LLMRsC98LnCSCnTbq/TNmGuRqN9lt9t6dsbgC3LArgX67BlmUS+2+XNgbZb/r6lI0mbTtKXvv70o019KEynSej1O22W1mg0edpeMS5/3tKPN8XEJI191+FoZM3Q0SaViV8lrciSwO22TZbWZGmLcn+qoU3Hw1BDa+w2WxqazhtowWqnCiMlNmrqaGMdDTu9J9piUc7yjKchbn6/gzeEC1vL4mnFJOVpeRp5PZt5ewWtzdHm1/JsxNNwCAMcAkOjQ9iknUJHNxaL+cHlCU87fguvm9goF7YNGqEE7ZcvAUuHSXl6qqaEiHZ8+ABZ02z0jEagE9IPn3zx6pVJNkyItskD7fjw6gjWtDdB0dask9++v31wJR+nSRSXJycrHM3fufnT4YNZEg56HdOonaiiWR+rrLrSa5fzLB3GUQSawBEKuvOVgHmwpstHTcO0HdePh9mkmM729vZms2k+SUdxHIXVx7x5NRtSOlIJREHWInNGq+30BsHTasVKb0RRGIZRPBql4zwviiIvJmM4DmANyQ3eGgqyltiqYdnd/uPvqIwodff9Et7CMIjiZDjK0iwbj7N0hOzuD3qOLAvMTsmc2bYfq8CQ/hG4MAAwjCIAoeEwwZDvkjecwm69AspzMB+twZblKInjMPC9J9XWV3odRQZ1Vpir4fCjwHiEq1lj4FAFn6g+CDULx0DmmL0ikz9cqVkfiPSPmwVaNZ4IAc6hi5vFRg7e+JqFKpNENWcIQRR4roOr1ayXZ3rjKpdbZMsl8luaPFWHIaBxgNvAV0B9zcrHz7AhoDeYvw7iDdHQiowPATwH2izC1yxZT9WIkpooRLpkafS68Yv2cw1tNhnxqVxeBW7RguKmp7HezqNN82qVOaOJndbOlMLG1izQirGOdk511tYs5HKeNtXW03Um3xAtmh/cn40Snibqacdiw8bS5gf3ARbzNF091dEAk3VBjSgJ2vzaP6ynSke3X96nlO0HDG1+sH9+Pa3VrFdmlIu8gVenAYZXV/c7VdWsvhfGwxS5X2X/CL1Cv+8yIdhHccZvaMaaNGe0rE637wVhnAjFyF/UxzjdHhMCpCOkXjYdya2iynS6PXfg+UEQ+Nih2+85TsfuOPUQUDlFs8AmXtBE5EzLBq/XF4IrtGto0izb6br+dgjQ3siiwLVFZI7ctdDg2R0pm7oy9H54Bsp2JQSDVfnjYGuc7HOFiIQWlBpSYXkrBOgyUV90MLFXapuxWjS09I8aXGqWqSuthoCaSW1vKnDgUaste236IFp3yauGQBjTwiDF25AY4UMgGv1zYBJXlS4Ef8eSEgilsxH4rIbg7Av3KMXbEI1cjAWJxRWpqQtKQYTU0H9Wly79BWVgD242OWzDAAAAAElFTkSuQmCC;shadow=1;sketch=1;curveFitting=1;jiggle=2;" vertex="1" parent="QRdIB-d-0XUhI7obMMeW-20">
          <mxGeometry x="7.779999999999973" width="77" height="70" as="geometry" />
        </mxCell>
        <mxCell id="QRdIB-d-0XUhI7obMMeW-22" value="" style="shape=image;verticalLabelPosition=bottom;labelBackgroundColor=default;verticalAlign=top;aspect=fixed;imageAspect=0;image=data:image/png,iVBORw0KGgoAAAANSUhEUgAAAE0AAABGCAMAAAC+EOlBAAAAAXNSR0IArs4c6QAAAARnQU1BAACxjwv8YQUAAAFiUExURQAAAAAAAAAAAAAAAAAAAAAAAAAAAAAAAAAAAAAAAAAAAAAAAAAAAAAAAAAAAAAAAAAAAAAAAAAAAAAAAAAAAAAAAAAAAAAAAAAAAAAAAAAAAAAAAAAAAAAAAAAAAAAAAAAAAAAAAAAAAAAAAAAAAAAAAAAAAAAAAAAAAAAAAAAAAAAAAAUOEwUOEwUOEwUOEgUOEgQNEgQNEQQNEQQNEQQNEQQNEQQOFAQOFAQOFAQOFAQOFAELEgAKEAAKEAAHDgAKEAAHDgAHDQIHCgIHCgIHCgAMFQAECAAECBAuQxAuQgwkNQsgMAwkNQsgMAYUHQodKwACAwAfNQAfNgodKx5VfB5VewAJDwA+bQA/bQA/bgFBbwAMFQAFCAIHCgMHCgAAAAAjPAA4YABFdgBFdwBGeABJfgBPhgBPhwBUkABZmQBamQBamgBipwBiqABuvQBvvgBwvwBwwBlGZjCIxjKMzJre7/QAAABgdFJOUwABAgMEBQYHCAkKCwwNDg8QERITFBUWFxgZGhscHR4fICEiIyQlJicoOTo7bG1ub3F0dXZ3eHmztLW2t7jMzc7Oz9Dc3d7j7O3t7u/w8PHz8/T09PT19vf5+fn5+vv7/HWzT1AAAAAJcEhZcwAAFxEAABcRAcom8z8AAAURSURBVFhH7Zf5d9tEFIUbx7JkWbZl7bZkS3YCLWXf9wAthH0tUHALiCUQsAsJlP+f+2bGji29CTSH3+CenBOfGc+nO2807/ld+l//qna2pUYvJIXY2Wk0GurThXm0FhhoF5Kf1jz6sCkxqBd9RXKaKwkmraQ5IcUXUutYYZpYzaZhtJQMg4ANjItJEmOak2IZLdO0rLaQZZkEpOX0V/UsTLMSz36o3Nb1jt024RCrCXHmWZrW4wTs7T83dffdstdVPIBgeuVZmhYxYHEs7FbpueBh7bPK7ErX7bbkAacIG+JhyzL0Pbfr2M99pgalyLSDh7QMsVnFWIuCxsCW5TAOYe/5KuxWOXB7jm21WHME++aPLb0H2LLMRsC98LnCSCnTbq/TNmGuRqN9lt9t6dsbgC3LArgX67BlmUS+2+XNgbZb/r6lI0mbTtKXvv70o019KEynSej1O22W1mg0edpeMS5/3tKPN8XEJI191+FoZM3Q0SaViV8lrciSwO22TZbWZGmLcn+qoU3Hw1BDa+w2WxqazhtowWqnCiMlNmrqaGMdDTu9J9piUc7yjKchbn6/gzeEC1vL4mnFJOVpeRp5PZt5ewWtzdHm1/JsxNNwCAMcAkOjQ9iknUJHNxaL+cHlCU87fguvm9goF7YNGqEE7ZcvAUuHSXl6qqaEiHZ8+ABZ02z0jEagE9IPn3zx6pVJNkyItskD7fjw6gjWtDdB0dask9++v31wJR+nSRSXJycrHM3fufnT4YNZEg56HdOonaiiWR+rrLrSa5fzLB3GUQSawBEKuvOVgHmwpstHTcO0HdePh9mkmM729vZms2k+SUdxHIXVx7x5NRtSOlIJREHWInNGq+30BsHTasVKb0RRGIZRPBql4zwviiIvJmM4DmANyQ3eGgqyltiqYdnd/uPvqIwodff9Et7CMIjiZDjK0iwbj7N0hOzuD3qOLAvMTsmc2bYfq8CQ/hG4MAAwjCIAoeEwwZDvkjecwm69AspzMB+twZblKInjMPC9J9XWV3odRQZ1Vpir4fCjwHiEq1lj4FAFn6g+CDULx0DmmL0ikz9cqVkfiPSPmwVaNZ4IAc6hi5vFRg7e+JqFKpNENWcIQRR4roOr1ayXZ3rjKpdbZMsl8luaPFWHIaBxgNvAV0B9zcrHz7AhoDeYvw7iDdHQiowPATwH2izC1yxZT9WIkpooRLpkafS68Yv2cw1tNhnxqVxeBW7RguKmp7HezqNN82qVOaOJndbOlMLG1izQirGOdk511tYs5HKeNtXW03Um3xAtmh/cn40Snibqacdiw8bS5gf3ARbzNF091dEAk3VBjSgJ2vzaP6ynSke3X96nlO0HDG1+sH9+Pa3VrFdmlIu8gVenAYZXV/c7VdWsvhfGwxS5X2X/CL1Cv+8yIdhHccZvaMaaNGe0rE637wVhnAjFyF/UxzjdHhMCpCOkXjYdya2iynS6PXfg+UEQ+Nih2+85TsfuOPUQUDlFs8AmXtBE5EzLBq/XF4IrtGto0izb6br+dgjQ3siiwLVFZI7ctdDg2R0pm7oy9H54Bsp2JQSDVfnjYGuc7HOFiIQWlBpSYXkrBOgyUV90MLFXapuxWjS09I8aXGqWqSuthoCaSW1vKnDgUaste236IFp3yauGQBjTwiDF25AY4UMgGv1zYBJXlS4Ef8eSEgilsxH4rIbg7Av3KMXbEI1cjAWJxRWpqQtKQYTU0H9Wly79BWVgD242OWzDAAAAAElFTkSuQmCC;shadow=1;sketch=1;curveFitting=1;jiggle=2;" vertex="1" parent="QRdIB-d-0XUhI7obMMeW-20">
          <mxGeometry y="5" width="77" height="70" as="geometry" />
        </mxCell>
        <mxCell id="QRdIB-d-0XUhI7obMMeW-23" style="rounded=0;hachureGap=4;orthogonalLoop=1;jettySize=auto;html=1;fontFamily=Architects Daughter;fontSource=https%3A%2F%2Ffonts.googleapis.com%2Fcss%3Ffamily%3DArchitects%2BDaughter;flowAnimation=1;dashed=1;strokeWidth=2;exitX=1;exitY=0.75;exitDx=0;exitDy=0;entryX=0.5;entryY=1;entryDx=0;entryDy=0;" edge="1" parent="1" source="QRdIB-d-0XUhI7obMMeW-24" target="QRdIB-d-0XUhI7obMMeW-10">
          <mxGeometry relative="1" as="geometry">
            <mxPoint x="-1379" y="-11" as="targetPoint" />
          </mxGeometry>
        </mxCell>
        <mxCell id="QRdIB-d-0XUhI7obMMeW-24" value="" style="shape=image;verticalLabelPosition=bottom;labelBackgroundColor=default;verticalAlign=top;aspect=fixed;imageAspect=0;image=data:image/png,iVBORw0KGgoAAAANSUhEUgAAAGUAAAA8CAMAAABII4TCAAAAAXNSR0IArs4c6QAAAARnQU1BAACxjwv8YQUAAAH1UExURQAAAAAAAAAAAAAAAAAAAAAAAAAAAAAAAAAAAAAAAAAAAAAAAAAAAAAAAAAAAAAAAAAAAAAAAAAAAAAAAAAAAAAAAAAAAAAAAAAAAAAAAAAAAAAAAAAAAAAAAAAAAAAAAAAAAAAAAAAAAAAAAAAAAAAAAAAAAAAAAAAAAAAAAAAAAAAAAAAAAAAAAAAAAAAAAAAAAAAAAAAAAAAAAAAAAAAAAAAAAAAAAAAAAAAAAAAAAAAAAAQICAAAAAAAAAAAAAAAAAAAAAIFBwAAAAAICwAKDQcPEggPEgALDwgPEgAOEgANEQANEgANEgAOEwkTFwkQFAkQFAANEgANEQAKDwALEAYMDgULDQAJDAULDQAJDAAeKQAjMAAqOREjKhQqMRkxOgAwQQ4dIgwWGgAHCQAHCQYzQwY6TAcoMxQsNBs6RB9BTgAPFAVAVREmLSRJVgBEXQ4fJShQXwAKDQMGBwUYHgsaHydRXwAFBwUTGC5fcQBKZgNMZgQHCShSYStYaCtYaS5fcChSYQBRcAFScAIDBAJdfgQJDDBhcgIFBgAAAABYeABjhwBojgBulgBznQB5pQB+rACEtACJuwCPwwCUygCa0gCf2QCl4QCq6ACw8DNoezZugjl1ikCCmUOIoUaPqUycuFavz1m212DD52PJ7mbQ9laT9xQAAACKdFJOUwABAgMEBQYHCAkKCwwNDg8QERITFBUWFxgZGhscHR4fICUpKi4yNTc+QkNERk5QU1RWWF9laXBzdnp7goKDhIeOj4+Qo6urtba4u77BxMrM0NHV3N7i5evs7O3v7+/v7+/w8PHy8/Pz8/Pz8/T09PT19fX29vb29vf39/j4+Pj4+Pj5+/v7+/v7/V+IQqIAAAAJcEhZcwAAFxEAABcRAcom8z8AAAQtSURBVFhH7Zj5d9tEEIATJ7Ik65YsK/IRSilnuMpNuTG03AQDhYK5ylEHyllKKfcNXSdN6xZakkIxAf5OZlajvtRaOdfyeH2v30+2dma+tzuSnnZHznMuM7oSFLceqMLaoNzVQBmcwiqhcISqDIVCKbkwtozxDDSAUHySTbXy4DEYzTOTUkpKcRC6rihJYCpbwUMKrG9eMTU1te0OYJrzxCD33glcCUQqkDq5argHHRdffutt09PPsO9fAn5aBPpiTuEYBn3OPkTnVZdpGtrARB6qOsDmG7fvZLuhdL+/9M9a+AudL7/Idj14y6VoAk+e5qadr37w+5+Utz6WTn+5e9ftnqYWEw1VXsaOLzZmSFn65HFD14qKWMO+kWT5mtlmScPZiCyz+z86sOEV++r9gz8wDzQq9iarYQsLP8+9vZ+98+bi6X7/b8pbJf3+H4tvzbCDe2aPLyywsmcbOq5ZxjIKFs6xI909nc4hdmhmZuZduFdP0Y2b5TcYPQBRPzLW6bzRne9RBRaVXQsnM8SS8muv1zvc7Xa/6+TxGYzOQdRJykhhccW3DegM9J+qp2Qs64fVosAxdd5/qp4i09KYKLtCy6hUS/z/WgqyLdj9gXsM3sVS+xI4hpa9k+Va6hHcyWr2qZRrqVV8fCqzlsKYREs19CxB82EqMi35zZdpiQJ4wQjbMi7Rkt8WmZbQEz2TuGCKREvZyWuLTEt+W4oSLZ64LZItea/KMakWeInltEWVaLFzFkyuhRbsP7aIFowsT81T0EY5+qxowbhlvLjpkX3vzf9CkevlxJFP9z52EUwla0nuMc248OaHntvX/na2d4Jy1sLJ3ly3vfe1R7dtwa9XgQQnM66oJdPxwy3X3nVf63XGnm+/AN90h+Gb7hiVyXIcRuch6pV2m7GPW/fffc0lYQBfleKp0JJphuX6YRRX643Jyauvu77ZbD7QarWeZHk8DaMPN5v33LB1a6Neq8ZRpew7FrReOBW04GR0w3K8oFyJJuJqtVar1+uNBggnJy/gbOIkv/EqDDbq9VqtVq3GExEoAt/lewr4rBBZkskoqlYyLcf1/KAchpVKFE0AcQxKAKoR/C9cjmE0guqVMCyDwXMd2+T7I+F6AbhrBU1R00uGadmO63qe7/tBEJSBEKgsA/9DYSgdBBDleS4IbMs0Sjrf66FEZEk1SlFFkWGalmXZtu0ALuANgNdcHIQYiDRNAwyoGLZvBVADHphPUVU1Tdf1Ugl0KESg1DKSazgKQVBe12gPjpv9IRLSFPC0QuFnFHhSADoAqgjgQ1D7zHkCP7pIzi2opAgYPXMywo878CTirEMRLqbfQDKenI1gEimGSgAewk10CoPwImIogpdHknwqNowkEKDEFCpH0MUUSkGozCqghLOhghy6NABlrxXKXgEKPs85x8jIv6FnG3k+2K4LAAAAAElFTkSuQmCC;shadow=1;sketch=1;curveFitting=1;jiggle=2;" vertex="1" parent="1">
          <mxGeometry x="-1458" y="286" width="84.17" height="50" as="geometry" />
        </mxCell>
        <mxCell id="QRdIB-d-0XUhI7obMMeW-25" value="&lt;font style=&quot;font-size: 18px;&quot;&gt;MM_SUMA1&lt;/font&gt;&lt;div&gt;&lt;font style=&quot;font-size: 18px;&quot;&gt;MM Revaluation&lt;/font&gt;&lt;/div&gt;" style="strokeColor=#0070F2;shadow=1;strokeWidth=2;rounded=0;whiteSpace=wrap;html=1;sketch=1;hachureGap=4;jiggle=2;curveFitting=1;fontFamily=72, sans-serif;fontSource=https%3A%2F%2Ffonts.googleapis.com%2Fcss%3Ffamily%3DArchitects%2BDaughter;" vertex="1" parent="1">
          <mxGeometry x="-1447" y="328" width="157.91" height="60" as="geometry" />
        </mxCell>
        <mxCell id="QRdIB-d-0XUhI7obMMeW-26" value="" style="shape=image;verticalLabelPosition=bottom;labelBackgroundColor=default;verticalAlign=top;aspect=fixed;imageAspect=0;image=data:image/png,iVBORw0KGgoAAAANSUhEUgAAAGUAAAA8CAMAAABII4TCAAAAAXNSR0IArs4c6QAAAARnQU1BAACxjwv8YQUAAAH1UExURQAAAAAAAAAAAAAAAAAAAAAAAAAAAAAAAAAAAAAAAAAAAAAAAAAAAAAAAAAAAAAAAAAAAAAAAAAAAAAAAAAAAAAAAAAAAAAAAAAAAAAAAAAAAAAAAAAAAAAAAAAAAAAAAAAAAAAAAAAAAAAAAAAAAAAAAAAAAAAAAAAAAAAAAAAAAAAAAAAAAAAAAAAAAAAAAAAAAAAAAAAAAAAAAAAAAAAAAAAAAAAAAAAAAAAAAAAAAAAAAAQICAAAAAAAAAAAAAAAAAAAAAIFBwAAAAAICwAKDQcPEggPEgALDwgPEgAOEgANEQANEgANEgAOEwkTFwkQFAkQFAANEgANEQAKDwALEAYMDgULDQAJDAULDQAJDAAeKQAjMAAqOREjKhQqMRkxOgAwQQ4dIgwWGgAHCQAHCQYzQwY6TAcoMxQsNBs6RB9BTgAPFAVAVREmLSRJVgBEXQ4fJShQXwAKDQMGBwUYHgsaHydRXwAFBwUTGC5fcQBKZgNMZgQHCShSYStYaCtYaS5fcChSYQBRcAFScAIDBAJdfgQJDDBhcgIFBgAAAABYeABjhwBojgBulgBznQB5pQB+rACEtACJuwCPwwCUygCa0gCf2QCl4QCq6ACw8DNoezZugjl1ikCCmUOIoUaPqUycuFavz1m212DD52PJ7mbQ9laT9xQAAACKdFJOUwABAgMEBQYHCAkKCwwNDg8QERITFBUWFxgZGhscHR4fICUpKi4yNTc+QkNERk5QU1RWWF9laXBzdnp7goKDhIeOj4+Qo6urtba4u77BxMrM0NHV3N7i5evs7O3v7+/v7+/w8PHy8/Pz8/Pz8/T09PT19fX29vb29vf39/j4+Pj4+Pj5+/v7+/v7/V+IQqIAAAAJcEhZcwAAFxEAABcRAcom8z8AAAQtSURBVFhH7Zj5d9tEEIATJ7Ik65YsK/IRSilnuMpNuTG03AQDhYK5ylEHyllKKfcNXSdN6xZakkIxAf5OZlajvtRaOdfyeH2v30+2dma+tzuSnnZHznMuM7oSFLceqMLaoNzVQBmcwiqhcISqDIVCKbkwtozxDDSAUHySTbXy4DEYzTOTUkpKcRC6rihJYCpbwUMKrG9eMTU1te0OYJrzxCD33glcCUQqkDq5argHHRdffutt09PPsO9fAn5aBPpiTuEYBn3OPkTnVZdpGtrARB6qOsDmG7fvZLuhdL+/9M9a+AudL7/Idj14y6VoAk+e5qadr37w+5+Utz6WTn+5e9ftnqYWEw1VXsaOLzZmSFn65HFD14qKWMO+kWT5mtlmScPZiCyz+z86sOEV++r9gz8wDzQq9iarYQsLP8+9vZ+98+bi6X7/b8pbJf3+H4tvzbCDe2aPLyywsmcbOq5ZxjIKFs6xI909nc4hdmhmZuZduFdP0Y2b5TcYPQBRPzLW6bzRne9RBRaVXQsnM8SS8muv1zvc7Xa/6+TxGYzOQdRJykhhccW3DegM9J+qp2Qs64fVosAxdd5/qp4i09KYKLtCy6hUS/z/WgqyLdj9gXsM3sVS+xI4hpa9k+Va6hHcyWr2qZRrqVV8fCqzlsKYREs19CxB82EqMi35zZdpiQJ4wQjbMi7Rkt8WmZbQEz2TuGCKREvZyWuLTEt+W4oSLZ64LZItea/KMakWeInltEWVaLFzFkyuhRbsP7aIFowsT81T0EY5+qxowbhlvLjpkX3vzf9CkevlxJFP9z52EUwla0nuMc248OaHntvX/na2d4Jy1sLJ3ly3vfe1R7dtwa9XgQQnM66oJdPxwy3X3nVf63XGnm+/AN90h+Gb7hiVyXIcRuch6pV2m7GPW/fffc0lYQBfleKp0JJphuX6YRRX643Jyauvu77ZbD7QarWeZHk8DaMPN5v33LB1a6Neq8ZRpew7FrReOBW04GR0w3K8oFyJJuJqtVar1+uNBggnJy/gbOIkv/EqDDbq9VqtVq3GExEoAt/lewr4rBBZkskoqlYyLcf1/KAchpVKFE0AcQxKAKoR/C9cjmE0guqVMCyDwXMd2+T7I+F6AbhrBU1R00uGadmO63qe7/tBEJSBEKgsA/9DYSgdBBDleS4IbMs0Sjrf66FEZEk1SlFFkWGalmXZtu0ALuANgNdcHIQYiDRNAwyoGLZvBVADHphPUVU1Tdf1Ugl0KESg1DKSazgKQVBe12gPjpv9IRLSFPC0QuFnFHhSADoAqgjgQ1D7zHkCP7pIzi2opAgYPXMywo878CTirEMRLqbfQDKenI1gEimGSgAewk10CoPwImIogpdHknwqNowkEKDEFCpH0MUUSkGozCqghLOhghy6NABlrxXKXgEKPs85x8jIv6FnG3k+2K4LAAAAAElFTkSuQmCC;shadow=1;sketch=1;curveFitting=1;jiggle=2;" vertex="1" parent="1">
          <mxGeometry x="-1476.17" y="634.0000000000001" width="84.17" height="50" as="geometry" />
        </mxCell>
        <mxCell id="QRdIB-d-0XUhI7obMMeW-27" value="&lt;div style=&quot;&quot;&gt;&lt;span style=&quot;font-size: 18px; background-color: initial;&quot;&gt;LSP01O48&lt;/span&gt;&lt;/div&gt;&lt;div&gt;&lt;div style=&quot;&quot;&gt;&lt;br&gt;&lt;/div&gt;&lt;table style=&quot;width: 254pt;&quot; width=&quot;339&quot; cellspacing=&quot;0&quot; cellpadding=&quot;0&quot; border=&quot;0&quot;&gt;&lt;tbody&gt;&lt;tr style=&quot;height:15.0pt&quot; height=&quot;20&quot;&gt;  &lt;td style=&quot;height:15.0pt;width:254pt&quot; width=&quot;339&quot; height=&quot;20&quot;&gt;&lt;font size=&quot;3&quot;&gt;MM: Revaluations (WO)&lt;/font&gt;&lt;/td&gt;&lt;/tr&gt;&lt;/tbody&gt;&lt;/table&gt;&lt;/div&gt;" style="strokeColor=#0070F2;shadow=1;strokeWidth=2;rounded=0;whiteSpace=wrap;html=1;sketch=1;hachureGap=4;jiggle=2;curveFitting=1;fontFamily=72, sans-serif;fontSource=https%3A%2F%2Ffonts.googleapis.com%2Fcss%3Ffamily%3DArchitects%2BDaughter;" vertex="1" parent="1">
          <mxGeometry x="-1468.05" y="681.17" width="248.05" height="75" as="geometry" />
        </mxCell>
        <mxCell id="QRdIB-d-0XUhI7obMMeW-28" style="rounded=0;hachureGap=4;orthogonalLoop=1;jettySize=auto;html=1;fontFamily=Architects Daughter;fontSource=https%3A%2F%2Ffonts.googleapis.com%2Fcss%3Ffamily%3DArchitects%2BDaughter;flowAnimation=1;dashed=1;strokeWidth=2;entryX=0.5;entryY=1;entryDx=0;entryDy=0;exitX=0.5;exitY=0;exitDx=0;exitDy=0;" edge="1" parent="1" source="QRdIB-d-0XUhI7obMMeW-30" target="QRdIB-d-0XUhI7obMMeW-27">
          <mxGeometry relative="1" as="geometry">
            <mxPoint x="-1358" y="666" as="sourcePoint" />
          </mxGeometry>
        </mxCell>
        <mxCell id="QRdIB-d-0XUhI7obMMeW-29" value="" style="shape=image;verticalLabelPosition=bottom;labelBackgroundColor=default;verticalAlign=top;aspect=fixed;imageAspect=0;image=data:image/png,iVBORw0KGgoAAAANSUhEUgAAAFUAAABKCAMAAAD9q+gmAAAAAXNSR0IArs4c6QAAAARnQU1BAACxjwv8YQUAAAHdUExURQAAAAAAAAAAAAAAAAAAAAAAAAAAAAAAAAAAAAAAAAAAAAAAAAAAAAAAAAAAAAAAAAAAAAAAAAAAAAAAAAAAAAAAAAAAAAAAAAAAAAAAAAAAAAAAAAAAAAAAAAAAAAAAAAAAAAAAAAAAAAAAAAAAAAAAAAAAAAAAAAAAAAAAAAAAAAAAAAAAAAAAAAAAAAAAAAAAAAAAAAAAAAAAAAAAAAAAAAAAAAAAAAAAAAAAAAAAAAAAAAAAAAAAAAAAAAAAAAAAAAAAAAAAAAAAAAAAAAAAAAAAAAAAAAAAAAAAAAAAAAAAAAAAAAAAAAAAAAAAAAAAAAAAAAgGAAgGAAgGAAgGAAAAAAcGAAcGAAcFAAcFAAcFAAcFAAcFAAwJAAwJAAsJAAsJAAkHAAsIAAsIAA4KAAkHAAoIAAoIADMmADMmADMmADMmABUQAAYFABUQABgSAAgGAAwJABgSAEExAGFJAFQ/AFxGAHpcAAMCAAoIAFQ/AFxFAAMCAAQDAAAAAAgGAAkHAAoIABAMABgSACAYACgeADAkADgqAEg2AFA8AFhCAFpEAGBIAGhOAHhaAH9gAIdmAJdyAJ94AKd+ALeKAL+QAMeWAM+cANeiAN+oAOeuAO+0APe6AP/AAIw4rmsAAAB/dFJOUwABAgMEBQYHCAkKCwwNDg8QERITFBUWFxgZGhscHR4fICEiIyQlJicoKSorLC0xMjM1Njc4OTo7PD9ARkhKTU9RUlNUVVZXWFlaW1xdXl9ye4GEhYaHiImLjZCSk5TEx8nK19jZ29ze3+/w8fL09fX29/f39/f5+fn6+vr6+/ztnrQCAAAACXBIWXMAABcRAAAXEQHKJvM/AAAFDUlEQVRYR+3Y93faVhQHcA+mEEgCxN7BGOymI22a7pGJ485075EOt6Ft2nSmbtWUNDhx7NShxMZDf2vvfe9pGBAgw4/+nmNbCPw5l/eueHpMHOYwB84kDXs0cjzww0gaenq0iJ9eINYUzXhY8eLPly8gOU0zFle8+Iu6ffm1qWmHw4lxMJc9fbAgqgL7usPpcmNc4I7KUhTZNzweL8dxXg91R1ElhiL7lo/3+/28z+uxxeIk7I+BIvu2KEmiEOA5j9vpwEFg/2cZpnTEjAJ75R1ZDockwe+DarHY/iwhaDOaE9TQzT3yZ/vKu/FYVA6JyA4aA0aybjQS0tDWnz9q7HupZCwCLDeIJeY0dCNtRz3yZxr6/cKHOvt+JhUHluesh/ZzpU+u3SaQ2voLHvygsx9kgQ0KvNdNhpZJ5ijklT2z21ijB616C34rH5nZmCwFrIfWWu1AVaX8sYlNRmEMLIu1VDtRVSke/cRg04lI0LpYK7ULVZXZyqtX2/T49y9KtFib6la9SQ/u/rNND5S5V65u0cPlLx/IpeOy5Ic2sKUabJOxigl9qJjP4BBwHmguO2oXq+jo0rFZpvpsqx1s828dfbhcKuZhBA5S6362WTfQyuxMATo2fIBxxRjsdQN9pFIuHclDZ4Usr67JvqqJNdA5RDNJKNWyX7vUvdVNetBe3YHfOkuzvHRcQ+U+HwRd6r/rK3fwAtpobNzEx/vYDhQ/tIZSt1b2ANxsI71GPBML6DygOQ21ul4nO9U7t3bhza80YBj21lfJKZ1dXnp0vgJoOhENSwY6hKo2b+BlD2Ow2digZzT2thkN8LDMAtqr1B6qunOdGPe0VoIQdu3aifsqcE0BGhIDPq/bEp2YnOpUt+lk4XSxZoAAu9ZQjs4RFNcsQNntC4PMgeWqQ/2PWBsot1e0IUC2savMl2cKGawU1lc2+73QHmoTPlWhAUihd9fZScjWLnwSzh7B65Qs2n3QHqp6s0VEkNs36FBoUcoz+JFCrihofksUhnW6U92pa+Nav0f+6lGg1KS+tPYeUgyU2qViU9HsrxRULBXev+UVxdJTtYxSzCWjfVZALaA6bKiFTL+lSo9NNZ+KhYSBpeJk2VGzZP0bolRbKs6V5R2AHlSdNlSYKzIAfVHbtfZb/owQ9duvvoZc0lL7iRmq+mutVmNnSf6AK2DwXFF15smnnn7m2edOnj5zrrpwfvHl75ipqrU3X3phcfH8QrVaPXf2zKmTJ/D+emCphHU43RwvBMOReCKVzuYKj5vUF0vFQj6XzaRTyUR82L0AK9bl4fyCFJIjsXgylXnMUC8twgqVBjAWi0Zksm+xvF81h6hOt4fjA4IURDhx/BtmglrNphOwXwmHQ0FjjzWMylgvbPkCIhQcPWZSz8LdP+ytREEIwH4Q9plD7gdBRdYFLgewIIUfNKmnYuR987wPtq7G3nWgyliylQaYD4j3m9TnYdH3+6BGD+yyXXT/PgyKY0B3Wk5SsC9Q+o3uiTBP4J2EF/ftIDpsfSdAWNwUYsHAijC48QRMfAQXfbiTQBGeBhLN4VBaLoUdlA2G5UhEDgdFipIaGTmsiSGvJwOMrF8QpSC2ErYnND193yTs9UMH/4exnM/vD0Ar+aA98UpiJnuhzTDW6SLfgWArjeXbFY0lXYa9hLM0ookhrPblEjHHgGrlaqHzzp4aJaCAy4IPxoFS1hR2dgxh4DjJw4yQiYn/AVONP5FsOPafAAAAAElFTkSuQmCC;shadow=1;sketch=1;curveFitting=1;jiggle=2;" vertex="1" parent="1">
          <mxGeometry x="-1464.43" y="896" width="57.43" height="50" as="geometry" />
        </mxCell>
        <mxCell id="QRdIB-d-0XUhI7obMMeW-30" value="&lt;div style=&quot;&quot;&gt;&lt;table style=&quot;border-collapse:&lt;br/&gt; collapse;width:220pt&quot; width=&quot;293&quot; cellspacing=&quot;0&quot; cellpadding=&quot;0&quot; border=&quot;0&quot;&gt;&lt;tbody&gt;&lt;tr style=&quot;height:15.0pt&quot; height=&quot;20&quot;&gt;&lt;br/&gt;  &lt;td style=&quot;height:15.0pt;width:220pt&quot; width=&quot;293&quot; class=&quot;xl65&quot; height=&quot;20&quot;&gt;&lt;font style=&quot;font-size: 18px;&quot;&gt;2LIS_03_UM&lt;br&gt;&lt;/font&gt;&lt;table style=&quot;border-collapse:&lt;br/&gt; collapse;width:220pt&quot; width=&quot;293&quot; cellspacing=&quot;0&quot; cellpadding=&quot;0&quot; border=&quot;0&quot;&gt;&lt;tbody&gt;&lt;tr style=&quot;height:15.0pt&quot; height=&quot;20&quot;&gt;&lt;br/&gt;  &lt;td style=&quot;height:15.0pt;width:220pt&quot; width=&quot;293&quot; class=&quot;xl65&quot; height=&quot;20&quot;&gt;&lt;font size=&quot;3&quot;&gt;Revaluations&lt;/font&gt;&lt;/td&gt;&lt;/tr&gt;&lt;/tbody&gt;&lt;/table&gt;&lt;/td&gt;&lt;/tr&gt;&lt;/tbody&gt;&lt;/table&gt;&lt;/div&gt;&lt;div&gt;&lt;/div&gt;" style="strokeColor=#0070F2;shadow=1;strokeWidth=2;rounded=0;whiteSpace=wrap;html=1;sketch=1;hachureGap=4;jiggle=2;curveFitting=1;fontFamily=72, sans-serif;fontSource=https%3A%2F%2Ffonts.googleapis.com%2Fcss%3Ffamily%3DArchitects%2BDaughter;" vertex="1" parent="1">
          <mxGeometry x="-1449.05" y="948" width="190" height="75" as="geometry" />
        </mxCell>
        <mxCell id="QRdIB-d-0XUhI7obMMeW-31" value="" style="shape=image;verticalLabelPosition=bottom;labelBackgroundColor=default;verticalAlign=top;aspect=fixed;imageAspect=0;image=data:image/png,iVBORw0KGgoAAAANSUhEUgAAAFUAAABKCAMAAAD9q+gmAAAAAXNSR0IArs4c6QAAAARnQU1BAACxjwv8YQUAAAHdUExURQAAAAAAAAAAAAAAAAAAAAAAAAAAAAAAAAAAAAAAAAAAAAAAAAAAAAAAAAAAAAAAAAAAAAAAAAAAAAAAAAAAAAAAAAAAAAAAAAAAAAAAAAAAAAAAAAAAAAAAAAAAAAAAAAAAAAAAAAAAAAAAAAAAAAAAAAAAAAAAAAAAAAAAAAAAAAAAAAAAAAAAAAAAAAAAAAAAAAAAAAAAAAAAAAAAAAAAAAAAAAAAAAAAAAAAAAAAAAAAAAAAAAAAAAAAAAAAAAAAAAAAAAAAAAAAAAAAAAAAAAAAAAAAAAAAAAAAAAAAAAAAAAAAAAAAAAAAAAAAAAAAAAAAAAgGAAgGAAgGAAgGAAAAAAcGAAcGAAcFAAcFAAcFAAcFAAcFAAwJAAwJAAsJAAsJAAkHAAsIAAsIAA4KAAkHAAoIAAoIADMmADMmADMmADMmABUQAAYFABUQABgSAAgGAAwJABgSAEExAGFJAFQ/AFxGAHpcAAMCAAoIAFQ/AFxFAAMCAAQDAAAAAAgGAAkHAAoIABAMABgSACAYACgeADAkADgqAEg2AFA8AFhCAFpEAGBIAGhOAHhaAH9gAIdmAJdyAJ94AKd+ALeKAL+QAMeWAM+cANeiAN+oAOeuAO+0APe6AP/AAIw4rmsAAAB/dFJOUwABAgMEBQYHCAkKCwwNDg8QERITFBUWFxgZGhscHR4fICEiIyQlJicoKSorLC0xMjM1Njc4OTo7PD9ARkhKTU9RUlNUVVZXWFlaW1xdXl9ye4GEhYaHiImLjZCSk5TEx8nK19jZ29ze3+/w8fL09fX29/f39/f5+fn6+vr6+/ztnrQCAAAACXBIWXMAABcRAAAXEQHKJvM/AAAFDUlEQVRYR+3Y93faVhQHcA+mEEgCxN7BGOymI22a7pGJ485075EOt6Ft2nSmbtWUNDhx7NShxMZDf2vvfe9pGBAgw4/+nmNbCPw5l/eueHpMHOYwB84kDXs0cjzww0gaenq0iJ9eINYUzXhY8eLPly8gOU0zFle8+Iu6ffm1qWmHw4lxMJc9fbAgqgL7usPpcmNc4I7KUhTZNzweL8dxXg91R1ElhiL7lo/3+/28z+uxxeIk7I+BIvu2KEmiEOA5j9vpwEFg/2cZpnTEjAJ75R1ZDockwe+DarHY/iwhaDOaE9TQzT3yZ/vKu/FYVA6JyA4aA0aybjQS0tDWnz9q7HupZCwCLDeIJeY0dCNtRz3yZxr6/cKHOvt+JhUHluesh/ZzpU+u3SaQ2voLHvygsx9kgQ0KvNdNhpZJ5ijklT2z21ijB616C34rH5nZmCwFrIfWWu1AVaX8sYlNRmEMLIu1VDtRVSke/cRg04lI0LpYK7ULVZXZyqtX2/T49y9KtFib6la9SQ/u/rNND5S5V65u0cPlLx/IpeOy5Ic2sKUabJOxigl9qJjP4BBwHmguO2oXq+jo0rFZpvpsqx1s828dfbhcKuZhBA5S6362WTfQyuxMATo2fIBxxRjsdQN9pFIuHclDZ4Usr67JvqqJNdA5RDNJKNWyX7vUvdVNetBe3YHfOkuzvHRcQ+U+HwRd6r/rK3fwAtpobNzEx/vYDhQ/tIZSt1b2ANxsI71GPBML6DygOQ21ul4nO9U7t3bhza80YBj21lfJKZ1dXnp0vgJoOhENSwY6hKo2b+BlD2Ow2digZzT2thkN8LDMAtqr1B6qunOdGPe0VoIQdu3aifsqcE0BGhIDPq/bEp2YnOpUt+lk4XSxZoAAu9ZQjs4RFNcsQNntC4PMgeWqQ/2PWBsot1e0IUC2savMl2cKGawU1lc2+73QHmoTPlWhAUihd9fZScjWLnwSzh7B65Qs2n3QHqp6s0VEkNs36FBoUcoz+JFCrihofksUhnW6U92pa+Nav0f+6lGg1KS+tPYeUgyU2qViU9HsrxRULBXev+UVxdJTtYxSzCWjfVZALaA6bKiFTL+lSo9NNZ+KhYSBpeJk2VGzZP0bolRbKs6V5R2AHlSdNlSYKzIAfVHbtfZb/owQ9duvvoZc0lL7iRmq+mutVmNnSf6AK2DwXFF15smnnn7m2edOnj5zrrpwfvHl75ipqrU3X3phcfH8QrVaPXf2zKmTJ/D+emCphHU43RwvBMOReCKVzuYKj5vUF0vFQj6XzaRTyUR82L0AK9bl4fyCFJIjsXgylXnMUC8twgqVBjAWi0Zksm+xvF81h6hOt4fjA4IURDhx/BtmglrNphOwXwmHQ0FjjzWMylgvbPkCIhQcPWZSz8LdP+ytREEIwH4Q9plD7gdBRdYFLgewIIUfNKmnYuR987wPtq7G3nWgyliylQaYD4j3m9TnYdH3+6BGD+yyXXT/PgyKY0B3Wk5SsC9Q+o3uiTBP4J2EF/ftIDpsfSdAWNwUYsHAijC48QRMfAQXfbiTQBGeBhLN4VBaLoUdlA2G5UhEDgdFipIaGTmsiSGvJwOMrF8QpSC2ErYnND193yTs9UMH/4exnM/vD0Ar+aA98UpiJnuhzTDW6SLfgWArjeXbFY0lXYa9hLM0ookhrPblEjHHgGrlaqHzzp4aJaCAy4IPxoFS1hR2dgxh4DjJw4yQiYn/AVONP5FsOPafAAAAAElFTkSuQmCC;shadow=1;sketch=1;curveFitting=1;jiggle=2;" vertex="1" parent="1">
          <mxGeometry x="-1729" y="902" width="57.43" height="50" as="geometry" />
        </mxCell>
        <mxCell id="QRdIB-d-0XUhI7obMMeW-32" value="&lt;div style=&quot;&quot;&gt;&lt;font style=&quot;font-size: 18px;&quot;&gt;2LIS_03_BX&lt;br&gt;&lt;/font&gt;&lt;/div&gt;&lt;div style=&quot;&quot;&gt;&lt;font size=&quot;3&quot;&gt;Stock Initialization for Inventory Management&lt;/font&gt;&lt;br&gt;&lt;/div&gt;&lt;div&gt;&lt;/div&gt;" style="strokeColor=#0070F2;shadow=1;strokeWidth=2;rounded=0;whiteSpace=wrap;html=1;sketch=1;hachureGap=4;jiggle=2;curveFitting=1;fontFamily=72, sans-serif;fontSource=https%3A%2F%2Ffonts.googleapis.com%2Fcss%3Ffamily%3DArchitects%2BDaughter;" vertex="1" parent="1">
          <mxGeometry x="-1717" y="948" width="190" height="75" as="geometry" />
        </mxCell>
        <mxCell id="QRdIB-d-0XUhI7obMMeW-33" value="" style="endArrow=classic;html=1;rounded=0;hachureGap=4;fontFamily=Architects Daughter;fontSource=https%3A%2F%2Ffonts.googleapis.com%2Fcss%3Ffamily%3DArchitects%2BDaughter;exitX=0.5;exitY=0;exitDx=0;exitDy=0;flowAnimation=1;dashed=1;strokeWidth=2;entryX=0.5;entryY=1;entryDx=0;entryDy=0;" edge="1" parent="1" source="QRdIB-d-0XUhI7obMMeW-27" target="QRdIB-d-0XUhI7obMMeW-25">
          <mxGeometry relative="1" as="geometry">
            <mxPoint x="-1796" y="313" as="sourcePoint" />
            <mxPoint x="-1696" y="313" as="targetPoint" />
          </mxGeometry>
        </mxCell>
        <mxCell id="QRdIB-d-0XUhI7obMMeW-34" value="" style="shape=image;verticalLabelPosition=bottom;labelBackgroundColor=default;verticalAlign=top;aspect=fixed;imageAspect=0;image=data:image/png,iVBORw0KGgoAAAANSUhEUgAAAEcAAAA9CAMAAADI14SKAAAAAXNSR0IArs4c6QAAAARnQU1BAACxjwv8YQUAAAGVUExURQAAAAAAAAAAAAAAAAAAAAAAAAAAAAAAAAAAAAAAAAAAAAAAAAAAAAAAAAAAAAAAAAAAAAAAAAAAAAAAAAAAAAAAAAAAAAAAAAAAAAAAAAAAAAAAAAAAAAAAAAAAAAAAAAAAAAAAAAAAAAAAAAAAAAAAAAAAAAAAAAAAAAAAAAAAAAAAAAAAAAAAAAAAAAAAAAAAAAAAAAAAAAAAAAAAAAAAAAAAAAAAAAAAAAAAAAAAAAAAAAAAAAAAAAAAAAcKBQAAAAcJBQAAAAcJBQcJBAcJBAYJBAYJBAYIBAQGAgYHBAQFAgQFAgQFAgMFAgcKAwMFAgcKAwcKAwYKAwYHAwQHAwQHAwQHAwQHAwcLBAoOBgoOBgoOBgYJBAYJBAYJBAYIAwYIAwECAQgLBAoOBQUHAwEBARUeDCQzEwcKBAwRBjJIGxYgDQgMBSo7FwkMBQ0UBxchDCU1FUZkJgUHAwoOBT5YIgEBAAYIAwoPBjVLHQMEAgAAAFuCMmCINGmVOXKiPnepQYC2RoS8SInDS43JTZLQUG9xMO4AAAB8dFJOUwABAgMEBQYHCAkKCwwNDg8QERITFBUWFxgZGhscHR4fICEiIyQlJicpKywtLzAxMjQ1NjpKS0xNTlBTWV9ka2tubm9xc3V3eIOLi42PkZSUlZiZoauusLGysrW2t8nKy97f4evv8PHx8fPz8/T19fb29vb3+Pj4+fn5+fzzdlIsAAAACXBIWXMAABcRAAAXEQHKJvM/AAAEeElEQVRYR+2W6ZvaVBTGJ2xJICSQjQBhCQzjWutS61qr1nHXutW6tY5WBTrV6dSt1juOjHD/7p5z7wWSQEKfx0/69P0wA/c9/M7NyV3O1n39HyRJkvj0LwQQLvE9JmGCxMCKTuEfEcPFhiOSAmGhxFhcPwAI3MxcayKl4NuFnwgi41MMk+VajZSk4BpJtucix+PHJAjL5fKgHA8VHgoxR4TbObQTQIQef/cUYPIFWZYLBSBFQJLUu3ZEST5fQMXdkAilk/EZoCiqqiqKHAmF3Ke/P6KUyApKZqD1EwIOnfx4VlaLJU0rFVW5sAQhZvwXBBBwS2AqAsR+GRVy6OTg2VJZNwy9XIJYnhOVOT0+Rp9oZZBW4lmSOQB6waiaZrWia0UGYqQ5hhKjUqkYzMuncujk9ku249hW1ZiDQHMMJaZlWWZFhwklcCTBoSfXX/M8z7URhMXOZrJnfhEYShzXdWyTW+kcenJzt9ms1xyIxjLkck8f/C0sSrw6OFalfA8cAL3ebjU8p6ojKH/2YCIM4Pg+pLCTOVKIA6D3u+2mZwOoqDwTwlDSxgx2FTlr6xPhAOiDoN2sIejFMIaSgCe4Rw7958aHHPTKr2EMJf2g43vwXKq8fv1ImQiHTg8/ClqN2oWbJ2KAi2z3GEdT2ToUP14KllqUA6BPuq3dGIaSQb/j1yyjBEtr/WPFOQC6/EYcwzjNmqmXlKTyrHDo9I8/4xhKdnqdhptS5kx2hfPz3pV98XEhMui1605aeVY4v+09/tCVn2bimxAZBC3PNrTk8sQ5d/ae2Nl+8MtbURDZ7kKZ08qTi3LufPPkA4Ne0PkiCiJQZtdMK0+Us/81YPrdTqv1+SgMIhvLkw9z9q8+CrPptv1mo3FpNBWjIMLKk7J6wpwZYHa2g06rUfdqXv3S4RJENpansODMbl19ZNCH7QUnjW07rndxCSKbVs+SMxt99TDsIjyALLNarVqOd/HGHERa9dTNlc3JgjMbfdbvBW2/jierXi7rFdPx3hsKEPG91M2VzQvObHQ5gMo0YTJwZZSKxVLZYCC+RUjDNfXks2fBmY0+7XRaPhydpoFXmKKoRQ1Bb/MtS1LPHihzXkHO9PBj3/cbnmuxIxWuebimGajOjxDiWmxTrCvPkjMdvlvHd22bFZgMXuLQXRQ4yNu9DiACR20x4a0vONPhO26t5jpwB5ZhMnh3gXIAwhrVXgUQYZdRGkcm0+FbpmXDTcrvZNZvgOYg23n59oTARJMea17n4ZtGpVrF25u3AZgULPAYqGKa5w5Iyo3MOLAOz0OnoevQTPBn4h3CAqSVDcN4/ndx6Sdz8ucUFVobaG6WXRIEMxAWW4WuSNOew86HeeK3YbGcOXjDrBNjlFAoZoEZQZtWLKrsJSZMh+XE/hEbQ/ay+TMJV6Th7mKqwouKRUIoa1RjFJ6G5WF2cqMqIlnLyzrjeCAHoY2UZAyLRBIXfhHjQnN7XZKoMBJj+X8xGBIbXp8kJhbJJAaiEh5KjCRqU9Am/77+G9raugtzRbokQ2TNnQAAAABJRU5ErkJggg==;shadow=1;sketch=1;curveFitting=1;jiggle=2;" vertex="1" parent="1">
          <mxGeometry x="-1392" y="818" width="71" height="61" as="geometry" />
        </mxCell>
        <mxCell id="QRdIB-d-0XUhI7obMMeW-35" value="" style="rounded=0;hachureGap=4;orthogonalLoop=1;jettySize=auto;html=1;fontFamily=Architects Daughter;fontSource=https%3A%2F%2Ffonts.googleapis.com%2Fcss%3Ffamily%3DArchitects%2BDaughter;flowAnimation=1;dashed=1;strokeWidth=2;entryX=0.5;entryY=1;entryDx=0;entryDy=0;" edge="1" parent="1" source="QRdIB-d-0XUhI7obMMeW-36" target="QRdIB-d-0XUhI7obMMeW-7">
          <mxGeometry relative="1" as="geometry">
            <mxPoint x="-1641" y="613" as="sourcePoint" />
            <mxPoint x="-1624" y="-86" as="targetPoint" />
          </mxGeometry>
        </mxCell>
        <mxCell id="QRdIB-d-0XUhI7obMMeW-37" style="rounded=0;hachureGap=4;orthogonalLoop=1;jettySize=auto;html=1;entryX=0.439;entryY=1.067;entryDx=0;entryDy=0;fontFamily=Architects Daughter;fontSource=https%3A%2F%2Ffonts.googleapis.com%2Fcss%3Ffamily%3DArchitects%2BDaughter;flowAnimation=1;dashed=1;strokeWidth=2;exitX=0.487;exitY=0.047;exitDx=0;exitDy=0;exitPerimeter=0;entryPerimeter=0;" edge="1" parent="1">
          <mxGeometry relative="1" as="geometry">
            <mxPoint x="-2788.7340000000004" y="1016.6419900000002" as="sourcePoint" />
            <mxPoint x="-2789.9960700000006" y="906.0000000000001" as="targetPoint" />
          </mxGeometry>
        </mxCell>
        <mxCell id="QRdIB-d-0XUhI7obMMeW-38" value="" style="shape=image;verticalLabelPosition=bottom;labelBackgroundColor=default;verticalAlign=top;aspect=fixed;imageAspect=0;image=data:image/png,iVBORw0KGgoAAAANSUhEUgAAAEcAAAA9CAMAAADI14SKAAAAAXNSR0IArs4c6QAAAARnQU1BAACxjwv8YQUAAAGVUExURQAAAAAAAAAAAAAAAAAAAAAAAAAAAAAAAAAAAAAAAAAAAAAAAAAAAAAAAAAAAAAAAAAAAAAAAAAAAAAAAAAAAAAAAAAAAAAAAAAAAAAAAAAAAAAAAAAAAAAAAAAAAAAAAAAAAAAAAAAAAAAAAAAAAAAAAAAAAAAAAAAAAAAAAAAAAAAAAAAAAAAAAAAAAAAAAAAAAAAAAAAAAAAAAAAAAAAAAAAAAAAAAAAAAAAAAAAAAAAAAAAAAAAAAAAAAAcKBQAAAAcJBQAAAAcJBQcJBAcJBAYJBAYJBAYIBAQGAgYHBAQFAgQFAgQFAgMFAgcKAwMFAgcKAwcKAwYKAwYHAwQHAwQHAwQHAwQHAwcLBAoOBgoOBgoOBgYJBAYJBAYJBAYIAwYIAwECAQgLBAoOBQUHAwEBARUeDCQzEwcKBAwRBjJIGxYgDQgMBSo7FwkMBQ0UBxchDCU1FUZkJgUHAwoOBT5YIgEBAAYIAwoPBjVLHQMEAgAAAFuCMmCINGmVOXKiPnepQYC2RoS8SInDS43JTZLQUG9xMO4AAAB8dFJOUwABAgMEBQYHCAkKCwwNDg8QERITFBUWFxgZGhscHR4fICEiIyQlJicpKywtLzAxMjQ1NjpKS0xNTlBTWV9ka2tubm9xc3V3eIOLi42PkZSUlZiZoauusLGysrW2t8nKy97f4evv8PHx8fPz8/T19fb29vb3+Pj4+fn5+fzzdlIsAAAACXBIWXMAABcRAAAXEQHKJvM/AAAEeElEQVRYR+2W6ZvaVBTGJ2xJICSQjQBhCQzjWutS61qr1nHXutW6tY5WBTrV6dSt1juOjHD/7p5z7wWSQEKfx0/69P0wA/c9/M7NyV3O1n39HyRJkvj0LwQQLvE9JmGCxMCKTuEfEcPFhiOSAmGhxFhcPwAI3MxcayKl4NuFnwgi41MMk+VajZSk4BpJtucix+PHJAjL5fKgHA8VHgoxR4TbObQTQIQef/cUYPIFWZYLBSBFQJLUu3ZEST5fQMXdkAilk/EZoCiqqiqKHAmF3Ke/P6KUyApKZqD1EwIOnfx4VlaLJU0rFVW5sAQhZvwXBBBwS2AqAsR+GRVy6OTg2VJZNwy9XIJYnhOVOT0+Rp9oZZBW4lmSOQB6waiaZrWia0UGYqQ5hhKjUqkYzMuncujk9ku249hW1ZiDQHMMJaZlWWZFhwklcCTBoSfXX/M8z7URhMXOZrJnfhEYShzXdWyTW+kcenJzt9ms1xyIxjLkck8f/C0sSrw6OFalfA8cAL3ebjU8p6ojKH/2YCIM4Pg+pLCTOVKIA6D3u+2mZwOoqDwTwlDSxgx2FTlr6xPhAOiDoN2sIejFMIaSgCe4Rw7958aHHPTKr2EMJf2g43vwXKq8fv1ImQiHTg8/ClqN2oWbJ2KAi2z3GEdT2ToUP14KllqUA6BPuq3dGIaSQb/j1yyjBEtr/WPFOQC6/EYcwzjNmqmXlKTyrHDo9I8/4xhKdnqdhptS5kx2hfPz3pV98XEhMui1605aeVY4v+09/tCVn2bimxAZBC3PNrTk8sQ5d/ae2Nl+8MtbURDZ7kKZ08qTi3LufPPkA4Ne0PkiCiJQZtdMK0+Us/81YPrdTqv1+SgMIhvLkw9z9q8+CrPptv1mo3FpNBWjIMLKk7J6wpwZYHa2g06rUfdqXv3S4RJENpansODMbl19ZNCH7QUnjW07rndxCSKbVs+SMxt99TDsIjyALLNarVqOd/HGHERa9dTNlc3JgjMbfdbvBW2/jierXi7rFdPx3hsKEPG91M2VzQvObHQ5gMo0YTJwZZSKxVLZYCC+RUjDNfXks2fBmY0+7XRaPhydpoFXmKKoRQ1Bb/MtS1LPHihzXkHO9PBj3/cbnmuxIxWuebimGajOjxDiWmxTrCvPkjMdvlvHd22bFZgMXuLQXRQ4yNu9DiACR20x4a0vONPhO26t5jpwB5ZhMnh3gXIAwhrVXgUQYZdRGkcm0+FbpmXDTcrvZNZvgOYg23n59oTARJMea17n4ZtGpVrF25u3AZgULPAYqGKa5w5Iyo3MOLAOz0OnoevQTPBn4h3CAqSVDcN4/ndx6Sdz8ucUFVobaG6WXRIEMxAWW4WuSNOew86HeeK3YbGcOXjDrBNjlFAoZoEZQZtWLKrsJSZMh+XE/hEbQ/ay+TMJV6Th7mKqwouKRUIoa1RjFJ6G5WF2cqMqIlnLyzrjeCAHoY2UZAyLRBIXfhHjQnN7XZKoMBJj+X8xGBIbXp8kJhbJJAaiEh5KjCRqU9Am/77+G9raugtzRbokQ2TNnQAAAABJRU5ErkJggg==;shadow=1;sketch=1;curveFitting=1;jiggle=2;" vertex="1" parent="1">
          <mxGeometry x="-2707" y="511" width="71" height="61" as="geometry" />
        </mxCell>
        <mxCell id="QRdIB-d-0XUhI7obMMeW-39" style="rounded=0;hachureGap=4;orthogonalLoop=1;jettySize=auto;html=1;entryX=0.447;entryY=0.973;entryDx=0;entryDy=0;entryPerimeter=0;fontFamily=Architects Daughter;fontSource=https%3A%2F%2Ffonts.googleapis.com%2Fcss%3Ffamily%3DArchitects%2BDaughter;flowAnimation=1;dashed=1;strokeWidth=2;exitX=0.384;exitY=0.027;exitDx=0;exitDy=0;exitPerimeter=0;" edge="1" parent="1" source="QRdIB-d-0XUhI7obMMeW-47" target="QRdIB-d-0XUhI7obMMeW-32">
          <mxGeometry relative="1" as="geometry">
            <mxPoint x="-577" y="1188" as="sourcePoint" />
          </mxGeometry>
        </mxCell>
        <mxCell id="QRdIB-d-0XUhI7obMMeW-40" value="" style="endArrow=classic;html=1;rounded=0;hachureGap=4;fontFamily=Architects Daughter;fontSource=https%3A%2F%2Ffonts.googleapis.com%2Fcss%3Ffamily%3DArchitects%2BDaughter;flowAnimation=1;dashed=1;strokeWidth=2;entryX=0.449;entryY=1.1;entryDx=0;entryDy=0;entryPerimeter=0;exitX=0.5;exitY=0;exitDx=0;exitDy=0;" edge="1" parent="1" source="QRdIB-d-0XUhI7obMMeW-3" target="QRdIB-d-0XUhI7obMMeW-93">
          <mxGeometry width="50" height="50" relative="1" as="geometry">
            <mxPoint x="-1806" y="-227" as="sourcePoint" />
            <mxPoint x="-1806" y="-357" as="targetPoint" />
          </mxGeometry>
        </mxCell>
        <mxCell id="QRdIB-d-0XUhI7obMMeW-41" value="" style="shape=image;verticalLabelPosition=bottom;labelBackgroundColor=default;verticalAlign=top;aspect=fixed;imageAspect=0;image=data:image/png,iVBORw0KGgoAAAANSUhEUgAAAEcAAAA9CAMAAADI14SKAAAAAXNSR0IArs4c6QAAAARnQU1BAACxjwv8YQUAAAGVUExURQAAAAAAAAAAAAAAAAAAAAAAAAAAAAAAAAAAAAAAAAAAAAAAAAAAAAAAAAAAAAAAAAAAAAAAAAAAAAAAAAAAAAAAAAAAAAAAAAAAAAAAAAAAAAAAAAAAAAAAAAAAAAAAAAAAAAAAAAAAAAAAAAAAAAAAAAAAAAAAAAAAAAAAAAAAAAAAAAAAAAAAAAAAAAAAAAAAAAAAAAAAAAAAAAAAAAAAAAAAAAAAAAAAAAAAAAAAAAAAAAAAAAAAAAAAAAcKBQAAAAcJBQAAAAcJBQcJBAcJBAYJBAYJBAYIBAQGAgYHBAQFAgQFAgQFAgMFAgcKAwMFAgcKAwcKAwYKAwYHAwQHAwQHAwQHAwQHAwcLBAoOBgoOBgoOBgYJBAYJBAYJBAYIAwYIAwECAQgLBAoOBQUHAwEBARUeDCQzEwcKBAwRBjJIGxYgDQgMBSo7FwkMBQ0UBxchDCU1FUZkJgUHAwoOBT5YIgEBAAYIAwoPBjVLHQMEAgAAAFuCMmCINGmVOXKiPnepQYC2RoS8SInDS43JTZLQUG9xMO4AAAB8dFJOUwABAgMEBQYHCAkKCwwNDg8QERITFBUWFxgZGhscHR4fICEiIyQlJicpKywtLzAxMjQ1NjpKS0xNTlBTWV9ka2tubm9xc3V3eIOLi42PkZSUlZiZoauusLGysrW2t8nKy97f4evv8PHx8fPz8/T19fb29vb3+Pj4+fn5+fzzdlIsAAAACXBIWXMAABcRAAAXEQHKJvM/AAAEeElEQVRYR+2W6ZvaVBTGJ2xJICSQjQBhCQzjWutS61qr1nHXutW6tY5WBTrV6dSt1juOjHD/7p5z7wWSQEKfx0/69P0wA/c9/M7NyV3O1n39HyRJkvj0LwQQLvE9JmGCxMCKTuEfEcPFhiOSAmGhxFhcPwAI3MxcayKl4NuFnwgi41MMk+VajZSk4BpJtucix+PHJAjL5fKgHA8VHgoxR4TbObQTQIQef/cUYPIFWZYLBSBFQJLUu3ZEST5fQMXdkAilk/EZoCiqqiqKHAmF3Ke/P6KUyApKZqD1EwIOnfx4VlaLJU0rFVW5sAQhZvwXBBBwS2AqAsR+GRVy6OTg2VJZNwy9XIJYnhOVOT0+Rp9oZZBW4lmSOQB6waiaZrWia0UGYqQ5hhKjUqkYzMuncujk9ku249hW1ZiDQHMMJaZlWWZFhwklcCTBoSfXX/M8z7URhMXOZrJnfhEYShzXdWyTW+kcenJzt9ms1xyIxjLkck8f/C0sSrw6OFalfA8cAL3ebjU8p6ojKH/2YCIM4Pg+pLCTOVKIA6D3u+2mZwOoqDwTwlDSxgx2FTlr6xPhAOiDoN2sIejFMIaSgCe4Rw7958aHHPTKr2EMJf2g43vwXKq8fv1ImQiHTg8/ClqN2oWbJ2KAi2z3GEdT2ToUP14KllqUA6BPuq3dGIaSQb/j1yyjBEtr/WPFOQC6/EYcwzjNmqmXlKTyrHDo9I8/4xhKdnqdhptS5kx2hfPz3pV98XEhMui1605aeVY4v+09/tCVn2bimxAZBC3PNrTk8sQ5d/ae2Nl+8MtbURDZ7kKZ08qTi3LufPPkA4Ne0PkiCiJQZtdMK0+Us/81YPrdTqv1+SgMIhvLkw9z9q8+CrPptv1mo3FpNBWjIMLKk7J6wpwZYHa2g06rUfdqXv3S4RJENpansODMbl19ZNCH7QUnjW07rndxCSKbVs+SMxt99TDsIjyALLNarVqOd/HGHERa9dTNlc3JgjMbfdbvBW2/jierXi7rFdPx3hsKEPG91M2VzQvObHQ5gMo0YTJwZZSKxVLZYCC+RUjDNfXks2fBmY0+7XRaPhydpoFXmKKoRQ1Bb/MtS1LPHihzXkHO9PBj3/cbnmuxIxWuebimGajOjxDiWmxTrCvPkjMdvlvHd22bFZgMXuLQXRQ4yNu9DiACR20x4a0vONPhO26t5jpwB5ZhMnh3gXIAwhrVXgUQYZdRGkcm0+FbpmXDTcrvZNZvgOYg23n59oTARJMea17n4ZtGpVrF25u3AZgULPAYqGKa5w5Iyo3MOLAOz0OnoevQTPBn4h3CAqSVDcN4/ndx6Sdz8ucUFVobaG6WXRIEMxAWW4WuSNOew86HeeK3YbGcOXjDrBNjlFAoZoEZQZtWLKrsJSZMh+XE/hEbQ/ay+TMJV6Th7mKqwouKRUIoa1RjFJ6G5WF2cqMqIlnLyzrjeCAHoY2UZAyLRBIXfhHjQnN7XZKoMBJj+X8xGBIbXp8kJhbJJAaiEh5KjCRqU9Am/77+G9raugtzRbokQ2TNnQAAAABJRU5ErkJggg==;shadow=1;sketch=1;curveFitting=1;jiggle=2;" vertex="1" parent="1">
          <mxGeometry x="-2636" y="68.42" width="71" height="61" as="geometry" />
        </mxCell>
        <mxCell id="QRdIB-d-0XUhI7obMMeW-42" value="&lt;div style=&quot;&quot;&gt;&lt;span style=&quot;font-size: 18px;&quot;&gt;Init Load:&amp;nbsp;&lt;/span&gt;&lt;span style=&quot;background-color: rgb(255, 255, 255); color: rgb(51, 51, 51); font-family: Arial, &amp;quot;sans-serif&amp;quot;; font-size: 16px; text-align: justify;&quot;&gt;Opening Stock Data Source&lt;/span&gt;&lt;/div&gt;&lt;div&gt;&lt;/div&gt;" style="strokeColor=#0070F2;shadow=1;strokeWidth=2;rounded=0;whiteSpace=wrap;html=1;sketch=1;hachureGap=4;jiggle=2;curveFitting=1;fontFamily=72, sans-serif;fontSource=https%3A%2F%2Ffonts.googleapis.com%2Fcss%3Ffamily%3DArchitects%2BDaughter;" vertex="1" parent="1">
          <mxGeometry x="-1755" y="1164" width="252" height="75" as="geometry" />
        </mxCell>
        <mxCell id="QRdIB-d-0XUhI7obMMeW-43" value="" style="rounded=0;hachureGap=4;orthogonalLoop=1;jettySize=auto;html=1;entryX=0.536;entryY=1.041;entryDx=0;entryDy=0;fontFamily=Architects Daughter;fontSource=https%3A%2F%2Ffonts.googleapis.com%2Fcss%3Ffamily%3DArchitects%2BDaughter;flowAnimation=1;dashed=1;strokeWidth=2;entryPerimeter=0;exitX=0.412;exitY=0.062;exitDx=0;exitDy=0;exitPerimeter=0;" edge="1" parent="1" source="QRdIB-d-0XUhI7obMMeW-47" target="QRdIB-d-0XUhI7obMMeW-52">
          <mxGeometry relative="1" as="geometry">
            <mxPoint x="-1596" y="1319" as="sourcePoint" />
            <mxPoint x="-1957" y="1041" as="targetPoint" />
          </mxGeometry>
        </mxCell>
        <mxCell id="QRdIB-d-0XUhI7obMMeW-44" value="&lt;div style=&quot;&quot;&gt;&lt;span style=&quot;font-size: 18px;&quot;&gt;Delta Load:&amp;nbsp;&lt;/span&gt;&lt;span style=&quot;background-color: rgb(255, 255, 255); color: rgb(51, 51, 51); font-family: Arial, &amp;quot;sans-serif&amp;quot;; font-size: 16px; text-align: justify;&quot;&gt;Daily Inflow and Outflow of stock entries&lt;/span&gt;&lt;/div&gt;&lt;div&gt;&lt;/div&gt;" style="strokeColor=#0070F2;shadow=1;strokeWidth=2;rounded=0;whiteSpace=wrap;html=1;sketch=1;hachureGap=4;jiggle=2;curveFitting=1;fontFamily=72, sans-serif;fontSource=https%3A%2F%2Ffonts.googleapis.com%2Fcss%3Ffamily%3DArchitects%2BDaughter;" vertex="1" parent="1">
          <mxGeometry x="-2058" y="1084" width="301" height="208" as="geometry" />
        </mxCell>
        <mxCell id="QRdIB-d-0XUhI7obMMeW-45" value="&lt;div style=&quot;&quot;&gt;&lt;span style=&quot;font-size: 18px;&quot;&gt;Delta Load:&amp;nbsp;&lt;/span&gt;&lt;span style=&quot;background-color: rgb(255, 255, 255); color: rgb(51, 51, 51); font-family: Arial, &amp;quot;sans-serif&amp;quot;; font-size: 16px; text-align: justify;&quot;&gt;Holds the value of the stock,&amp;nbsp;&lt;/span&gt;&lt;span style=&quot;font-size: 18px; background-color: initial;&quot;&gt;Stock Transfer Level Value Change/ NO Qty Change&lt;/span&gt;&lt;/div&gt;&lt;div&gt;&lt;/div&gt;" style="strokeColor=#0070F2;shadow=1;strokeWidth=2;rounded=0;whiteSpace=wrap;html=1;sketch=1;hachureGap=4;jiggle=2;curveFitting=1;fontFamily=72, sans-serif;fontSource=https%3A%2F%2Ffonts.googleapis.com%2Fcss%3Ffamily%3DArchitects%2BDaughter;" vertex="1" parent="1">
          <mxGeometry x="-1510.92" y="1169" width="276.92" height="75" as="geometry" />
        </mxCell>
        <mxCell id="QRdIB-d-0XUhI7obMMeW-46" value="" style="group" vertex="1" connectable="0" parent="1">
          <mxGeometry x="-1654" y="1333" width="190" height="75" as="geometry" />
        </mxCell>
        <mxCell id="QRdIB-d-0XUhI7obMMeW-47" value="&lt;font style=&quot;font-size: 18px;&quot;&gt;P01, Client 010&lt;/font&gt;" style="strokeColor=#0070F2;shadow=1;strokeWidth=2;rounded=1;absoluteArcSize=1;arcSize=20;rounded=0;whiteSpace=wrap;html=1;sketch=1;hachureGap=4;jiggle=2;curveFitting=1;fontFamily=72, sans-serif;" vertex="1" parent="QRdIB-d-0XUhI7obMMeW-46">
          <mxGeometry width="190" height="75" as="geometry" />
        </mxCell>
        <mxCell id="QRdIB-d-0XUhI7obMMeW-48" value="" style="shape=image;verticalLabelPosition=bottom;verticalAlign=top;imageAspect=0;aspect=fixed;image=data:image/png,iVBORw0KGgoAAAANSUhEUgAAAlgAAACqCAMAAABGfcHVAAAAVFBMVEVMaXEtarL///8Bc7wLfMIQdr4JcroUc7oBc70McbovZ7AVruUSteoYqOEaotwihskcmdYodbofjs8kfsIsbbRRmc/q8/qxzeZ5qdWTx+ZkuOLM4/I004ufAAAACnRSTlMA3v//ncM/GuRxsLzgkAAAAAlwSFlzAAALEwAACxMBAJqcGAAAEqBJREFUeJztnQufsiwTh631kO771LalaX7/7/n+OIMyCApl987fNk8wsM3VQHjKMhQKhUKhUCgUCoVCoVAoFAqFQqFQKBQKhUKhUCgUCoVCoVD71f9QpvJ3e+QfEXKFXCURgoXxKokQLGwHdw7Wd2jK7zAr/vZXZ8L+VTz979ucJqsBk78lMfMys7wDnOBc1ioiVzElPvxv5mj+gRMp95N9ZF0ukDe6xBOLnMwOz6r5TeRnLClOWCkys1aeTM7rIpLz7TowaoHtkFZULehMpFFV1ypAFjBexRT3HHeb5Eet83e+2bbJ2CVRMHfJNQ0PI7GRVSzp0AiEpjUxypvUcMK6Wb1pJZGrqNL9a2VM7Z0ks2xR1Cyl1HEwPK7bADIZ2+3LE8TnZc62Y7yKLMB3f04YryLr3Q7dhzBeRdf393/ss/1P/pFJvLG9YrtMKJYmqWQ6sUlmNy3Jl0qs0mjLwqK+i2ea1kaWqGUw3pQpYwt7x3gVXdRPRN/kxd/kjO2UG/S5nmSacW5kssJNGfuYx3lVhHllS5qYF6fPaE6J7KRKlkJpOuQqvqgndMcpzxrim+QejpYt6SSLUYIjk9goUZ4aEJsk1coWYFMzolufJkGuEsjiCwArQd2MMTOHQYTmeKu+3XashS0JIszybWDryFUK+TvsXxVylUT//XFhvEok9RGfxRtd0Jb0/cZ2tZttlOumBWlYJjDsTjfYCrXlmensSmRUW6sMxqtEIh8ze7FPnE98TaxM9+tJ1Ub7ZsPUdFJ5gR326gFGyEvPAqaW/yBylUraBw65jL/Ym9X1ysCMJ56FygBMt25m5lyTTYoAS1mTKrCtkmKYKW0ZuUom5nLlKM6Q2GaZa5TMUsv8ajNbMjbyFYnsvFSB8syavTxLsZOirRVCrhLK8ISKHTLMyHBj+nnidtOhmr91ZiyIAYWbDM3LnJc4SadqbxSph97z+YzxKqHOf1YYr5Lq/GeF8SqpnJ/98zk8xrHrum4cx8cwPJ/nf0bIVVqdzz9n8kcm9qJL5/Pw6I4WjeNA6PoBJzEb7NIL0bPx3U9YHAi9mrNSwY3T7chVaokPXYPlfH4OVqgUXRQu5mU5Fx5nGx9A1sGa+vw8eqjjVEs6TMw0u/LbYn5t1E6MV6l1/vlhL/X3HH28PD6NfPSdL5IZROZI9pKXzE0nL7AEXjRkMgui+rQCZi1kAvkPUrboAnKVXOJjl355uoOVjS3dqwJOMNNTSy/z/ASAJUvWmOIWzVoY0Knt5x/k6gVi32H+/vPjF62UHpQTnl/zH2xm+DEK5BkCweIl6+Jk6QiZ2yR8PxivXiDlZfI2BPv3OOoOFric4fTdLPmKiMVKnrThJrAT6LSVXXBVUe3HTnQZH3lguBIOnnvSxckk0ixngDVYMVrQm7mqyjovTl9cp6KoyyqSnWxP0j7x1r93tURKF8bhWrCO3TkdV6cVWjJe1YoFTUUdyFYsOwm1natHICZdRLCO3TMVV9nXChVOi6WVBqY8AImyAM2cQuwk1WaujpagAQ1iGd33KGAJa7/RuYoOVgnjEIRWLDuJ9fNLp59zt8GxzAZxLntfGF5VGWTG9WCRlliUrBmcLdAVd0RJCVaVL+euPWpVLWBFopaPneQSX+W1XHWtCheCrSVKWhFjxN/P7wawWA2kKW5QLKo9hKvqXWCVcCOoI7FYv9rLTtD/mUj8y7xinEGLF7+/RlxY+nE5zCLWFrBop42b0WfzABb2eccEq/bMf1r4ZZf72nk/WQyLdr1TOVZUbHHRWMccL/3++7sJrOMgMTJwovWRJfyGxauYYFW+PCw0hx7NoCTr7WMPzL/u3rZDT86HChXLLSHNJdxNc2yLWNyeAEkRrq3+BHMVD6zKnwcnWZVXM7gXsrYFrIfpSfa23F0bGFOa77eBNUpEhVGBrVoP7nfEAqsK4urrq4zB1ftbQ/rZrw5YrYBKNYU+lHZT128Ei9RDa40l51rICu/PfkUCqwi0ARARyue7yaKfuyPGdPTE0ecwPB5jB0UeQw/PFtTQRrCsFdG14nfSVxyw6hhGAvrtSu89duX0ajfQkCTVPgf9F19n7uXqvNuuZbDkGaXDMMdar0l8riKBVdqSnfK6JLIfmLE2hlY+i3A7LxP52IeQONCqM2tmccdJqSHPXEYJT0csfEbnagJWXnrJo2N0Mg7o2cbRT/PKLNqpLXZChoOji3zuY2D70rLT4e1hwq+/NrXduni5qIJ97W3nagLWytHsfPmIi2XsdF5Y4cYKGDt9Z8giH7y9kSHcXOQklrmXyXmmT77KN7KZ5w/M8dfM7ACLFigqMbjsifrJerLZynHoGGCVMx5Kn2GuYrEhtNop9hSyyCdv99VDd85lttySIKHBwb3p2wtvzcxwU6jzfAHJYt8CLbWa1h7fiAFWMeXBXpcZN1NspsEI+J/yHYWs3wsULR4X4qHL5fJLF8g7XVGI8Un34sX3mONgOP8CRqzLlF2g3W5VbDXhWn3cLAJYpR9XcyIKN3ignWI/Pwxhp3acKsoO54qSRrcrCfiovIdaO56Xwwrk6xnaelkQgiqFqDJ9W388NgJYhScPs775JOVptZ3sbXLAMEieJFcCBT1SiU107j/U2krLxASMixERyauDU4okEqvV7WAUsKovbxulK6lzpzu2va8tdEUZQpaMRsJfKjzpM7HX/+ybh2ECilhGSUwPV11Vbel8y/kj28HKA8JH4WjD8oD2bRKy3ndqlrP5GnlY+bU2f3OfA33wB9zSCjkauEnRl8ENlpZjS7yKAdYpIHpoUanIJ0MJEzvOf0oLWUW+7jKNOCIOAME6HofW9Jf08qzvA0eTsXVFIydYRhpezDJYQtvOd9sMVhkQsHjv6GSDoQwZQ2DN72nttT/xRBzgPFiio7UkOx6DvYDRAyzRJdc1wC1rTK62g1UHWShAGPJwO9n7BcYZhdbDG63eaqAFWPgNjlhBYG09P3czWEVAC5ZlVXI7rxXsKk1j78eWdYxphCPZKrAWOu+xuNoO1ldAC+b/2/KtBwAD5PCqha0bfYmZtkr/YH7AtlBYcoF1M1+dGyxeme3XE2wFq4w0Vjmxs4tLcDx08x8k4HHrRic2N9Gyx5IWjIncHHnBYE2wglIOqmJxuIoNVr22HpOu2h76Tz6izvC+RmeUIURhJSaATzLEfgNjmTDiAksj+AbRSyCVtYnC1Waw8khAhHWxdiMHEnbRrrzESXF1u9m77g+4/eqkERisSTnA74PjseVJaOIo19WZ/vS5c0MaIArTTvYhulEFXVbY9SQL9SD9E14HWkKaYnTsIzYgsFj1eDEkHfAV6GSVYnG14gxSFxCn1fU4fWTfPWNOCwlZEi3T5QAbHfM3EM2kkQWwOMa3HrwDpaxGLK42g3WKBMTXp4LloGIBLRW0Ftmxj+53KhLBYHGmSCLHfQIF45dYXG0G6+tPjzYIsAAsXGixdkxpdMYceC/lYTFitb399uBcqjLR7luwEawqEhCxRi1eLemQ8Ls3kChxW24JXeDKFgw6J4xrqSqimHjxKjZY+Z8FawVZox60Hs5eFESObOWOmyQZj3iflY1glX97fFQDawVZenNojyqqlz86idgIlqhHzPv3IFibZLRm3XqygD7aZQHbLgpYIi5GvS8UgrVJZj/psZqsx9IoAIBOGwMsbiTu/cb2CVaefYhu19vtyt7ICxwogsTRgX/VCeNAWzmwnZvA4u1p5PvYbQSrMvf9xV+FxLHc+dfbbeH5TBavEnR6Vyhhxh1t4XUTWB2jN/b9ERGsTSIu4UGFT20gWi3cNR+V1dsVbguvmyIWb42j33fTBKuuluWKWKc/N0CqXC8Wrm1Qg0joAVtCzTrQFlL4IOp8RJvb+FxtPrvhKwlYb7xSMEzXiW70de0DuvHt9Qqdy2KYBhLdSHnrweqp7QT3Cd4K1sk0EOnC2c8BSwUV43Vte98n6wzXKxCMBKhs6h1krAarp/ZT3H96K1hFJLBiAfpi8SilYpVCy5etDkJmEAZ5MDyC+K0Fq2MxMcl9zbeClW81YAf0U84gZX6nAUsxppa82IKGv4jXGVrMPnQ/j9VgjYyrQ5Jv8VYuatPA4vOb8jIKoKCdF8ukSQ9dYvMyW9Cthab9NzCwrQOrY92rRFzFPue9WE5+ml4CvQbQmth599WqZud9wpemhREI6KzOR6ubvEGAdqvA6oZbUq42g1WF3cQ4h54MF/izsNjJE+bmPwrtCh6SZxofQ080uM6masPBklgl42r7dYWnoM6RSj29kjmWndfq6qsVJz/4aggEqxvUOEYyrraDlYe0YWbDaTxRM6iTVe/lQWDeYF2vycjqwGF5S9pHr4+OpeMq/k1BKlfiHO6R1SFtoet2SHsFCxrh3K4eAmt8aBr63ui0peUq/m2M6pX3aKs22Ck/AqyNZ+PBGiHT/HcfpJRcJbjxWuWd1BwG9b7jZNi93vYD1jUVWMd1YCXlKgJY5ZdvuzQNNMVKO9M7Rb7xJJvr9XoXL+rG++x1vdMpJViDAyxWg0l1yCstVwlubvsFGZk9d6J02/F+QNgbfxZqfuv5kCP3n+5LthZ8iZi3RmfEkkDxFTZPzFWK23F/lZ63g88Wbsftaeed59hoIJGRpq6XOGlRgoesZJ13cPC+t1SEz1JzleYBAqXXff9nhZ187MyfcPHOS3qUs3g8olFLx0kGi3QB63gcHWAZ7Z+oWnKu0jzy5Kv2eFLJKZmdF+p6vd/pS5360g23+51u4tOdOjMlV5B6UTtWHbGSvH9FlOghTad68dlKlrLmz/aaBK3Kz87rRBCiLjO4GYeWbxa7HfdNSAmWgEohTl8v4Gr6WLnaT9Xy83ZP6lCLDQdroLHZ0Q4HljY77z2LWUaDznqYr23bduFIX2KwBFISrpe0gysfhDk/D6+0pjoVeZ7n9sdX2nv4K+y89yi0CEzvaOi8I5ZsAtnSS7iKBFYW/OheoAGLZedVEg57U0jyiFhawGJ/r+EqFlhZIBFgjzvwodDvvpyHd6P2GbB4U2joNe1gRLCyICIcx2ti2XmNuLv2GbBYxNKgel28ighWlkfiIZadlyhJwBrhu6SNw2MVWCJuvYyriGBl3q0hNKQeStb7ucqSBCzCQ9sPo2m2ewxkXKpdH7FeyVVMsDLbaMAaHjwJTXLVUqCS9LBkt+hKBiuoWtVV6taD9UKuooKV2cahlh9wn85OeqUIWOPdqWE1WK/kKi5Y2XLQ8jyNeNnOPi7/ShGwZg2YqXatpZdyFRuszDrKrmHl+8/NjzWvs5NYGwIWmG0yQNDQib/CyqNgNW/hKjpYmQOtsIu1YtlJH7FWkfWAAt0oWOJEcboUY0MQWALIF3OV5au0UMmynh9OXnOZVpnPz2XYEVUELOr7cLS6/g4dlu4pCCpKmZQ198a/LaSmWK5Xc5VOZVnnRVGciqLI6/XX/lVlXRfEzonYKffRs1KiXmuau/e9ZZjGawOeqHwl9qhRMidvNOKwOd3njXEv2fx3uPojIt5n/g64s23XN/cGSt5RhMw/MeO7vEvqRSbk6tOkPN80V7+wNVJ3N1DYGSRHImrRic3ZLu+foT2vHXL1cVKepx68uh9ZQ+/0wSgEO0qtQIiFJ4GtDpd3W0gQviNXnygRrWRr1TTw85C6Ry/DW/8ApBkTEUrBxd+Hh58YxBivPlBag6W3ivRQnzrW13Xjo+9Jr1xLDErrZEm7cps7q03I1SdKw0kDQYOEXBgzocYbDsPijDW/7Nhv/0zNAwuMzjRUmesSF9G3soI6507nbNo1w/7Vx2rmZovn3YBNulCz8DaNVXrT6ywOfw9+suxhxeJ4SyyDuYO3z+BR3To9s9iK/atPlQOHeUsF4jPpk0/HRd30gY3lHbn6XJmeXeoWLfC1lAuEzdJ+EmG8+lytIsUHoghCrj5YzX509+CKnBiQv/VuwCg/NbuVhauyaJpDQd4Qrb2r+SCu6ubAzmWrD83HPM39r6r5KK7ExipHsnau5mO4qsjGA91ZZ9WhwdZw12p2KVu/PScoHQ5lWZKlsnn3XS9QTjV7lHWcoTlkWXYgOFWkHSwaPFl5z2o+hauS9qoUWDW2hbtWsz/Zx0U5WIe6zhsSrGrsvu9aze4EjLczkA5NcWjoACmCtW81exN0HKcSTSFbwKZw52p2JvD4YEV/BpI+Vk277dh537eafclx3Lmgww1FllX0DYcb9q1mV3Kdz0BHruivQtKPp6NaqP2q2ZPc58nUTZ5VNEVVYdd972p2pKXzr2pxVkNZ4FjD3tXsR8vn9dWH5pDn+aFBrnavZjfyOl+0zg+HQ76rG0GhUCgUCoVCoVAoFAqFQqFQKBQKhUKhUCgUCoVCoVAoFAqFQmWfpf8D+dp2wFSoNqgAAAAASUVORK5CYII=;sketch=1;hachureGap=4;jiggle=2;curveFitting=1;fontFamily=Architects Daughter;fontSource=https%3A%2F%2Ffonts.googleapis.com%2Fcss%3Ffamily%3DArchitects%2BDaughter;shadow=1;" vertex="1" parent="QRdIB-d-0XUhI7obMMeW-46">
          <mxGeometry x="59.69999999999999" y="10" width="70.59" height="20" as="geometry" />
        </mxCell>
        <mxCell id="QRdIB-d-0XUhI7obMMeW-49" value="" style="shape=image;editableCssRules=.*;part=1;verticalLabelPosition=middle;labelBackgroundColor=none;verticalAlign=middle;aspect=fixed;imageAspect=0;image=data:image/svg+xml,PHN2ZyB4bWxucz0iaHR0cDovL3d3dy53My5vcmcvMjAwMC9zdmciIHZpZXdCb3g9Ii0wLjUgLTAuNSAyNi4wODQgMjgiIGhlaWdodD0iMjgiIHdpZHRoPSIyNi4wODQiPiYjeGE7CSAgPHN0eWxlIHR5cGU9InRleHQvY3NzIj4uc3QwIHsgc3RvcC1jb2xvcjogcmdiKDM1LCAxNDksIDI1NSk7IH0gLnN0MSB7IHN0b3AtY29sb3I6IHJnYigwLCA4NywgMjEwKTsgfSA8L3N0eWxlPiYjeGE7CTxkZWZzPiYjeGE7CQk8bGluZWFyR3JhZGllbnQgZ3JhZGllbnRVbml0cz0idXNlclNwYWNlT25Vc2UiIHkyPSIyMy43OTIiIHgyPSIyMy4yNTYiIHkxPSIzLjQ3NCIgeDE9IjEuODY1IiBpZD0iQSI+JiN4YTsJCQk8c3RvcCBjbGFzcz0ic3QwIi8+JiN4YTsJCQk8c3RvcCBjbGFzcz0ic3QxIiBvZmZzZXQ9IjEiLz4mI3hhOwkJPC9saW5lYXJHcmFkaWVudD4mI3hhOwk8L2RlZnM+JiN4YTsJPHBhdGggZmlsbD0idXJsKCNBKSIgZD0iTTI0LjEwNCA4LjEwMmE0Ljk3IDQuOTcgMCAwIDEgMS4wNDIgMS41MzRjLjI5MS41NDkuNDM4IDEuMTUyLjQzOCAxLjgxdjExLjcyNWMwIDEuMjQxLS40MjEgMi4yNjUtMS4yNjIgMy4wNjgtLjgzOC44NDItMS44OCAxLjI2MS0zLjEyMSAxLjI2MUgzLjgyN2E0LjE4IDQuMTggMCAwIDEtMy4wNjgtMS4yNjFDLS4wODEgMjUuNDM2LS41IDI0LjQxMi0uNSAyMy4xNzFWMTEuNDQ0YzAtMS4zODcuNDkxLTIuNTAyIDEuNDc4LTMuMzQyTDkuNjM4LjU5NkE0LjUgNC41IDAgMCAxIDEyLjU5NC0uNSA0LjA5IDQuMDkgMCAwIDEgMTUuNDQ0LjU5NnptLTkuMzcgNy44MzZIMTAuMzV2OC43MTNoNC4zODR6bTcuNzgyLTQuNDk0YzAtLjQ3My0uMTQ3LS44NTktLjQzOC0xLjE1bC04LjY1OC03LjUwNmMtLjYyMS0uNDczLTEuMjYxLS40NzMtMS45MTggMGwtOC42NTUgNy41MDZjLS4yOTMuMjkzLS40MzguNjc3LS40MzggMS4xNTJ2MTEuNzI1YzAgLjQzOC4xMjguODAzLjM4NCAxLjA5NmExLjUzIDEuNTMgMCAwIDAgMS4wNC4zODRoMy42MTd2LTguNzEzYzAtLjgwMy4yNzQtMS40OC44MjEtMi4wMjcuNTg2LS41ODYgMS4yOC0uODc3IDIuMDgzLS44NzdoNC4zODRhMi42NiAyLjY2IDAgMCAxIDIuMDI3Ljg3N2MuNTQ5LjU0Ny44MjIgMS4yMjQuODIyIDIuMDI3djguNzEzaDMuNjE3Yy40MzggMCAuNzg0LS4xMjggMS4wNC0uMzg0LjE0NC0uMTQzLjI1Ny0uMzE0LjMzMy0uNTAzcy4xMTEtLjM5LjEwNi0uNTkzeiIvPiYjeGE7PC9zdmc+;labelPosition=right;align=left;fontStyle=1;spacingLeft=15;fontSize=16;sketch=1;hachureGap=4;jiggle=2;curveFitting=1;fontFamily=Architects Daughter;fontSource=https://fonts.googleapis.com/css?family=Architects+Daughter;shadow=1;" vertex="1" parent="QRdIB-d-0XUhI7obMMeW-46">
          <mxGeometry x="7" y="5" width="28" height="30" as="geometry" />
        </mxCell>
        <mxCell id="QRdIB-d-0XUhI7obMMeW-50" value="" style="group" vertex="1" connectable="0" parent="1">
          <mxGeometry x="-2918" y="956" width="289" height="167" as="geometry" />
        </mxCell>
        <mxCell id="QRdIB-d-0XUhI7obMMeW-51" value="" style="shape=image;verticalLabelPosition=bottom;labelBackgroundColor=default;verticalAlign=top;aspect=fixed;imageAspect=0;image=data:image/png,iVBORw0KGgoAAAANSUhEUgAAAFUAAABKCAMAAAD9q+gmAAAAAXNSR0IArs4c6QAAAARnQU1BAACxjwv8YQUAAAHdUExURQAAAAAAAAAAAAAAAAAAAAAAAAAAAAAAAAAAAAAAAAAAAAAAAAAAAAAAAAAAAAAAAAAAAAAAAAAAAAAAAAAAAAAAAAAAAAAAAAAAAAAAAAAAAAAAAAAAAAAAAAAAAAAAAAAAAAAAAAAAAAAAAAAAAAAAAAAAAAAAAAAAAAAAAAAAAAAAAAAAAAAAAAAAAAAAAAAAAAAAAAAAAAAAAAAAAAAAAAAAAAAAAAAAAAAAAAAAAAAAAAAAAAAAAAAAAAAAAAAAAAAAAAAAAAAAAAAAAAAAAAAAAAAAAAAAAAAAAAAAAAAAAAAAAAAAAAAAAAAAAAAAAAAAAAgGAAgGAAgGAAgGAAAAAAcGAAcGAAcFAAcFAAcFAAcFAAcFAAwJAAwJAAsJAAsJAAkHAAsIAAsIAA4KAAkHAAoIAAoIADMmADMmADMmADMmABUQAAYFABUQABgSAAgGAAwJABgSAEExAGFJAFQ/AFxGAHpcAAMCAAoIAFQ/AFxFAAMCAAQDAAAAAAgGAAkHAAoIABAMABgSACAYACgeADAkADgqAEg2AFA8AFhCAFpEAGBIAGhOAHhaAH9gAIdmAJdyAJ94AKd+ALeKAL+QAMeWAM+cANeiAN+oAOeuAO+0APe6AP/AAIw4rmsAAAB/dFJOUwABAgMEBQYHCAkKCwwNDg8QERITFBUWFxgZGhscHR4fICEiIyQlJicoKSorLC0xMjM1Njc4OTo7PD9ARkhKTU9RUlNUVVZXWFlaW1xdXl9ye4GEhYaHiImLjZCSk5TEx8nK19jZ29ze3+/w8fL09fX29/f39/f5+fn6+vr6+/ztnrQCAAAACXBIWXMAABcRAAAXEQHKJvM/AAAFDUlEQVRYR+3Y93faVhQHcA+mEEgCxN7BGOymI22a7pGJ485075EOt6Ft2nSmbtWUNDhx7NShxMZDf2vvfe9pGBAgw4/+nmNbCPw5l/eueHpMHOYwB84kDXs0cjzww0gaenq0iJ9eINYUzXhY8eLPly8gOU0zFle8+Iu6ffm1qWmHw4lxMJc9fbAgqgL7usPpcmNc4I7KUhTZNzweL8dxXg91R1ElhiL7lo/3+/28z+uxxeIk7I+BIvu2KEmiEOA5j9vpwEFg/2cZpnTEjAJ75R1ZDockwe+DarHY/iwhaDOaE9TQzT3yZ/vKu/FYVA6JyA4aA0aybjQS0tDWnz9q7HupZCwCLDeIJeY0dCNtRz3yZxr6/cKHOvt+JhUHluesh/ZzpU+u3SaQ2voLHvygsx9kgQ0KvNdNhpZJ5ijklT2z21ijB616C34rH5nZmCwFrIfWWu1AVaX8sYlNRmEMLIu1VDtRVSke/cRg04lI0LpYK7ULVZXZyqtX2/T49y9KtFib6la9SQ/u/rNND5S5V65u0cPlLx/IpeOy5Ic2sKUabJOxigl9qJjP4BBwHmguO2oXq+jo0rFZpvpsqx1s828dfbhcKuZhBA5S6362WTfQyuxMATo2fIBxxRjsdQN9pFIuHclDZ4Usr67JvqqJNdA5RDNJKNWyX7vUvdVNetBe3YHfOkuzvHRcQ+U+HwRd6r/rK3fwAtpobNzEx/vYDhQ/tIZSt1b2ANxsI71GPBML6DygOQ21ul4nO9U7t3bhza80YBj21lfJKZ1dXnp0vgJoOhENSwY6hKo2b+BlD2Ow2digZzT2thkN8LDMAtqr1B6qunOdGPe0VoIQdu3aifsqcE0BGhIDPq/bEp2YnOpUt+lk4XSxZoAAu9ZQjs4RFNcsQNntC4PMgeWqQ/2PWBsot1e0IUC2savMl2cKGawU1lc2+73QHmoTPlWhAUihd9fZScjWLnwSzh7B65Qs2n3QHqp6s0VEkNs36FBoUcoz+JFCrihofksUhnW6U92pa+Nav0f+6lGg1KS+tPYeUgyU2qViU9HsrxRULBXev+UVxdJTtYxSzCWjfVZALaA6bKiFTL+lSo9NNZ+KhYSBpeJk2VGzZP0bolRbKs6V5R2AHlSdNlSYKzIAfVHbtfZb/owQ9duvvoZc0lL7iRmq+mutVmNnSf6AK2DwXFF15smnnn7m2edOnj5zrrpwfvHl75ipqrU3X3phcfH8QrVaPXf2zKmTJ/D+emCphHU43RwvBMOReCKVzuYKj5vUF0vFQj6XzaRTyUR82L0AK9bl4fyCFJIjsXgylXnMUC8twgqVBjAWi0Zksm+xvF81h6hOt4fjA4IURDhx/BtmglrNphOwXwmHQ0FjjzWMylgvbPkCIhQcPWZSz8LdP+ytREEIwH4Q9plD7gdBRdYFLgewIIUfNKmnYuR987wPtq7G3nWgyliylQaYD4j3m9TnYdH3+6BGD+yyXXT/PgyKY0B3Wk5SsC9Q+o3uiTBP4J2EF/ftIDpsfSdAWNwUYsHAijC48QRMfAQXfbiTQBGeBhLN4VBaLoUdlA2G5UhEDgdFipIaGTmsiSGvJwOMrF8QpSC2ErYnND193yTs9UMH/4exnM/vD0Ar+aA98UpiJnuhzTDW6SLfgWArjeXbFY0lXYa9hLM0ookhrPblEjHHgGrlaqHzzp4aJaCAy4IPxoFS1hR2dgxh4DjJw4yQiYn/AVONP5FsOPafAAAAAElFTkSuQmCC;shadow=1;sketch=1;curveFitting=1;jiggle=2;" vertex="1" parent="QRdIB-d-0XUhI7obMMeW-50">
          <mxGeometry width="57.43" height="50" as="geometry" />
        </mxCell>
        <mxCell id="QRdIB-d-0XUhI7obMMeW-52" value="&lt;div style=&quot;&quot;&gt;&lt;span style=&quot;font-size: 18px;&quot;&gt;2LIS_03_BF&lt;/span&gt;&lt;br&gt;&lt;/div&gt;&lt;div style=&quot;&quot;&gt;&lt;span style=&quot;font-size: 18px;&quot;&gt;Goods Movements From Inventory Management&lt;/span&gt;&lt;br&gt;&lt;/div&gt;&lt;div&gt;&lt;/div&gt;" style="strokeColor=#0070F2;shadow=1;strokeWidth=2;rounded=0;whiteSpace=wrap;html=1;sketch=1;hachureGap=4;jiggle=2;curveFitting=1;fontFamily=72, sans-serif;fontSource=https%3A%2F%2Ffonts.googleapis.com%2Fcss%3Ffamily%3DArchitects%2BDaughter;" vertex="1" parent="QRdIB-d-0XUhI7obMMeW-50">
          <mxGeometry x="9" y="57" width="280" height="110" as="geometry" />
        </mxCell>
        <mxCell id="QRdIB-d-0XUhI7obMMeW-53" value="" style="shape=image;verticalLabelPosition=bottom;labelBackgroundColor=default;verticalAlign=top;aspect=fixed;imageAspect=0;image=data:image/png,iVBORw0KGgoAAAANSUhEUgAAAEcAAAA9CAMAAADI14SKAAAAAXNSR0IArs4c6QAAAARnQU1BAACxjwv8YQUAAAGVUExURQAAAAAAAAAAAAAAAAAAAAAAAAAAAAAAAAAAAAAAAAAAAAAAAAAAAAAAAAAAAAAAAAAAAAAAAAAAAAAAAAAAAAAAAAAAAAAAAAAAAAAAAAAAAAAAAAAAAAAAAAAAAAAAAAAAAAAAAAAAAAAAAAAAAAAAAAAAAAAAAAAAAAAAAAAAAAAAAAAAAAAAAAAAAAAAAAAAAAAAAAAAAAAAAAAAAAAAAAAAAAAAAAAAAAAAAAAAAAAAAAAAAAAAAAAAAAcKBQAAAAcJBQAAAAcJBQcJBAcJBAYJBAYJBAYIBAQGAgYHBAQFAgQFAgQFAgMFAgcKAwMFAgcKAwcKAwYKAwYHAwQHAwQHAwQHAwQHAwcLBAoOBgoOBgoOBgYJBAYJBAYJBAYIAwYIAwECAQgLBAoOBQUHAwEBARUeDCQzEwcKBAwRBjJIGxYgDQgMBSo7FwkMBQ0UBxchDCU1FUZkJgUHAwoOBT5YIgEBAAYIAwoPBjVLHQMEAgAAAFuCMmCINGmVOXKiPnepQYC2RoS8SInDS43JTZLQUG9xMO4AAAB8dFJOUwABAgMEBQYHCAkKCwwNDg8QERITFBUWFxgZGhscHR4fICEiIyQlJicpKywtLzAxMjQ1NjpKS0xNTlBTWV9ka2tubm9xc3V3eIOLi42PkZSUlZiZoauusLGysrW2t8nKy97f4evv8PHx8fPz8/T19fb29vb3+Pj4+fn5+fzzdlIsAAAACXBIWXMAABcRAAAXEQHKJvM/AAAEeElEQVRYR+2W6ZvaVBTGJ2xJICSQjQBhCQzjWutS61qr1nHXutW6tY5WBTrV6dSt1juOjHD/7p5z7wWSQEKfx0/69P0wA/c9/M7NyV3O1n39HyRJkvj0LwQQLvE9JmGCxMCKTuEfEcPFhiOSAmGhxFhcPwAI3MxcayKl4NuFnwgi41MMk+VajZSk4BpJtucix+PHJAjL5fKgHA8VHgoxR4TbObQTQIQef/cUYPIFWZYLBSBFQJLUu3ZEST5fQMXdkAilk/EZoCiqqiqKHAmF3Ke/P6KUyApKZqD1EwIOnfx4VlaLJU0rFVW5sAQhZvwXBBBwS2AqAsR+GRVy6OTg2VJZNwy9XIJYnhOVOT0+Rp9oZZBW4lmSOQB6waiaZrWia0UGYqQ5hhKjUqkYzMuncujk9ku249hW1ZiDQHMMJaZlWWZFhwklcCTBoSfXX/M8z7URhMXOZrJnfhEYShzXdWyTW+kcenJzt9ms1xyIxjLkck8f/C0sSrw6OFalfA8cAL3ebjU8p6ojKH/2YCIM4Pg+pLCTOVKIA6D3u+2mZwOoqDwTwlDSxgx2FTlr6xPhAOiDoN2sIejFMIaSgCe4Rw7958aHHPTKr2EMJf2g43vwXKq8fv1ImQiHTg8/ClqN2oWbJ2KAi2z3GEdT2ToUP14KllqUA6BPuq3dGIaSQb/j1yyjBEtr/WPFOQC6/EYcwzjNmqmXlKTyrHDo9I8/4xhKdnqdhptS5kx2hfPz3pV98XEhMui1605aeVY4v+09/tCVn2bimxAZBC3PNrTk8sQ5d/ae2Nl+8MtbURDZ7kKZ08qTi3LufPPkA4Ne0PkiCiJQZtdMK0+Us/81YPrdTqv1+SgMIhvLkw9z9q8+CrPptv1mo3FpNBWjIMLKk7J6wpwZYHa2g06rUfdqXv3S4RJENpansODMbl19ZNCH7QUnjW07rndxCSKbVs+SMxt99TDsIjyALLNarVqOd/HGHERa9dTNlc3JgjMbfdbvBW2/jierXi7rFdPx3hsKEPG91M2VzQvObHQ5gMo0YTJwZZSKxVLZYCC+RUjDNfXks2fBmY0+7XRaPhydpoFXmKKoRQ1Bb/MtS1LPHihzXkHO9PBj3/cbnmuxIxWuebimGajOjxDiWmxTrCvPkjMdvlvHd22bFZgMXuLQXRQ4yNu9DiACR20x4a0vONPhO26t5jpwB5ZhMnh3gXIAwhrVXgUQYZdRGkcm0+FbpmXDTcrvZNZvgOYg23n59oTARJMea17n4ZtGpVrF25u3AZgULPAYqGKa5w5Iyo3MOLAOz0OnoevQTPBn4h3CAqSVDcN4/ndx6Sdz8ucUFVobaG6WXRIEMxAWW4WuSNOew86HeeK3YbGcOXjDrBNjlFAoZoEZQZtWLKrsJSZMh+XE/hEbQ/ay+TMJV6Th7mKqwouKRUIoa1RjFJ6G5WF2cqMqIlnLyzrjeCAHoY2UZAyLRBIXfhHjQnN7XZKoMBJj+X8xGBIbXp8kJhbJJAaiEh5KjCRqU9Am/77+G9raugtzRbokQ2TNnQAAAABJRU5ErkJggg==;shadow=1;sketch=1;curveFitting=1;jiggle=2;" vertex="1" parent="QRdIB-d-0XUhI7obMMeW-50">
          <mxGeometry x="93" y="-27" width="71" height="61" as="geometry" />
        </mxCell>
        <mxCell id="QRdIB-d-0XUhI7obMMeW-54" value="" style="group" vertex="1" connectable="0" parent="1">
          <mxGeometry x="-3410" y="210.0000000000001" width="262.42999999999984" height="139.9999999999999" as="geometry" />
        </mxCell>
        <mxCell id="QRdIB-d-0XUhI7obMMeW-55" value="" style="shape=image;verticalLabelPosition=bottom;labelBackgroundColor=default;verticalAlign=top;aspect=fixed;imageAspect=0;image=data:image/png,iVBORw0KGgoAAAANSUhEUgAAAGUAAAA8CAMAAABII4TCAAAAAXNSR0IArs4c6QAAAARnQU1BAACxjwv8YQUAAAH1UExURQAAAAAAAAAAAAAAAAAAAAAAAAAAAAAAAAAAAAAAAAAAAAAAAAAAAAAAAAAAAAAAAAAAAAAAAAAAAAAAAAAAAAAAAAAAAAAAAAAAAAAAAAAAAAAAAAAAAAAAAAAAAAAAAAAAAAAAAAAAAAAAAAAAAAAAAAAAAAAAAAAAAAAAAAAAAAAAAAAAAAAAAAAAAAAAAAAAAAAAAAAAAAAAAAAAAAAAAAAAAAAAAAAAAAAAAAAAAAAAAAQICAAAAAAAAAAAAAAAAAAAAAIFBwAAAAAICwAKDQcPEggPEgALDwgPEgAOEgANEQANEgANEgAOEwkTFwkQFAkQFAANEgANEQAKDwALEAYMDgULDQAJDAULDQAJDAAeKQAjMAAqOREjKhQqMRkxOgAwQQ4dIgwWGgAHCQAHCQYzQwY6TAcoMxQsNBs6RB9BTgAPFAVAVREmLSRJVgBEXQ4fJShQXwAKDQMGBwUYHgsaHydRXwAFBwUTGC5fcQBKZgNMZgQHCShSYStYaCtYaS5fcChSYQBRcAFScAIDBAJdfgQJDDBhcgIFBgAAAABYeABjhwBojgBulgBznQB5pQB+rACEtACJuwCPwwCUygCa0gCf2QCl4QCq6ACw8DNoezZugjl1ikCCmUOIoUaPqUycuFavz1m212DD52PJ7mbQ9laT9xQAAACKdFJOUwABAgMEBQYHCAkKCwwNDg8QERITFBUWFxgZGhscHR4fICUpKi4yNTc+QkNERk5QU1RWWF9laXBzdnp7goKDhIeOj4+Qo6urtba4u77BxMrM0NHV3N7i5evs7O3v7+/v7+/w8PHy8/Pz8/Pz8/T09PT19fX29vb29vf39/j4+Pj4+Pj5+/v7+/v7/V+IQqIAAAAJcEhZcwAAFxEAABcRAcom8z8AAAQtSURBVFhH7Zj5d9tEEIATJ7Ik65YsK/IRSilnuMpNuTG03AQDhYK5ylEHyllKKfcNXSdN6xZakkIxAf5OZlajvtRaOdfyeH2v30+2dma+tzuSnnZHznMuM7oSFLceqMLaoNzVQBmcwiqhcISqDIVCKbkwtozxDDSAUHySTbXy4DEYzTOTUkpKcRC6rihJYCpbwUMKrG9eMTU1te0OYJrzxCD33glcCUQqkDq5argHHRdffutt09PPsO9fAn5aBPpiTuEYBn3OPkTnVZdpGtrARB6qOsDmG7fvZLuhdL+/9M9a+AudL7/Idj14y6VoAk+e5qadr37w+5+Utz6WTn+5e9ftnqYWEw1VXsaOLzZmSFn65HFD14qKWMO+kWT5mtlmScPZiCyz+z86sOEV++r9gz8wDzQq9iarYQsLP8+9vZ+98+bi6X7/b8pbJf3+H4tvzbCDe2aPLyywsmcbOq5ZxjIKFs6xI909nc4hdmhmZuZduFdP0Y2b5TcYPQBRPzLW6bzRne9RBRaVXQsnM8SS8muv1zvc7Xa/6+TxGYzOQdRJykhhccW3DegM9J+qp2Qs64fVosAxdd5/qp4i09KYKLtCy6hUS/z/WgqyLdj9gXsM3sVS+xI4hpa9k+Va6hHcyWr2qZRrqVV8fCqzlsKYREs19CxB82EqMi35zZdpiQJ4wQjbMi7Rkt8WmZbQEz2TuGCKREvZyWuLTEt+W4oSLZ64LZItea/KMakWeInltEWVaLFzFkyuhRbsP7aIFowsT81T0EY5+qxowbhlvLjpkX3vzf9CkevlxJFP9z52EUwla0nuMc248OaHntvX/na2d4Jy1sLJ3ly3vfe1R7dtwa9XgQQnM66oJdPxwy3X3nVf63XGnm+/AN90h+Gb7hiVyXIcRuch6pV2m7GPW/fffc0lYQBfleKp0JJphuX6YRRX643Jyauvu77ZbD7QarWeZHk8DaMPN5v33LB1a6Neq8ZRpew7FrReOBW04GR0w3K8oFyJJuJqtVar1+uNBggnJy/gbOIkv/EqDDbq9VqtVq3GExEoAt/lewr4rBBZkskoqlYyLcf1/KAchpVKFE0AcQxKAKoR/C9cjmE0guqVMCyDwXMd2+T7I+F6AbhrBU1R00uGadmO63qe7/tBEJSBEKgsA/9DYSgdBBDleS4IbMs0Sjrf66FEZEk1SlFFkWGalmXZtu0ALuANgNdcHIQYiDRNAwyoGLZvBVADHphPUVU1Tdf1Ugl0KESg1DKSazgKQVBe12gPjpv9IRLSFPC0QuFnFHhSADoAqgjgQ1D7zHkCP7pIzi2opAgYPXMywo878CTirEMRLqbfQDKenI1gEimGSgAewk10CoPwImIogpdHknwqNowkEKDEFCpH0MUUSkGozCqghLOhghy6NABlrxXKXgEKPs85x8jIv6FnG3k+2K4LAAAAAElFTkSuQmCC;shadow=1;sketch=1;curveFitting=1;jiggle=2;" vertex="1" parent="QRdIB-d-0XUhI7obMMeW-54">
          <mxGeometry width="84.17" height="50" as="geometry" />
        </mxCell>
        <mxCell id="QRdIB-d-0XUhI7obMMeW-56" value="&lt;span style=&quot;font-size: 18px;&quot;&gt;LSP01O11&lt;/span&gt;&lt;br&gt;&lt;div&gt;&lt;span style=&quot;font-size: 18px;&quot;&gt;MM: Material Documents (BF) (line item level) ( WO)&lt;/span&gt;&lt;br&gt;&lt;/div&gt;" style="strokeColor=#0070F2;shadow=1;strokeWidth=2;rounded=0;whiteSpace=wrap;html=1;sketch=1;hachureGap=4;jiggle=2;curveFitting=1;fontFamily=72, sans-serif;fontSource=https%3A%2F%2Ffonts.googleapis.com%2Fcss%3Ffamily%3DArchitects%2BDaughter;" vertex="1" parent="QRdIB-d-0XUhI7obMMeW-54">
          <mxGeometry x="14.429999999999836" y="47.82999999999993" width="248" height="92.17" as="geometry" />
        </mxCell>
        <mxCell id="QRdIB-d-0XUhI7obMMeW-57" value="" style="group" vertex="1" connectable="0" parent="1">
          <mxGeometry x="-2818.5" y="-892" width="294" height="114.5" as="geometry" />
        </mxCell>
        <mxCell id="QRdIB-d-0XUhI7obMMeW-58" value="&lt;span style=&quot;font-size: 18px;&quot;&gt;MM_CBFJ3&lt;/span&gt;&lt;br&gt;&lt;div&gt;&lt;span style=&quot;font-size: 18px;&quot;&gt;MM AM&lt;/span&gt;&lt;br&gt;&lt;/div&gt;" style="strokeColor=#0070F2;shadow=1;strokeWidth=2;rounded=0;whiteSpace=wrap;html=1;sketch=1;hachureGap=4;jiggle=2;curveFitting=1;fontFamily=72, sans-serif;fontSource=https%3A%2F%2Ffonts.googleapis.com%2Fcss%3Ffamily%3DArchitects%2BDaughter;" vertex="1" parent="QRdIB-d-0XUhI7obMMeW-57">
          <mxGeometry x="5.13" y="55" width="288.87" height="59.5" as="geometry" />
        </mxCell>
        <mxCell id="QRdIB-d-0XUhI7obMMeW-59" value="" style="group" vertex="1" connectable="0" parent="QRdIB-d-0XUhI7obMMeW-57">
          <mxGeometry x="-6" y="-24.5" width="92" height="83" as="geometry" />
        </mxCell>
        <mxCell id="QRdIB-d-0XUhI7obMMeW-60" value="" style="shape=image;verticalLabelPosition=bottom;labelBackgroundColor=default;verticalAlign=top;aspect=fixed;imageAspect=0;image=data:image/png,iVBORw0KGgoAAAANSUhEUgAAAE0AAABGCAMAAAC+EOlBAAAAAXNSR0IArs4c6QAAAARnQU1BAACxjwv8YQUAAAFiUExURQAAAAAAAAAAAAAAAAAAAAAAAAAAAAAAAAAAAAAAAAAAAAAAAAAAAAAAAAAAAAAAAAAAAAAAAAAAAAAAAAAAAAAAAAAAAAAAAAAAAAAAAAAAAAAAAAAAAAAAAAAAAAAAAAAAAAAAAAAAAAAAAAAAAAAAAAAAAAAAAAAAAAAAAAAAAAAAAAUOEwUOEwUOEwUOEgUOEgQNEgQNEQQNEQQNEQQNEQQNEQQOFAQOFAQOFAQOFAQOFAELEgAKEAAKEAAHDgAKEAAHDgAHDQIHCgIHCgIHCgAMFQAECAAECBAuQxAuQgwkNQsgMAwkNQsgMAYUHQodKwACAwAfNQAfNgodKx5VfB5VewAJDwA+bQA/bQA/bgFBbwAMFQAFCAIHCgMHCgAAAAAjPAA4YABFdgBFdwBGeABJfgBPhgBPhwBUkABZmQBamQBamgBipwBiqABuvQBvvgBwvwBwwBlGZjCIxjKMzJre7/QAAABgdFJOUwABAgMEBQYHCAkKCwwNDg8QERITFBUWFxgZGhscHR4fICEiIyQlJicoOTo7bG1ub3F0dXZ3eHmztLW2t7jMzc7Oz9Dc3d7j7O3t7u/w8PHz8/T09PT19vf5+fn5+vv7/HWzT1AAAAAJcEhZcwAAFxEAABcRAcom8z8AAAURSURBVFhH7Zf5d9tEFIUbx7JkWbZl7bZkS3YCLWXf9wAthH0tUHALiCUQsAsJlP+f+2bGji29CTSH3+CenBOfGc+nO2807/ld+l//qna2pUYvJIXY2Wk0GurThXm0FhhoF5Kf1jz6sCkxqBd9RXKaKwkmraQ5IcUXUutYYZpYzaZhtJQMg4ANjItJEmOak2IZLdO0rLaQZZkEpOX0V/UsTLMSz36o3Nb1jt024RCrCXHmWZrW4wTs7T83dffdstdVPIBgeuVZmhYxYHEs7FbpueBh7bPK7ErX7bbkAacIG+JhyzL0Pbfr2M99pgalyLSDh7QMsVnFWIuCxsCW5TAOYe/5KuxWOXB7jm21WHME++aPLb0H2LLMRsC98LnCSCnTbq/TNmGuRqN9lt9t6dsbgC3LArgX67BlmUS+2+XNgbZb/r6lI0mbTtKXvv70o019KEynSej1O22W1mg0edpeMS5/3tKPN8XEJI191+FoZM3Q0SaViV8lrciSwO22TZbWZGmLcn+qoU3Hw1BDa+w2WxqazhtowWqnCiMlNmrqaGMdDTu9J9piUc7yjKchbn6/gzeEC1vL4mnFJOVpeRp5PZt5ewWtzdHm1/JsxNNwCAMcAkOjQ9iknUJHNxaL+cHlCU87fguvm9goF7YNGqEE7ZcvAUuHSXl6qqaEiHZ8+ABZ02z0jEagE9IPn3zx6pVJNkyItskD7fjw6gjWtDdB0dask9++v31wJR+nSRSXJycrHM3fufnT4YNZEg56HdOonaiiWR+rrLrSa5fzLB3GUQSawBEKuvOVgHmwpstHTcO0HdePh9mkmM729vZms2k+SUdxHIXVx7x5NRtSOlIJREHWInNGq+30BsHTasVKb0RRGIZRPBql4zwviiIvJmM4DmANyQ3eGgqyltiqYdnd/uPvqIwodff9Et7CMIjiZDjK0iwbj7N0hOzuD3qOLAvMTsmc2bYfq8CQ/hG4MAAwjCIAoeEwwZDvkjecwm69AspzMB+twZblKInjMPC9J9XWV3odRQZ1Vpir4fCjwHiEq1lj4FAFn6g+CDULx0DmmL0ikz9cqVkfiPSPmwVaNZ4IAc6hi5vFRg7e+JqFKpNENWcIQRR4roOr1ayXZ3rjKpdbZMsl8luaPFWHIaBxgNvAV0B9zcrHz7AhoDeYvw7iDdHQiowPATwH2izC1yxZT9WIkpooRLpkafS68Yv2cw1tNhnxqVxeBW7RguKmp7HezqNN82qVOaOJndbOlMLG1izQirGOdk511tYs5HKeNtXW03Um3xAtmh/cn40Snibqacdiw8bS5gf3ARbzNF091dEAk3VBjSgJ2vzaP6ynSke3X96nlO0HDG1+sH9+Pa3VrFdmlIu8gVenAYZXV/c7VdWsvhfGwxS5X2X/CL1Cv+8yIdhHccZvaMaaNGe0rE637wVhnAjFyF/UxzjdHhMCpCOkXjYdya2iynS6PXfg+UEQ+Nih2+85TsfuOPUQUDlFs8AmXtBE5EzLBq/XF4IrtGto0izb6br+dgjQ3siiwLVFZI7ctdDg2R0pm7oy9H54Bsp2JQSDVfnjYGuc7HOFiIQWlBpSYXkrBOgyUV90MLFXapuxWjS09I8aXGqWqSuthoCaSW1vKnDgUaste236IFp3yauGQBjTwiDF25AY4UMgGv1zYBJXlS4Ef8eSEgilsxH4rIbg7Av3KMXbEI1cjAWJxRWpqQtKQYTU0H9Wly79BWVgD242OWzDAAAAAElFTkSuQmCC;shadow=1;sketch=1;curveFitting=1;jiggle=2;" vertex="1" parent="QRdIB-d-0XUhI7obMMeW-59">
          <mxGeometry x="15" width="77" height="70" as="geometry" />
        </mxCell>
        <mxCell id="QRdIB-d-0XUhI7obMMeW-61" value="" style="shape=image;verticalLabelPosition=bottom;labelBackgroundColor=default;verticalAlign=top;aspect=fixed;imageAspect=0;image=data:image/png,iVBORw0KGgoAAAANSUhEUgAAAE0AAABGCAMAAAC+EOlBAAAAAXNSR0IArs4c6QAAAARnQU1BAACxjwv8YQUAAAFiUExURQAAAAAAAAAAAAAAAAAAAAAAAAAAAAAAAAAAAAAAAAAAAAAAAAAAAAAAAAAAAAAAAAAAAAAAAAAAAAAAAAAAAAAAAAAAAAAAAAAAAAAAAAAAAAAAAAAAAAAAAAAAAAAAAAAAAAAAAAAAAAAAAAAAAAAAAAAAAAAAAAAAAAAAAAAAAAAAAAUOEwUOEwUOEwUOEgUOEgQNEgQNEQQNEQQNEQQNEQQNEQQOFAQOFAQOFAQOFAQOFAELEgAKEAAKEAAHDgAKEAAHDgAHDQIHCgIHCgIHCgAMFQAECAAECBAuQxAuQgwkNQsgMAwkNQsgMAYUHQodKwACAwAfNQAfNgodKx5VfB5VewAJDwA+bQA/bQA/bgFBbwAMFQAFCAIHCgMHCgAAAAAjPAA4YABFdgBFdwBGeABJfgBPhgBPhwBUkABZmQBamQBamgBipwBiqABuvQBvvgBwvwBwwBlGZjCIxjKMzJre7/QAAABgdFJOUwABAgMEBQYHCAkKCwwNDg8QERITFBUWFxgZGhscHR4fICEiIyQlJicoOTo7bG1ub3F0dXZ3eHmztLW2t7jMzc7Oz9Dc3d7j7O3t7u/w8PHz8/T09PT19vf5+fn5+vv7/HWzT1AAAAAJcEhZcwAAFxEAABcRAcom8z8AAAURSURBVFhH7Zf5d9tEFIUbx7JkWbZl7bZkS3YCLWXf9wAthH0tUHALiCUQsAsJlP+f+2bGji29CTSH3+CenBOfGc+nO2807/ld+l//qna2pUYvJIXY2Wk0GurThXm0FhhoF5Kf1jz6sCkxqBd9RXKaKwkmraQ5IcUXUutYYZpYzaZhtJQMg4ANjItJEmOak2IZLdO0rLaQZZkEpOX0V/UsTLMSz36o3Nb1jt024RCrCXHmWZrW4wTs7T83dffdstdVPIBgeuVZmhYxYHEs7FbpueBh7bPK7ErX7bbkAacIG+JhyzL0Pbfr2M99pgalyLSDh7QMsVnFWIuCxsCW5TAOYe/5KuxWOXB7jm21WHME++aPLb0H2LLMRsC98LnCSCnTbq/TNmGuRqN9lt9t6dsbgC3LArgX67BlmUS+2+XNgbZb/r6lI0mbTtKXvv70o019KEynSej1O22W1mg0edpeMS5/3tKPN8XEJI191+FoZM3Q0SaViV8lrciSwO22TZbWZGmLcn+qoU3Hw1BDa+w2WxqazhtowWqnCiMlNmrqaGMdDTu9J9piUc7yjKchbn6/gzeEC1vL4mnFJOVpeRp5PZt5ewWtzdHm1/JsxNNwCAMcAkOjQ9iknUJHNxaL+cHlCU87fguvm9goF7YNGqEE7ZcvAUuHSXl6qqaEiHZ8+ABZ02z0jEagE9IPn3zx6pVJNkyItskD7fjw6gjWtDdB0dask9++v31wJR+nSRSXJycrHM3fufnT4YNZEg56HdOonaiiWR+rrLrSa5fzLB3GUQSawBEKuvOVgHmwpstHTcO0HdePh9mkmM729vZms2k+SUdxHIXVx7x5NRtSOlIJREHWInNGq+30BsHTasVKb0RRGIZRPBql4zwviiIvJmM4DmANyQ3eGgqyltiqYdnd/uPvqIwodff9Et7CMIjiZDjK0iwbj7N0hOzuD3qOLAvMTsmc2bYfq8CQ/hG4MAAwjCIAoeEwwZDvkjecwm69AspzMB+twZblKInjMPC9J9XWV3odRQZ1Vpir4fCjwHiEq1lj4FAFn6g+CDULx0DmmL0ikz9cqVkfiPSPmwVaNZ4IAc6hi5vFRg7e+JqFKpNENWcIQRR4roOr1ayXZ3rjKpdbZMsl8luaPFWHIaBxgNvAV0B9zcrHz7AhoDeYvw7iDdHQiowPATwH2izC1yxZT9WIkpooRLpkafS68Yv2cw1tNhnxqVxeBW7RguKmp7HezqNN82qVOaOJndbOlMLG1izQirGOdk511tYs5HKeNtXW03Um3xAtmh/cn40Snibqacdiw8bS5gf3ARbzNF091dEAk3VBjSgJ2vzaP6ynSke3X96nlO0HDG1+sH9+Pa3VrFdmlIu8gVenAYZXV/c7VdWsvhfGwxS5X2X/CL1Cv+8yIdhHccZvaMaaNGe0rE637wVhnAjFyF/UxzjdHhMCpCOkXjYdya2iynS6PXfg+UEQ+Nih2+85TsfuOPUQUDlFs8AmXtBE5EzLBq/XF4IrtGto0izb6br+dgjQ3siiwLVFZI7ctdDg2R0pm7oy9H54Bsp2JQSDVfnjYGuc7HOFiIQWlBpSYXkrBOgyUV90MLFXapuxWjS09I8aXGqWqSuthoCaSW1vKnDgUaste236IFp3yauGQBjTwiDF25AY4UMgGv1zYBJXlS4Ef8eSEgilsxH4rIbg7Av3KMXbEI1cjAWJxRWpqQtKQYTU0H9Wly79BWVgD242OWzDAAAAAElFTkSuQmCC;shadow=1;sketch=1;curveFitting=1;jiggle=2;" vertex="1" parent="QRdIB-d-0XUhI7obMMeW-59">
          <mxGeometry y="13" width="77" height="70" as="geometry" />
        </mxCell>
        <mxCell id="QRdIB-d-0XUhI7obMMeW-62" value="" style="group" vertex="1" connectable="0" parent="1">
          <mxGeometry x="-2736" y="336.0000000000001" width="262.42999999999984" height="139.9999999999999" as="geometry" />
        </mxCell>
        <mxCell id="QRdIB-d-0XUhI7obMMeW-63" value="" style="shape=image;verticalLabelPosition=bottom;labelBackgroundColor=default;verticalAlign=top;aspect=fixed;imageAspect=0;image=data:image/png,iVBORw0KGgoAAAANSUhEUgAAAGUAAAA8CAMAAABII4TCAAAAAXNSR0IArs4c6QAAAARnQU1BAACxjwv8YQUAAAH1UExURQAAAAAAAAAAAAAAAAAAAAAAAAAAAAAAAAAAAAAAAAAAAAAAAAAAAAAAAAAAAAAAAAAAAAAAAAAAAAAAAAAAAAAAAAAAAAAAAAAAAAAAAAAAAAAAAAAAAAAAAAAAAAAAAAAAAAAAAAAAAAAAAAAAAAAAAAAAAAAAAAAAAAAAAAAAAAAAAAAAAAAAAAAAAAAAAAAAAAAAAAAAAAAAAAAAAAAAAAAAAAAAAAAAAAAAAAAAAAAAAAQICAAAAAAAAAAAAAAAAAAAAAIFBwAAAAAICwAKDQcPEggPEgALDwgPEgAOEgANEQANEgANEgAOEwkTFwkQFAkQFAANEgANEQAKDwALEAYMDgULDQAJDAULDQAJDAAeKQAjMAAqOREjKhQqMRkxOgAwQQ4dIgwWGgAHCQAHCQYzQwY6TAcoMxQsNBs6RB9BTgAPFAVAVREmLSRJVgBEXQ4fJShQXwAKDQMGBwUYHgsaHydRXwAFBwUTGC5fcQBKZgNMZgQHCShSYStYaCtYaS5fcChSYQBRcAFScAIDBAJdfgQJDDBhcgIFBgAAAABYeABjhwBojgBulgBznQB5pQB+rACEtACJuwCPwwCUygCa0gCf2QCl4QCq6ACw8DNoezZugjl1ikCCmUOIoUaPqUycuFavz1m212DD52PJ7mbQ9laT9xQAAACKdFJOUwABAgMEBQYHCAkKCwwNDg8QERITFBUWFxgZGhscHR4fICUpKi4yNTc+QkNERk5QU1RWWF9laXBzdnp7goKDhIeOj4+Qo6urtba4u77BxMrM0NHV3N7i5evs7O3v7+/v7+/w8PHy8/Pz8/Pz8/T09PT19fX29vb29vf39/j4+Pj4+Pj5+/v7+/v7/V+IQqIAAAAJcEhZcwAAFxEAABcRAcom8z8AAAQtSURBVFhH7Zj5d9tEEIATJ7Ik65YsK/IRSilnuMpNuTG03AQDhYK5ylEHyllKKfcNXSdN6xZakkIxAf5OZlajvtRaOdfyeH2v30+2dma+tzuSnnZHznMuM7oSFLceqMLaoNzVQBmcwiqhcISqDIVCKbkwtozxDDSAUHySTbXy4DEYzTOTUkpKcRC6rihJYCpbwUMKrG9eMTU1te0OYJrzxCD33glcCUQqkDq5argHHRdffutt09PPsO9fAn5aBPpiTuEYBn3OPkTnVZdpGtrARB6qOsDmG7fvZLuhdL+/9M9a+AudL7/Idj14y6VoAk+e5qadr37w+5+Utz6WTn+5e9ftnqYWEw1VXsaOLzZmSFn65HFD14qKWMO+kWT5mtlmScPZiCyz+z86sOEV++r9gz8wDzQq9iarYQsLP8+9vZ+98+bi6X7/b8pbJf3+H4tvzbCDe2aPLyywsmcbOq5ZxjIKFs6xI909nc4hdmhmZuZduFdP0Y2b5TcYPQBRPzLW6bzRne9RBRaVXQsnM8SS8muv1zvc7Xa/6+TxGYzOQdRJykhhccW3DegM9J+qp2Qs64fVosAxdd5/qp4i09KYKLtCy6hUS/z/WgqyLdj9gXsM3sVS+xI4hpa9k+Va6hHcyWr2qZRrqVV8fCqzlsKYREs19CxB82EqMi35zZdpiQJ4wQjbMi7Rkt8WmZbQEz2TuGCKREvZyWuLTEt+W4oSLZ64LZItea/KMakWeInltEWVaLFzFkyuhRbsP7aIFowsT81T0EY5+qxowbhlvLjpkX3vzf9CkevlxJFP9z52EUwla0nuMc248OaHntvX/na2d4Jy1sLJ3ly3vfe1R7dtwa9XgQQnM66oJdPxwy3X3nVf63XGnm+/AN90h+Gb7hiVyXIcRuch6pV2m7GPW/fffc0lYQBfleKp0JJphuX6YRRX643Jyauvu77ZbD7QarWeZHk8DaMPN5v33LB1a6Neq8ZRpew7FrReOBW04GR0w3K8oFyJJuJqtVar1+uNBggnJy/gbOIkv/EqDDbq9VqtVq3GExEoAt/lewr4rBBZkskoqlYyLcf1/KAchpVKFE0AcQxKAKoR/C9cjmE0guqVMCyDwXMd2+T7I+F6AbhrBU1R00uGadmO63qe7/tBEJSBEKgsA/9DYSgdBBDleS4IbMs0Sjrf66FEZEk1SlFFkWGalmXZtu0ALuANgNdcHIQYiDRNAwyoGLZvBVADHphPUVU1Tdf1Ugl0KESg1DKSazgKQVBe12gPjpv9IRLSFPC0QuFnFHhSADoAqgjgQ1D7zHkCP7pIzi2opAgYPXMywo878CTirEMRLqbfQDKenI1gEimGSgAewk10CoPwImIogpdHknwqNowkEKDEFCpH0MUUSkGozCqghLOhghy6NABlrxXKXgEKPs85x8jIv6FnG3k+2K4LAAAAAElFTkSuQmCC;shadow=1;sketch=1;curveFitting=1;jiggle=2;" vertex="1" parent="QRdIB-d-0XUhI7obMMeW-62">
          <mxGeometry width="84.17" height="50" as="geometry" />
        </mxCell>
        <mxCell id="QRdIB-d-0XUhI7obMMeW-64" value="&lt;span style=&quot;font-size: 18px;&quot;&gt;LSP01O11A&lt;/span&gt;&lt;br&gt;&lt;div&gt;&lt;span style=&quot;font-size: 18px;&quot;&gt;MM: Material Documents (BF) (line item level) ( WO)&lt;/span&gt;&lt;br&gt;&lt;/div&gt;" style="strokeColor=#0070F2;shadow=1;strokeWidth=2;rounded=0;whiteSpace=wrap;html=1;sketch=1;hachureGap=4;jiggle=2;curveFitting=1;fontFamily=72, sans-serif;fontSource=https%3A%2F%2Ffonts.googleapis.com%2Fcss%3Ffamily%3DArchitects%2BDaughter;" vertex="1" parent="QRdIB-d-0XUhI7obMMeW-62">
          <mxGeometry x="14.429999999999836" y="47.82999999999993" width="248" height="92.17" as="geometry" />
        </mxCell>
        <mxCell id="QRdIB-d-0XUhI7obMMeW-65" value="" style="group" vertex="1" connectable="0" parent="1">
          <mxGeometry x="-2915" y="569.0000000000001" width="262.42999999999984" height="139.9999999999999" as="geometry" />
        </mxCell>
        <mxCell id="QRdIB-d-0XUhI7obMMeW-66" value="&lt;span style=&quot;font-size: 18px;&quot;&gt;LSP01O49&lt;/span&gt;&lt;br&gt;&lt;div&gt;&lt;span style=&quot;font-size: 18px;&quot;&gt;MM: Material Documents (BF) (line item level)&amp;nbsp;&lt;/span&gt;&lt;br&gt;&lt;/div&gt;" style="strokeColor=#0070F2;shadow=1;strokeWidth=2;rounded=0;whiteSpace=wrap;html=1;sketch=1;hachureGap=4;jiggle=2;curveFitting=1;fontFamily=72, sans-serif;fontSource=https%3A%2F%2Ffonts.googleapis.com%2Fcss%3Ffamily%3DArchitects%2BDaughter;" vertex="1" parent="QRdIB-d-0XUhI7obMMeW-65">
          <mxGeometry x="14.429999999999836" y="47.82999999999993" width="248" height="92.17" as="geometry" />
        </mxCell>
        <mxCell id="QRdIB-d-0XUhI7obMMeW-67" value="" style="shape=image;verticalLabelPosition=bottom;labelBackgroundColor=default;verticalAlign=top;aspect=fixed;imageAspect=0;image=data:image/png,iVBORw0KGgoAAAANSUhEUgAAAIYAAAA8CAMAAACU9jKwAAAAAXNSR0IArs4c6QAAAARnQU1BAACxjwv8YQUAAADPUExURQAAAAAAAAAAAAAAAAAAAAAAAAAAAAAAAAAAAAAAAAAAAAAAAAAAAAAAAAAAAAAAAAAAAAAAAAAAAAAAAAAAAAAAAAAAAAAAAAAAAAAAAAAAAAAAAAAAAAAAAAAAAAAAAAAAAP8NA/UQAPQPAPIPAP4AAP0KAv8zDP01DP8AAP8qA/4DAP8YBuFeAN1vAf8UAv8DAOpIAf8DAfYbAM2aAOZNAP8AAP8NA/8mCf9AEP9aFv9gAP9yHP+MIv+SJP+ZJf+mKf+/L//AAP/GMP/MMigenE8AAAA0dFJOUwABAgMEBQYHCAkKCwwNDg8QERITFBUWFxgZGhscHR4fIE60tbbQ3Ojv7/P09PX5+fr7+/yagY+BAAAACXBIWXMAABcRAAAXEQHKJvM/AAACm0lEQVRoQ+2Y2ZbTMAxAu2RztrpN0iXMTOl0gGEJazA7A7T//03YjuYcHiw3cBzx0vvaWLpHUtpaozNn/pXxIEDwfsCZgYAkp9DPTgZCB4dENsBhKvHcokKCCORC6SSUgS8JgEeiL0/hhAkZULloEUiHsHsL4Ybise+d9tg9ORwNfIMYPfgKR8wcbkUIHpDRwBixOH6GHD34AUeMHG5fChYG0sNSDtTi+BFynOYDnDAiLVqRMF0PVAO3+Ak5evAJjphQFq3IlAeugVs4Gg1t0QqexVHgYdNhsXAzGp1FKxZ5IjWQctgsnIwGWLSimKUsxDRsFi64t2hFyTN0OHYvvt8Nyr1FK6p5FiMa49fPhuXVG7DQGlhTxuLXsHx5DxZSg6dMjyjk/gNKjVJrGItBqVHM1Av73zUWOTKh8g8GoQb6otBqoBNKq4GPxmRKqJEnaE8oNSyjQalhGQ2PUMMyGpQalp74hBrI7xq1BvpNPvECQg1zT/Ro0Gk015aehFQazTXek6kfEWk0e/T/nxoNIo1mj94NtAYj0Whu5NXAXIxuQkk0pIVsifm+pkbDCyk0mht9a0SKQaWhagEWmAZBU95ZLUAjeg530MHYp0xbGFuiNdQLG2e8WK7ri8ur7fahI7bb7dXlRb1ZlQuulhoWi64cfsiSnBfVar2p6wfOqOvNerWUErlsCKx4EAvoSsjSnM+LsqqW7qiqsizmPJeliAK7he7K1A8ilqT5jPO5U/gsz9JElkI2xGoB5fCDMGJxkqaZS9I0SWImJXrsQuWnaimsRCKmiN2gY0XSQUmcKIVCeciCeLCaDl2ho/VeT4OHWtXDht0l/Zf12kOJdC4u0TFV9B4SCv2oRJ9zBgTtK6GAAwMACc6c+StGo9+HPd6fS8FEcwAAAABJRU5ErkJggg==;sketch=1;hachureGap=4;jiggle=2;curveFitting=1;fontFamily=Architects Daughter;fontSource=https%3A%2F%2Ffonts.googleapis.com%2Fcss%3Ffamily%3DArchitects%2BDaughter;" vertex="1" parent="QRdIB-d-0XUhI7obMMeW-65">
          <mxGeometry x="4" y="8.999999999999886" width="78.17" height="35" as="geometry" />
        </mxCell>
        <mxCell id="QRdIB-d-0XUhI7obMMeW-68" value="" style="group" vertex="1" connectable="0" parent="1">
          <mxGeometry x="-2907" y="758.0000000000001" width="262.43" height="140" as="geometry" />
        </mxCell>
        <mxCell id="QRdIB-d-0XUhI7obMMeW-69" value="&lt;span style=&quot;font-size: 18px;&quot;&gt;MM_2LIS_03_BF&lt;/span&gt;&lt;br&gt;&lt;div&gt;&lt;span style=&quot;background-color: initial; font-size: 18px;&quot;&gt;Material movements (as of 2.0B)&lt;/span&gt;&lt;span style=&quot;font-size: 18px;&quot;&gt;&amp;nbsp;&lt;/span&gt;&lt;br&gt;&lt;/div&gt;" style="strokeColor=#0070F2;shadow=1;strokeWidth=2;rounded=0;whiteSpace=wrap;html=1;sketch=1;hachureGap=4;jiggle=2;curveFitting=1;fontFamily=72, sans-serif;fontSource=https%3A%2F%2Ffonts.googleapis.com%2Fcss%3Ffamily%3DArchitects%2BDaughter;" vertex="1" parent="QRdIB-d-0XUhI7obMMeW-68">
          <mxGeometry x="14.43" y="50" width="248" height="90" as="geometry" />
        </mxCell>
        <mxCell id="QRdIB-d-0XUhI7obMMeW-70" value="" style="shape=image;verticalLabelPosition=bottom;labelBackgroundColor=default;verticalAlign=top;aspect=fixed;imageAspect=0;image=data:image/png,iVBORw0KGgoAAAANSUhEUgAAAIYAAAA8CAMAAACU9jKwAAAAAXNSR0IArs4c6QAAAARnQU1BAACxjwv8YQUAAADPUExURQAAAAAAAAAAAAAAAAAAAAAAAAAAAAAAAAAAAAAAAAAAAAAAAAAAAAAAAAAAAAAAAAAAAAAAAAAAAAAAAAAAAAAAAAAAAAAAAAAAAAAAAAAAAAAAAAAAAAAAAAAAAAAAAAAAAP8NA/UQAPQPAPIPAP4AAP0KAv8zDP01DP8AAP8qA/4DAP8YBuFeAN1vAf8UAv8DAOpIAf8DAfYbAM2aAOZNAP8AAP8NA/8mCf9AEP9aFv9gAP9yHP+MIv+SJP+ZJf+mKf+/L//AAP/GMP/MMigenE8AAAA0dFJOUwABAgMEBQYHCAkKCwwNDg8QERITFBUWFxgZGhscHR4fIE60tbbQ3Ojv7/P09PX5+fr7+/yagY+BAAAACXBIWXMAABcRAAAXEQHKJvM/AAACm0lEQVRoQ+2Y2ZbTMAxAu2RztrpN0iXMTOl0gGEJazA7A7T//03YjuYcHiw3cBzx0vvaWLpHUtpaozNn/pXxIEDwfsCZgYAkp9DPTgZCB4dENsBhKvHcokKCCORC6SSUgS8JgEeiL0/hhAkZULloEUiHsHsL4Ybise+d9tg9ORwNfIMYPfgKR8wcbkUIHpDRwBixOH6GHD34AUeMHG5fChYG0sNSDtTi+BFynOYDnDAiLVqRMF0PVAO3+Ak5evAJjphQFq3IlAeugVs4Gg1t0QqexVHgYdNhsXAzGp1FKxZ5IjWQctgsnIwGWLSimKUsxDRsFi64t2hFyTN0OHYvvt8Nyr1FK6p5FiMa49fPhuXVG7DQGlhTxuLXsHx5DxZSg6dMjyjk/gNKjVJrGItBqVHM1Av73zUWOTKh8g8GoQb6otBqoBNKq4GPxmRKqJEnaE8oNSyjQalhGQ2PUMMyGpQalp74hBrI7xq1BvpNPvECQg1zT/Ro0Gk015aehFQazTXek6kfEWk0e/T/nxoNIo1mj94NtAYj0Whu5NXAXIxuQkk0pIVsifm+pkbDCyk0mht9a0SKQaWhagEWmAZBU95ZLUAjeg530MHYp0xbGFuiNdQLG2e8WK7ri8ur7fahI7bb7dXlRb1ZlQuulhoWi64cfsiSnBfVar2p6wfOqOvNerWUErlsCKx4EAvoSsjSnM+LsqqW7qiqsizmPJeliAK7he7K1A8ilqT5jPO5U/gsz9JElkI2xGoB5fCDMGJxkqaZS9I0SWImJXrsQuWnaimsRCKmiN2gY0XSQUmcKIVCeciCeLCaDl2ho/VeT4OHWtXDht0l/Zf12kOJdC4u0TFV9B4SCv2oRJ9zBgTtK6GAAwMACc6c+StGo9+HPd6fS8FEcwAAAABJRU5ErkJggg==;sketch=1;hachureGap=4;jiggle=2;curveFitting=1;fontFamily=Architects Daughter;fontSource=https%3A%2F%2Ffonts.googleapis.com%2Fcss%3Ffamily%3DArchitects%2BDaughter;" vertex="1" parent="QRdIB-d-0XUhI7obMMeW-68">
          <mxGeometry x="4" y="8.999999999999886" width="78.17" height="35" as="geometry" />
        </mxCell>
        <mxCell id="QRdIB-d-0XUhI7obMMeW-71" value="" style="shape=image;verticalLabelPosition=bottom;labelBackgroundColor=default;verticalAlign=top;aspect=fixed;imageAspect=0;image=data:image/png,iVBORw0KGgoAAAANSUhEUgAAAEcAAAA9CAMAAADI14SKAAAAAXNSR0IArs4c6QAAAARnQU1BAACxjwv8YQUAAAGVUExURQAAAAAAAAAAAAAAAAAAAAAAAAAAAAAAAAAAAAAAAAAAAAAAAAAAAAAAAAAAAAAAAAAAAAAAAAAAAAAAAAAAAAAAAAAAAAAAAAAAAAAAAAAAAAAAAAAAAAAAAAAAAAAAAAAAAAAAAAAAAAAAAAAAAAAAAAAAAAAAAAAAAAAAAAAAAAAAAAAAAAAAAAAAAAAAAAAAAAAAAAAAAAAAAAAAAAAAAAAAAAAAAAAAAAAAAAAAAAAAAAAAAAAAAAAAAAcKBQAAAAcJBQAAAAcJBQcJBAcJBAYJBAYJBAYIBAQGAgYHBAQFAgQFAgQFAgMFAgcKAwMFAgcKAwcKAwYKAwYHAwQHAwQHAwQHAwQHAwcLBAoOBgoOBgoOBgYJBAYJBAYJBAYIAwYIAwECAQgLBAoOBQUHAwEBARUeDCQzEwcKBAwRBjJIGxYgDQgMBSo7FwkMBQ0UBxchDCU1FUZkJgUHAwoOBT5YIgEBAAYIAwoPBjVLHQMEAgAAAFuCMmCINGmVOXKiPnepQYC2RoS8SInDS43JTZLQUG9xMO4AAAB8dFJOUwABAgMEBQYHCAkKCwwNDg8QERITFBUWFxgZGhscHR4fICEiIyQlJicpKywtLzAxMjQ1NjpKS0xNTlBTWV9ka2tubm9xc3V3eIOLi42PkZSUlZiZoauusLGysrW2t8nKy97f4evv8PHx8fPz8/T19fb29vb3+Pj4+fn5+fzzdlIsAAAACXBIWXMAABcRAAAXEQHKJvM/AAAEeElEQVRYR+2W6ZvaVBTGJ2xJICSQjQBhCQzjWutS61qr1nHXutW6tY5WBTrV6dSt1juOjHD/7p5z7wWSQEKfx0/69P0wA/c9/M7NyV3O1n39HyRJkvj0LwQQLvE9JmGCxMCKTuEfEcPFhiOSAmGhxFhcPwAI3MxcayKl4NuFnwgi41MMk+VajZSk4BpJtucix+PHJAjL5fKgHA8VHgoxR4TbObQTQIQef/cUYPIFWZYLBSBFQJLUu3ZEST5fQMXdkAilk/EZoCiqqiqKHAmF3Ke/P6KUyApKZqD1EwIOnfx4VlaLJU0rFVW5sAQhZvwXBBBwS2AqAsR+GRVy6OTg2VJZNwy9XIJYnhOVOT0+Rp9oZZBW4lmSOQB6waiaZrWia0UGYqQ5hhKjUqkYzMuncujk9ku249hW1ZiDQHMMJaZlWWZFhwklcCTBoSfXX/M8z7URhMXOZrJnfhEYShzXdWyTW+kcenJzt9ms1xyIxjLkck8f/C0sSrw6OFalfA8cAL3ebjU8p6ojKH/2YCIM4Pg+pLCTOVKIA6D3u+2mZwOoqDwTwlDSxgx2FTlr6xPhAOiDoN2sIejFMIaSgCe4Rw7958aHHPTKr2EMJf2g43vwXKq8fv1ImQiHTg8/ClqN2oWbJ2KAi2z3GEdT2ToUP14KllqUA6BPuq3dGIaSQb/j1yyjBEtr/WPFOQC6/EYcwzjNmqmXlKTyrHDo9I8/4xhKdnqdhptS5kx2hfPz3pV98XEhMui1605aeVY4v+09/tCVn2bimxAZBC3PNrTk8sQ5d/ae2Nl+8MtbURDZ7kKZ08qTi3LufPPkA4Ne0PkiCiJQZtdMK0+Us/81YPrdTqv1+SgMIhvLkw9z9q8+CrPptv1mo3FpNBWjIMLKk7J6wpwZYHa2g06rUfdqXv3S4RJENpansODMbl19ZNCH7QUnjW07rndxCSKbVs+SMxt99TDsIjyALLNarVqOd/HGHERa9dTNlc3JgjMbfdbvBW2/jierXi7rFdPx3hsKEPG91M2VzQvObHQ5gMo0YTJwZZSKxVLZYCC+RUjDNfXks2fBmY0+7XRaPhydpoFXmKKoRQ1Bb/MtS1LPHihzXkHO9PBj3/cbnmuxIxWuebimGajOjxDiWmxTrCvPkjMdvlvHd22bFZgMXuLQXRQ4yNu9DiACR20x4a0vONPhO26t5jpwB5ZhMnh3gXIAwhrVXgUQYZdRGkcm0+FbpmXDTcrvZNZvgOYg23n59oTARJMea17n4ZtGpVrF25u3AZgULPAYqGKa5w5Iyo3MOLAOz0OnoevQTPBn4h3CAqSVDcN4/ndx6Sdz8ucUFVobaG6WXRIEMxAWW4WuSNOew86HeeK3YbGcOXjDrBNjlFAoZoEZQZtWLKrsJSZMh+XE/hEbQ/ay+TMJV6Th7mKqwouKRUIoa1RjFJ6G5WF2cqMqIlnLyzrjeCAHoY2UZAyLRBIXfhHjQnN7XZKoMBJj+X8xGBIbXp8kJhbJJAaiEh5KjCRqU9Am/77+G9raugtzRbokQ2TNnQAAAABJRU5ErkJggg==;shadow=1;sketch=1;curveFitting=1;jiggle=2;" vertex="1" parent="QRdIB-d-0XUhI7obMMeW-68">
          <mxGeometry x="95.71000000000004" y="-27.000000000000114" width="71" height="61" as="geometry" />
        </mxCell>
        <mxCell id="QRdIB-d-0XUhI7obMMeW-72" style="rounded=0;hachureGap=4;orthogonalLoop=1;jettySize=auto;html=1;entryX=0.439;entryY=1.067;entryDx=0;entryDy=0;fontFamily=Architects Daughter;fontSource=https%3A%2F%2Ffonts.googleapis.com%2Fcss%3Ffamily%3DArchitects%2BDaughter;flowAnimation=1;dashed=1;strokeWidth=2;exitX=0.487;exitY=0.047;exitDx=0;exitDy=0;exitPerimeter=0;entryPerimeter=0;" edge="1" parent="1">
          <mxGeometry relative="1" as="geometry">
            <mxPoint x="-2783.1540000000005" y="822.6419900000001" as="sourcePoint" />
            <mxPoint x="-2784.4160700000007" y="712" as="targetPoint" />
          </mxGeometry>
        </mxCell>
        <mxCell id="QRdIB-d-0XUhI7obMMeW-73" style="rounded=0;hachureGap=4;orthogonalLoop=1;jettySize=auto;html=1;fontFamily=Architects Daughter;fontSource=https%3A%2F%2Ffonts.googleapis.com%2Fcss%3Ffamily%3DArchitects%2BDaughter;flowAnimation=1;dashed=1;strokeWidth=2;exitX=0.5;exitY=0;exitDx=0;exitDy=0;entryX=0.5;entryY=1;entryDx=0;entryDy=0;" edge="1" parent="1" target="QRdIB-d-0XUhI7obMMeW-56">
          <mxGeometry relative="1" as="geometry">
            <mxPoint x="-2789.82" y="613.4599999999999" as="sourcePoint" />
            <mxPoint x="-3042.9960000000005" y="475.9986800000005" as="targetPoint" />
          </mxGeometry>
        </mxCell>
        <mxCell id="QRdIB-d-0XUhI7obMMeW-74" style="rounded=0;hachureGap=4;orthogonalLoop=1;jettySize=auto;html=1;entryX=0.526;entryY=0.989;entryDx=0;entryDy=0;fontFamily=Architects Daughter;fontSource=https%3A%2F%2Ffonts.googleapis.com%2Fcss%3Ffamily%3DArchitects%2BDaughter;flowAnimation=1;dashed=1;strokeWidth=2;exitX=0.458;exitY=-0.031;exitDx=0;exitDy=0;exitPerimeter=0;entryPerimeter=0;" edge="1" parent="1" source="QRdIB-d-0XUhI7obMMeW-66" target="QRdIB-d-0XUhI7obMMeW-64">
          <mxGeometry relative="1" as="geometry">
            <mxPoint x="-2779.7340000000004" y="612.0019900000001" as="sourcePoint" />
            <mxPoint x="-2780.9960700000006" y="501.36" as="targetPoint" />
          </mxGeometry>
        </mxCell>
        <mxCell id="QRdIB-d-0XUhI7obMMeW-75" value="" style="shape=image;verticalLabelPosition=bottom;labelBackgroundColor=default;verticalAlign=top;aspect=fixed;imageAspect=0;image=data:image/png,iVBORw0KGgoAAAANSUhEUgAAAEcAAAA9CAMAAADI14SKAAAAAXNSR0IArs4c6QAAAARnQU1BAACxjwv8YQUAAAGVUExURQAAAAAAAAAAAAAAAAAAAAAAAAAAAAAAAAAAAAAAAAAAAAAAAAAAAAAAAAAAAAAAAAAAAAAAAAAAAAAAAAAAAAAAAAAAAAAAAAAAAAAAAAAAAAAAAAAAAAAAAAAAAAAAAAAAAAAAAAAAAAAAAAAAAAAAAAAAAAAAAAAAAAAAAAAAAAAAAAAAAAAAAAAAAAAAAAAAAAAAAAAAAAAAAAAAAAAAAAAAAAAAAAAAAAAAAAAAAAAAAAAAAAAAAAAAAAcKBQAAAAcJBQAAAAcJBQcJBAcJBAYJBAYJBAYIBAQGAgYHBAQFAgQFAgQFAgMFAgcKAwMFAgcKAwcKAwYKAwYHAwQHAwQHAwQHAwQHAwcLBAoOBgoOBgoOBgYJBAYJBAYJBAYIAwYIAwECAQgLBAoOBQUHAwEBARUeDCQzEwcKBAwRBjJIGxYgDQgMBSo7FwkMBQ0UBxchDCU1FUZkJgUHAwoOBT5YIgEBAAYIAwoPBjVLHQMEAgAAAFuCMmCINGmVOXKiPnepQYC2RoS8SInDS43JTZLQUG9xMO4AAAB8dFJOUwABAgMEBQYHCAkKCwwNDg8QERITFBUWFxgZGhscHR4fICEiIyQlJicpKywtLzAxMjQ1NjpKS0xNTlBTWV9ka2tubm9xc3V3eIOLi42PkZSUlZiZoauusLGysrW2t8nKy97f4evv8PHx8fPz8/T19fb29vb3+Pj4+fn5+fzzdlIsAAAACXBIWXMAABcRAAAXEQHKJvM/AAAEeElEQVRYR+2W6ZvaVBTGJ2xJICSQjQBhCQzjWutS61qr1nHXutW6tY5WBTrV6dSt1juOjHD/7p5z7wWSQEKfx0/69P0wA/c9/M7NyV3O1n39HyRJkvj0LwQQLvE9JmGCxMCKTuEfEcPFhiOSAmGhxFhcPwAI3MxcayKl4NuFnwgi41MMk+VajZSk4BpJtucix+PHJAjL5fKgHA8VHgoxR4TbObQTQIQef/cUYPIFWZYLBSBFQJLUu3ZEST5fQMXdkAilk/EZoCiqqiqKHAmF3Ke/P6KUyApKZqD1EwIOnfx4VlaLJU0rFVW5sAQhZvwXBBBwS2AqAsR+GRVy6OTg2VJZNwy9XIJYnhOVOT0+Rp9oZZBW4lmSOQB6waiaZrWia0UGYqQ5hhKjUqkYzMuncujk9ku249hW1ZiDQHMMJaZlWWZFhwklcCTBoSfXX/M8z7URhMXOZrJnfhEYShzXdWyTW+kcenJzt9ms1xyIxjLkck8f/C0sSrw6OFalfA8cAL3ebjU8p6ojKH/2YCIM4Pg+pLCTOVKIA6D3u+2mZwOoqDwTwlDSxgx2FTlr6xPhAOiDoN2sIejFMIaSgCe4Rw7958aHHPTKr2EMJf2g43vwXKq8fv1ImQiHTg8/ClqN2oWbJ2KAi2z3GEdT2ToUP14KllqUA6BPuq3dGIaSQb/j1yyjBEtr/WPFOQC6/EYcwzjNmqmXlKTyrHDo9I8/4xhKdnqdhptS5kx2hfPz3pV98XEhMui1605aeVY4v+09/tCVn2bimxAZBC3PNrTk8sQ5d/ae2Nl+8MtbURDZ7kKZ08qTi3LufPPkA4Ne0PkiCiJQZtdMK0+Us/81YPrdTqv1+SgMIhvLkw9z9q8+CrPptv1mo3FpNBWjIMLKk7J6wpwZYHa2g06rUfdqXv3S4RJENpansODMbl19ZNCH7QUnjW07rndxCSKbVs+SMxt99TDsIjyALLNarVqOd/HGHERa9dTNlc3JgjMbfdbvBW2/jierXi7rFdPx3hsKEPG91M2VzQvObHQ5gMo0YTJwZZSKxVLZYCC+RUjDNfXks2fBmY0+7XRaPhydpoFXmKKoRQ1Bb/MtS1LPHihzXkHO9PBj3/cbnmuxIxWuebimGajOjxDiWmxTrCvPkjMdvlvHd22bFZgMXuLQXRQ4yNu9DiACR20x4a0vONPhO26t5jpwB5ZhMnh3gXIAwhrVXgUQYZdRGkcm0+FbpmXDTcrvZNZvgOYg23n59oTARJMea17n4ZtGpVrF25u3AZgULPAYqGKa5w5Iyo3MOLAOz0OnoevQTPBn4h3CAqSVDcN4/ndx6Sdz8ucUFVobaG6WXRIEMxAWW4WuSNOew86HeeK3YbGcOXjDrBNjlFAoZoEZQZtWLKrsJSZMh+XE/hEbQ/ay+TMJV6Th7mKqwouKRUIoa1RjFJ6G5WF2cqMqIlnLyzrjeCAHoY2UZAyLRBIXfhHjQnN7XZKoMBJj+X8xGBIbXp8kJhbJJAaiEh5KjCRqU9Am/77+G9raugtzRbokQ2TNnQAAAABJRU5ErkJggg==;shadow=1;sketch=1;curveFitting=1;jiggle=2;" vertex="1" parent="1">
          <mxGeometry x="-3109" y="490" width="71" height="61" as="geometry" />
        </mxCell>
        <mxCell id="QRdIB-d-0XUhI7obMMeW-76" value="" style="group" vertex="1" connectable="0" parent="1">
          <mxGeometry x="-2738" y="115.00000000000011" width="262.42999999999984" height="139.9999999999999" as="geometry" />
        </mxCell>
        <mxCell id="QRdIB-d-0XUhI7obMMeW-77" value="&lt;span style=&quot;font-size: 18px;&quot;&gt;LSPS4O11_O&lt;/span&gt;&lt;br&gt;&lt;div&gt;&lt;span style=&quot;font-size: 18px;&quot;&gt;MM: Material Document - Outbound&lt;/span&gt;&lt;br&gt;&lt;/div&gt;" style="strokeColor=#0070F2;shadow=1;strokeWidth=2;rounded=0;whiteSpace=wrap;html=1;sketch=1;hachureGap=4;jiggle=2;curveFitting=1;fontFamily=72, sans-serif;fontSource=https%3A%2F%2Ffonts.googleapis.com%2Fcss%3Ffamily%3DArchitects%2BDaughter;" vertex="1" parent="QRdIB-d-0XUhI7obMMeW-76">
          <mxGeometry x="14.429999999999836" y="47.82999999999993" width="248" height="92.17" as="geometry" />
        </mxCell>
        <mxCell id="QRdIB-d-0XUhI7obMMeW-78" value="" style="shape=image;verticalLabelPosition=bottom;labelBackgroundColor=default;verticalAlign=top;aspect=fixed;imageAspect=0;image=data:image/png,iVBORw0KGgoAAAANSUhEUgAAAIYAAAA8CAMAAACU9jKwAAAAAXNSR0IArs4c6QAAAARnQU1BAACxjwv8YQUAAADPUExURQAAAAAAAAAAAAAAAAAAAAAAAAAAAAAAAAAAAAAAAAAAAAAAAAAAAAAAAAAAAAAAAAAAAAAAAAAAAAAAAAAAAAAAAAAAAAAAAAAAAAAAAAAAAAAAAAAAAAAAAAAAAAAAAAAAAP8NA/UQAPQPAPIPAP4AAP0KAv8zDP01DP8AAP8qA/4DAP8YBuFeAN1vAf8UAv8DAOpIAf8DAfYbAM2aAOZNAP8AAP8NA/8mCf9AEP9aFv9gAP9yHP+MIv+SJP+ZJf+mKf+/L//AAP/GMP/MMigenE8AAAA0dFJOUwABAgMEBQYHCAkKCwwNDg8QERITFBUWFxgZGhscHR4fIE60tbbQ3Ojv7/P09PX5+fr7+/yagY+BAAAACXBIWXMAABcRAAAXEQHKJvM/AAACm0lEQVRoQ+2Y2ZbTMAxAu2RztrpN0iXMTOl0gGEJazA7A7T//03YjuYcHiw3cBzx0vvaWLpHUtpaozNn/pXxIEDwfsCZgYAkp9DPTgZCB4dENsBhKvHcokKCCORC6SSUgS8JgEeiL0/hhAkZULloEUiHsHsL4Ybise+d9tg9ORwNfIMYPfgKR8wcbkUIHpDRwBixOH6GHD34AUeMHG5fChYG0sNSDtTi+BFynOYDnDAiLVqRMF0PVAO3+Ak5evAJjphQFq3IlAeugVs4Gg1t0QqexVHgYdNhsXAzGp1FKxZ5IjWQctgsnIwGWLSimKUsxDRsFi64t2hFyTN0OHYvvt8Nyr1FK6p5FiMa49fPhuXVG7DQGlhTxuLXsHx5DxZSg6dMjyjk/gNKjVJrGItBqVHM1Av73zUWOTKh8g8GoQb6otBqoBNKq4GPxmRKqJEnaE8oNSyjQalhGQ2PUMMyGpQalp74hBrI7xq1BvpNPvECQg1zT/Ro0Gk015aehFQazTXek6kfEWk0e/T/nxoNIo1mj94NtAYj0Whu5NXAXIxuQkk0pIVsifm+pkbDCyk0mht9a0SKQaWhagEWmAZBU95ZLUAjeg530MHYp0xbGFuiNdQLG2e8WK7ri8ur7fahI7bb7dXlRb1ZlQuulhoWi64cfsiSnBfVar2p6wfOqOvNerWUErlsCKx4EAvoSsjSnM+LsqqW7qiqsizmPJeliAK7he7K1A8ilqT5jPO5U/gsz9JElkI2xGoB5fCDMGJxkqaZS9I0SWImJXrsQuWnaimsRCKmiN2gY0XSQUmcKIVCeciCeLCaDl2ho/VeT4OHWtXDht0l/Zf12kOJdC4u0TFV9B4SCv2oRJ9zBgTtK6GAAwMACc6c+StGo9+HPd6fS8FEcwAAAABJRU5ErkJggg==;sketch=1;hachureGap=4;jiggle=2;curveFitting=1;fontFamily=Architects Daughter;fontSource=https%3A%2F%2Ffonts.googleapis.com%2Fcss%3Ffamily%3DArchitects%2BDaughter;" vertex="1" parent="QRdIB-d-0XUhI7obMMeW-76">
          <mxGeometry x="4" y="8.999999999999886" width="78.17" height="35" as="geometry" />
        </mxCell>
        <mxCell id="QRdIB-d-0XUhI7obMMeW-79" value="" style="group" vertex="1" connectable="0" parent="1">
          <mxGeometry x="-2743" y="-151.9999999999999" width="262.42999999999984" height="139.9999999999999" as="geometry" />
        </mxCell>
        <mxCell id="QRdIB-d-0XUhI7obMMeW-80" value="&lt;span style=&quot;font-size: 18px;&quot;&gt;MM_ODOC1_I&lt;/span&gt;&lt;br&gt;&lt;div&gt;&lt;span style=&quot;font-size: 18px;&quot;&gt;MM: Material Document - Inbound&amp;nbsp;&lt;/span&gt;&lt;br&gt;&lt;/div&gt;" style="strokeColor=#0070F2;shadow=1;strokeWidth=2;rounded=0;whiteSpace=wrap;html=1;sketch=1;hachureGap=4;jiggle=2;curveFitting=1;fontFamily=72, sans-serif;fontSource=https%3A%2F%2Ffonts.googleapis.com%2Fcss%3Ffamily%3DArchitects%2BDaughter;" vertex="1" parent="QRdIB-d-0XUhI7obMMeW-79">
          <mxGeometry x="14.429999999999836" y="47.82999999999993" width="248" height="92.17" as="geometry" />
        </mxCell>
        <mxCell id="QRdIB-d-0XUhI7obMMeW-81" value="" style="shape=image;verticalLabelPosition=bottom;labelBackgroundColor=default;verticalAlign=top;aspect=fixed;imageAspect=0;image=data:image/png,iVBORw0KGgoAAAANSUhEUgAAAIYAAAA8CAMAAACU9jKwAAAAAXNSR0IArs4c6QAAAARnQU1BAACxjwv8YQUAAADPUExURQAAAAAAAAAAAAAAAAAAAAAAAAAAAAAAAAAAAAAAAAAAAAAAAAAAAAAAAAAAAAAAAAAAAAAAAAAAAAAAAAAAAAAAAAAAAAAAAAAAAAAAAAAAAAAAAAAAAAAAAAAAAAAAAAAAAP8NA/UQAPQPAPIPAP4AAP0KAv8zDP01DP8AAP8qA/4DAP8YBuFeAN1vAf8UAv8DAOpIAf8DAfYbAM2aAOZNAP8AAP8NA/8mCf9AEP9aFv9gAP9yHP+MIv+SJP+ZJf+mKf+/L//AAP/GMP/MMigenE8AAAA0dFJOUwABAgMEBQYHCAkKCwwNDg8QERITFBUWFxgZGhscHR4fIE60tbbQ3Ojv7/P09PX5+fr7+/yagY+BAAAACXBIWXMAABcRAAAXEQHKJvM/AAACm0lEQVRoQ+2Y2ZbTMAxAu2RztrpN0iXMTOl0gGEJazA7A7T//03YjuYcHiw3cBzx0vvaWLpHUtpaozNn/pXxIEDwfsCZgYAkp9DPTgZCB4dENsBhKvHcokKCCORC6SSUgS8JgEeiL0/hhAkZULloEUiHsHsL4Ybise+d9tg9ORwNfIMYPfgKR8wcbkUIHpDRwBixOH6GHD34AUeMHG5fChYG0sNSDtTi+BFynOYDnDAiLVqRMF0PVAO3+Ak5evAJjphQFq3IlAeugVs4Gg1t0QqexVHgYdNhsXAzGp1FKxZ5IjWQctgsnIwGWLSimKUsxDRsFi64t2hFyTN0OHYvvt8Nyr1FK6p5FiMa49fPhuXVG7DQGlhTxuLXsHx5DxZSg6dMjyjk/gNKjVJrGItBqVHM1Av73zUWOTKh8g8GoQb6otBqoBNKq4GPxmRKqJEnaE8oNSyjQalhGQ2PUMMyGpQalp74hBrI7xq1BvpNPvECQg1zT/Ro0Gk015aehFQazTXek6kfEWk0e/T/nxoNIo1mj94NtAYj0Whu5NXAXIxuQkk0pIVsifm+pkbDCyk0mht9a0SKQaWhagEWmAZBU95ZLUAjeg530MHYp0xbGFuiNdQLG2e8WK7ri8ur7fahI7bb7dXlRb1ZlQuulhoWi64cfsiSnBfVar2p6wfOqOvNerWUErlsCKx4EAvoSsjSnM+LsqqW7qiqsizmPJeliAK7he7K1A8ilqT5jPO5U/gsz9JElkI2xGoB5fCDMGJxkqaZS9I0SWImJXrsQuWnaimsRCKmiN2gY0XSQUmcKIVCeciCeLCaDl2ho/VeT4OHWtXDht0l/Zf12kOJdC4u0TFV9B4SCv2oRJ9zBgTtK6GAAwMACc6c+StGo9+HPd6fS8FEcwAAAABJRU5ErkJggg==;sketch=1;hachureGap=4;jiggle=2;curveFitting=1;fontFamily=Architects Daughter;fontSource=https%3A%2F%2Ffonts.googleapis.com%2Fcss%3Ffamily%3DArchitects%2BDaughter;" vertex="1" parent="QRdIB-d-0XUhI7obMMeW-79">
          <mxGeometry x="4" y="8.999999999999886" width="78.17" height="35" as="geometry" />
        </mxCell>
        <mxCell id="QRdIB-d-0XUhI7obMMeW-82" value="" style="shape=image;verticalLabelPosition=bottom;labelBackgroundColor=default;verticalAlign=top;aspect=fixed;imageAspect=0;image=data:image/png,iVBORw0KGgoAAAANSUhEUgAAAEcAAAA9CAMAAADI14SKAAAAAXNSR0IArs4c6QAAAARnQU1BAACxjwv8YQUAAAGVUExURQAAAAAAAAAAAAAAAAAAAAAAAAAAAAAAAAAAAAAAAAAAAAAAAAAAAAAAAAAAAAAAAAAAAAAAAAAAAAAAAAAAAAAAAAAAAAAAAAAAAAAAAAAAAAAAAAAAAAAAAAAAAAAAAAAAAAAAAAAAAAAAAAAAAAAAAAAAAAAAAAAAAAAAAAAAAAAAAAAAAAAAAAAAAAAAAAAAAAAAAAAAAAAAAAAAAAAAAAAAAAAAAAAAAAAAAAAAAAAAAAAAAAAAAAAAAAcKBQAAAAcJBQAAAAcJBQcJBAcJBAYJBAYJBAYIBAQGAgYHBAQFAgQFAgQFAgMFAgcKAwMFAgcKAwcKAwYKAwYHAwQHAwQHAwQHAwQHAwcLBAoOBgoOBgoOBgYJBAYJBAYJBAYIAwYIAwECAQgLBAoOBQUHAwEBARUeDCQzEwcKBAwRBjJIGxYgDQgMBSo7FwkMBQ0UBxchDCU1FUZkJgUHAwoOBT5YIgEBAAYIAwoPBjVLHQMEAgAAAFuCMmCINGmVOXKiPnepQYC2RoS8SInDS43JTZLQUG9xMO4AAAB8dFJOUwABAgMEBQYHCAkKCwwNDg8QERITFBUWFxgZGhscHR4fICEiIyQlJicpKywtLzAxMjQ1NjpKS0xNTlBTWV9ka2tubm9xc3V3eIOLi42PkZSUlZiZoauusLGysrW2t8nKy97f4evv8PHx8fPz8/T19fb29vb3+Pj4+fn5+fzzdlIsAAAACXBIWXMAABcRAAAXEQHKJvM/AAAEeElEQVRYR+2W6ZvaVBTGJ2xJICSQjQBhCQzjWutS61qr1nHXutW6tY5WBTrV6dSt1juOjHD/7p5z7wWSQEKfx0/69P0wA/c9/M7NyV3O1n39HyRJkvj0LwQQLvE9JmGCxMCKTuEfEcPFhiOSAmGhxFhcPwAI3MxcayKl4NuFnwgi41MMk+VajZSk4BpJtucix+PHJAjL5fKgHA8VHgoxR4TbObQTQIQef/cUYPIFWZYLBSBFQJLUu3ZEST5fQMXdkAilk/EZoCiqqiqKHAmF3Ke/P6KUyApKZqD1EwIOnfx4VlaLJU0rFVW5sAQhZvwXBBBwS2AqAsR+GRVy6OTg2VJZNwy9XIJYnhOVOT0+Rp9oZZBW4lmSOQB6waiaZrWia0UGYqQ5hhKjUqkYzMuncujk9ku249hW1ZiDQHMMJaZlWWZFhwklcCTBoSfXX/M8z7URhMXOZrJnfhEYShzXdWyTW+kcenJzt9ms1xyIxjLkck8f/C0sSrw6OFalfA8cAL3ebjU8p6ojKH/2YCIM4Pg+pLCTOVKIA6D3u+2mZwOoqDwTwlDSxgx2FTlr6xPhAOiDoN2sIejFMIaSgCe4Rw7958aHHPTKr2EMJf2g43vwXKq8fv1ImQiHTg8/ClqN2oWbJ2KAi2z3GEdT2ToUP14KllqUA6BPuq3dGIaSQb/j1yyjBEtr/WPFOQC6/EYcwzjNmqmXlKTyrHDo9I8/4xhKdnqdhptS5kx2hfPz3pV98XEhMui1605aeVY4v+09/tCVn2bimxAZBC3PNrTk8sQ5d/ae2Nl+8MtbURDZ7kKZ08qTi3LufPPkA4Ne0PkiCiJQZtdMK0+Us/81YPrdTqv1+SgMIhvLkw9z9q8+CrPptv1mo3FpNBWjIMLKk7J6wpwZYHa2g06rUfdqXv3S4RJENpansODMbl19ZNCH7QUnjW07rndxCSKbVs+SMxt99TDsIjyALLNarVqOd/HGHERa9dTNlc3JgjMbfdbvBW2/jierXi7rFdPx3hsKEPG91M2VzQvObHQ5gMo0YTJwZZSKxVLZYCC+RUjDNfXks2fBmY0+7XRaPhydpoFXmKKoRQ1Bb/MtS1LPHihzXkHO9PBj3/cbnmuxIxWuebimGajOjxDiWmxTrCvPkjMdvlvHd22bFZgMXuLQXRQ4yNu9DiACR20x4a0vONPhO26t5jpwB5ZhMnh3gXIAwhrVXgUQYZdRGkcm0+FbpmXDTcrvZNZvgOYg23n59oTARJMea17n4ZtGpVrF25u3AZgULPAYqGKa5w5Iyo3MOLAOz0OnoevQTPBn4h3CAqSVDcN4/ndx6Sdz8ucUFVobaG6WXRIEMxAWW4WuSNOew86HeeK3YbGcOXjDrBNjlFAoZoEZQZtWLKrsJSZMh+XE/hEbQ/ay+TMJV6Th7mKqwouKRUIoa1RjFJ6G5WF2cqMqIlnLyzrjeCAHoY2UZAyLRBIXfhHjQnN7XZKoMBJj+X8xGBIbXp8kJhbJJAaiEh5KjCRqU9Am/77+G9raugtzRbokQ2TNnQAAAABJRU5ErkJggg==;shadow=1;sketch=1;curveFitting=1;jiggle=2;" vertex="1" parent="1">
          <mxGeometry x="-2652.57" y="-291" width="71" height="61" as="geometry" />
        </mxCell>
        <mxCell id="QRdIB-d-0XUhI7obMMeW-83" value="" style="group" vertex="1" connectable="0" parent="1">
          <mxGeometry x="-2764" y="-549" width="294" height="114.5" as="geometry" />
        </mxCell>
        <mxCell id="QRdIB-d-0XUhI7obMMeW-84" value="" style="shape=image;verticalLabelPosition=bottom;labelBackgroundColor=default;verticalAlign=top;aspect=fixed;imageAspect=0;image=data:image/png,iVBORw0KGgoAAAANSUhEUgAAAGUAAAA8CAMAAABII4TCAAAAAXNSR0IArs4c6QAAAARnQU1BAACxjwv8YQUAAAH1UExURQAAAAAAAAAAAAAAAAAAAAAAAAAAAAAAAAAAAAAAAAAAAAAAAAAAAAAAAAAAAAAAAAAAAAAAAAAAAAAAAAAAAAAAAAAAAAAAAAAAAAAAAAAAAAAAAAAAAAAAAAAAAAAAAAAAAAAAAAAAAAAAAAAAAAAAAAAAAAAAAAAAAAAAAAAAAAAAAAAAAAAAAAAAAAAAAAAAAAAAAAAAAAAAAAAAAAAAAAAAAAAAAAAAAAAAAAAAAAAAAAQICAAAAAAAAAAAAAAAAAAAAAIFBwAAAAAICwAKDQcPEggPEgALDwgPEgAOEgANEQANEgANEgAOEwkTFwkQFAkQFAANEgANEQAKDwALEAYMDgULDQAJDAULDQAJDAAeKQAjMAAqOREjKhQqMRkxOgAwQQ4dIgwWGgAHCQAHCQYzQwY6TAcoMxQsNBs6RB9BTgAPFAVAVREmLSRJVgBEXQ4fJShQXwAKDQMGBwUYHgsaHydRXwAFBwUTGC5fcQBKZgNMZgQHCShSYStYaCtYaS5fcChSYQBRcAFScAIDBAJdfgQJDDBhcgIFBgAAAABYeABjhwBojgBulgBznQB5pQB+rACEtACJuwCPwwCUygCa0gCf2QCl4QCq6ACw8DNoezZugjl1ikCCmUOIoUaPqUycuFavz1m212DD52PJ7mbQ9laT9xQAAACKdFJOUwABAgMEBQYHCAkKCwwNDg8QERITFBUWFxgZGhscHR4fICUpKi4yNTc+QkNERk5QU1RWWF9laXBzdnp7goKDhIeOj4+Qo6urtba4u77BxMrM0NHV3N7i5evs7O3v7+/v7+/w8PHy8/Pz8/Pz8/T09PT19fX29vb29vf39/j4+Pj4+Pj5+/v7+/v7/V+IQqIAAAAJcEhZcwAAFxEAABcRAcom8z8AAAQtSURBVFhH7Zj5d9tEEIATJ7Ik65YsK/IRSilnuMpNuTG03AQDhYK5ylEHyllKKfcNXSdN6xZakkIxAf5OZlajvtRaOdfyeH2v30+2dma+tzuSnnZHznMuM7oSFLceqMLaoNzVQBmcwiqhcISqDIVCKbkwtozxDDSAUHySTbXy4DEYzTOTUkpKcRC6rihJYCpbwUMKrG9eMTU1te0OYJrzxCD33glcCUQqkDq5argHHRdffutt09PPsO9fAn5aBPpiTuEYBn3OPkTnVZdpGtrARB6qOsDmG7fvZLuhdL+/9M9a+AudL7/Idj14y6VoAk+e5qadr37w+5+Utz6WTn+5e9ftnqYWEw1VXsaOLzZmSFn65HFD14qKWMO+kWT5mtlmScPZiCyz+z86sOEV++r9gz8wDzQq9iarYQsLP8+9vZ+98+bi6X7/b8pbJf3+H4tvzbCDe2aPLyywsmcbOq5ZxjIKFs6xI909nc4hdmhmZuZduFdP0Y2b5TcYPQBRPzLW6bzRne9RBRaVXQsnM8SS8muv1zvc7Xa/6+TxGYzOQdRJykhhccW3DegM9J+qp2Qs64fVosAxdd5/qp4i09KYKLtCy6hUS/z/WgqyLdj9gXsM3sVS+xI4hpa9k+Va6hHcyWr2qZRrqVV8fCqzlsKYREs19CxB82EqMi35zZdpiQJ4wQjbMi7Rkt8WmZbQEz2TuGCKREvZyWuLTEt+W4oSLZ64LZItea/KMakWeInltEWVaLFzFkyuhRbsP7aIFowsT81T0EY5+qxowbhlvLjpkX3vzf9CkevlxJFP9z52EUwla0nuMc248OaHntvX/na2d4Jy1sLJ3ly3vfe1R7dtwa9XgQQnM66oJdPxwy3X3nVf63XGnm+/AN90h+Gb7hiVyXIcRuch6pV2m7GPW/fffc0lYQBfleKp0JJphuX6YRRX643Jyauvu77ZbD7QarWeZHk8DaMPN5v33LB1a6Neq8ZRpew7FrReOBW04GR0w3K8oFyJJuJqtVar1+uNBggnJy/gbOIkv/EqDDbq9VqtVq3GExEoAt/lewr4rBBZkskoqlYyLcf1/KAchpVKFE0AcQxKAKoR/C9cjmE0guqVMCyDwXMd2+T7I+F6AbhrBU1R00uGadmO63qe7/tBEJSBEKgsA/9DYSgdBBDleS4IbMs0Sjrf66FEZEk1SlFFkWGalmXZtu0ALuANgNdcHIQYiDRNAwyoGLZvBVADHphPUVU1Tdf1Ugl0KESg1DKSazgKQVBe12gPjpv9IRLSFPC0QuFnFHhSADoAqgjgQ1D7zHkCP7pIzi2opAgYPXMywo878CTirEMRLqbfQDKenI1gEimGSgAewk10CoPwImIogpdHknwqNowkEKDEFCpH0MUUSkGozCqghLOhghy6NABlrxXKXgEKPs85x8jIv6FnG3k+2K4LAAAAAElFTkSuQmCC;shadow=1;sketch=1;curveFitting=1;jiggle=2;" vertex="1" parent="QRdIB-d-0XUhI7obMMeW-83">
          <mxGeometry width="84.17" height="50" as="geometry" />
        </mxCell>
        <mxCell id="QRdIB-d-0XUhI7obMMeW-85" value="&lt;span style=&quot;font-size: 18px;&quot;&gt;MM_AMO11&lt;/span&gt;&lt;div&gt;&lt;span style=&quot;font-size: 18px;&quot;&gt;MM:Material Document AM(400-499)&lt;/span&gt;&lt;/div&gt;" style="strokeColor=#0070F2;shadow=1;strokeWidth=2;rounded=0;whiteSpace=wrap;html=1;sketch=1;hachureGap=4;jiggle=2;curveFitting=1;fontFamily=72, sans-serif;fontSource=https%3A%2F%2Ffonts.googleapis.com%2Fcss%3Ffamily%3DArchitects%2BDaughter;" vertex="1" parent="QRdIB-d-0XUhI7obMMeW-83">
          <mxGeometry x="-39" y="55" width="333" height="59.5" as="geometry" />
        </mxCell>
        <mxCell id="QRdIB-d-0XUhI7obMMeW-86" value="" style="shape=image;verticalLabelPosition=bottom;labelBackgroundColor=default;verticalAlign=top;aspect=fixed;imageAspect=0;image=data:image/png,iVBORw0KGgoAAAANSUhEUgAAAEcAAAA9CAMAAADI14SKAAAAAXNSR0IArs4c6QAAAARnQU1BAACxjwv8YQUAAAGVUExURQAAAAAAAAAAAAAAAAAAAAAAAAAAAAAAAAAAAAAAAAAAAAAAAAAAAAAAAAAAAAAAAAAAAAAAAAAAAAAAAAAAAAAAAAAAAAAAAAAAAAAAAAAAAAAAAAAAAAAAAAAAAAAAAAAAAAAAAAAAAAAAAAAAAAAAAAAAAAAAAAAAAAAAAAAAAAAAAAAAAAAAAAAAAAAAAAAAAAAAAAAAAAAAAAAAAAAAAAAAAAAAAAAAAAAAAAAAAAAAAAAAAAAAAAAAAAcKBQAAAAcJBQAAAAcJBQcJBAcJBAYJBAYJBAYIBAQGAgYHBAQFAgQFAgQFAgMFAgcKAwMFAgcKAwcKAwYKAwYHAwQHAwQHAwQHAwQHAwcLBAoOBgoOBgoOBgYJBAYJBAYJBAYIAwYIAwECAQgLBAoOBQUHAwEBARUeDCQzEwcKBAwRBjJIGxYgDQgMBSo7FwkMBQ0UBxchDCU1FUZkJgUHAwoOBT5YIgEBAAYIAwoPBjVLHQMEAgAAAFuCMmCINGmVOXKiPnepQYC2RoS8SInDS43JTZLQUG9xMO4AAAB8dFJOUwABAgMEBQYHCAkKCwwNDg8QERITFBUWFxgZGhscHR4fICEiIyQlJicpKywtLzAxMjQ1NjpKS0xNTlBTWV9ka2tubm9xc3V3eIOLi42PkZSUlZiZoauusLGysrW2t8nKy97f4evv8PHx8fPz8/T19fb29vb3+Pj4+fn5+fzzdlIsAAAACXBIWXMAABcRAAAXEQHKJvM/AAAEeElEQVRYR+2W6ZvaVBTGJ2xJICSQjQBhCQzjWutS61qr1nHXutW6tY5WBTrV6dSt1juOjHD/7p5z7wWSQEKfx0/69P0wA/c9/M7NyV3O1n39HyRJkvj0LwQQLvE9JmGCxMCKTuEfEcPFhiOSAmGhxFhcPwAI3MxcayKl4NuFnwgi41MMk+VajZSk4BpJtucix+PHJAjL5fKgHA8VHgoxR4TbObQTQIQef/cUYPIFWZYLBSBFQJLUu3ZEST5fQMXdkAilk/EZoCiqqiqKHAmF3Ke/P6KUyApKZqD1EwIOnfx4VlaLJU0rFVW5sAQhZvwXBBBwS2AqAsR+GRVy6OTg2VJZNwy9XIJYnhOVOT0+Rp9oZZBW4lmSOQB6waiaZrWia0UGYqQ5hhKjUqkYzMuncujk9ku249hW1ZiDQHMMJaZlWWZFhwklcCTBoSfXX/M8z7URhMXOZrJnfhEYShzXdWyTW+kcenJzt9ms1xyIxjLkck8f/C0sSrw6OFalfA8cAL3ebjU8p6ojKH/2YCIM4Pg+pLCTOVKIA6D3u+2mZwOoqDwTwlDSxgx2FTlr6xPhAOiDoN2sIejFMIaSgCe4Rw7958aHHPTKr2EMJf2g43vwXKq8fv1ImQiHTg8/ClqN2oWbJ2KAi2z3GEdT2ToUP14KllqUA6BPuq3dGIaSQb/j1yyjBEtr/WPFOQC6/EYcwzjNmqmXlKTyrHDo9I8/4xhKdnqdhptS5kx2hfPz3pV98XEhMui1605aeVY4v+09/tCVn2bimxAZBC3PNrTk8sQ5d/ae2Nl+8MtbURDZ7kKZ08qTi3LufPPkA4Ne0PkiCiJQZtdMK0+Us/81YPrdTqv1+SgMIhvLkw9z9q8+CrPptv1mo3FpNBWjIMLKk7J6wpwZYHa2g06rUfdqXv3S4RJENpansODMbl19ZNCH7QUnjW07rndxCSKbVs+SMxt99TDsIjyALLNarVqOd/HGHERa9dTNlc3JgjMbfdbvBW2/jierXi7rFdPx3hsKEPG91M2VzQvObHQ5gMo0YTJwZZSKxVLZYCC+RUjDNfXks2fBmY0+7XRaPhydpoFXmKKoRQ1Bb/MtS1LPHihzXkHO9PBj3/cbnmuxIxWuebimGajOjxDiWmxTrCvPkjMdvlvHd22bFZgMXuLQXRQ4yNu9DiACR20x4a0vONPhO26t5jpwB5ZhMnh3gXIAwhrVXgUQYZdRGkcm0+FbpmXDTcrvZNZvgOYg23n59oTARJMea17n4ZtGpVrF25u3AZgULPAYqGKa5w5Iyo3MOLAOz0OnoevQTPBn4h3CAqSVDcN4/ndx6Sdz8ucUFVobaG6WXRIEMxAWW4WuSNOew86HeeK3YbGcOXjDrBNjlFAoZoEZQZtWLKrsJSZMh+XE/hEbQ/ay+TMJV6Th7mKqwouKRUIoa1RjFJ6G5WF2cqMqIlnLyzrjeCAHoY2UZAyLRBIXfhHjQnN7XZKoMBJj+X8xGBIbXp8kJhbJJAaiEh5KjCRqU9Am/77+G9raugtzRbokQ2TNnQAAAABJRU5ErkJggg==;shadow=1;sketch=1;curveFitting=1;jiggle=2;" vertex="1" parent="QRdIB-d-0XUhI7obMMeW-83">
          <mxGeometry x="96" y="-25" width="71" height="61" as="geometry" />
        </mxCell>
        <mxCell id="QRdIB-d-0XUhI7obMMeW-87" value="" style="group" vertex="1" connectable="0" parent="1">
          <mxGeometry x="-2430" y="-549" width="330" height="114.5" as="geometry" />
        </mxCell>
        <mxCell id="QRdIB-d-0XUhI7obMMeW-88" value="" style="shape=image;verticalLabelPosition=bottom;labelBackgroundColor=default;verticalAlign=top;aspect=fixed;imageAspect=0;image=data:image/png,iVBORw0KGgoAAAANSUhEUgAAAGUAAAA8CAMAAABII4TCAAAAAXNSR0IArs4c6QAAAARnQU1BAACxjwv8YQUAAAH1UExURQAAAAAAAAAAAAAAAAAAAAAAAAAAAAAAAAAAAAAAAAAAAAAAAAAAAAAAAAAAAAAAAAAAAAAAAAAAAAAAAAAAAAAAAAAAAAAAAAAAAAAAAAAAAAAAAAAAAAAAAAAAAAAAAAAAAAAAAAAAAAAAAAAAAAAAAAAAAAAAAAAAAAAAAAAAAAAAAAAAAAAAAAAAAAAAAAAAAAAAAAAAAAAAAAAAAAAAAAAAAAAAAAAAAAAAAAAAAAAAAAQICAAAAAAAAAAAAAAAAAAAAAIFBwAAAAAICwAKDQcPEggPEgALDwgPEgAOEgANEQANEgANEgAOEwkTFwkQFAkQFAANEgANEQAKDwALEAYMDgULDQAJDAULDQAJDAAeKQAjMAAqOREjKhQqMRkxOgAwQQ4dIgwWGgAHCQAHCQYzQwY6TAcoMxQsNBs6RB9BTgAPFAVAVREmLSRJVgBEXQ4fJShQXwAKDQMGBwUYHgsaHydRXwAFBwUTGC5fcQBKZgNMZgQHCShSYStYaCtYaS5fcChSYQBRcAFScAIDBAJdfgQJDDBhcgIFBgAAAABYeABjhwBojgBulgBznQB5pQB+rACEtACJuwCPwwCUygCa0gCf2QCl4QCq6ACw8DNoezZugjl1ikCCmUOIoUaPqUycuFavz1m212DD52PJ7mbQ9laT9xQAAACKdFJOUwABAgMEBQYHCAkKCwwNDg8QERITFBUWFxgZGhscHR4fICUpKi4yNTc+QkNERk5QU1RWWF9laXBzdnp7goKDhIeOj4+Qo6urtba4u77BxMrM0NHV3N7i5evs7O3v7+/v7+/w8PHy8/Pz8/Pz8/T09PT19fX29vb29vf39/j4+Pj4+Pj5+/v7+/v7/V+IQqIAAAAJcEhZcwAAFxEAABcRAcom8z8AAAQtSURBVFhH7Zj5d9tEEIATJ7Ik65YsK/IRSilnuMpNuTG03AQDhYK5ylEHyllKKfcNXSdN6xZakkIxAf5OZlajvtRaOdfyeH2v30+2dma+tzuSnnZHznMuM7oSFLceqMLaoNzVQBmcwiqhcISqDIVCKbkwtozxDDSAUHySTbXy4DEYzTOTUkpKcRC6rihJYCpbwUMKrG9eMTU1te0OYJrzxCD33glcCUQqkDq5argHHRdffutt09PPsO9fAn5aBPpiTuEYBn3OPkTnVZdpGtrARB6qOsDmG7fvZLuhdL+/9M9a+AudL7/Idj14y6VoAk+e5qadr37w+5+Utz6WTn+5e9ftnqYWEw1VXsaOLzZmSFn65HFD14qKWMO+kWT5mtlmScPZiCyz+z86sOEV++r9gz8wDzQq9iarYQsLP8+9vZ+98+bi6X7/b8pbJf3+H4tvzbCDe2aPLyywsmcbOq5ZxjIKFs6xI909nc4hdmhmZuZduFdP0Y2b5TcYPQBRPzLW6bzRne9RBRaVXQsnM8SS8muv1zvc7Xa/6+TxGYzOQdRJykhhccW3DegM9J+qp2Qs64fVosAxdd5/qp4i09KYKLtCy6hUS/z/WgqyLdj9gXsM3sVS+xI4hpa9k+Va6hHcyWr2qZRrqVV8fCqzlsKYREs19CxB82EqMi35zZdpiQJ4wQjbMi7Rkt8WmZbQEz2TuGCKREvZyWuLTEt+W4oSLZ64LZItea/KMakWeInltEWVaLFzFkyuhRbsP7aIFowsT81T0EY5+qxowbhlvLjpkX3vzf9CkevlxJFP9z52EUwla0nuMc248OaHntvX/na2d4Jy1sLJ3ly3vfe1R7dtwa9XgQQnM66oJdPxwy3X3nVf63XGnm+/AN90h+Gb7hiVyXIcRuch6pV2m7GPW/fffc0lYQBfleKp0JJphuX6YRRX643Jyauvu77ZbD7QarWeZHk8DaMPN5v33LB1a6Neq8ZRpew7FrReOBW04GR0w3K8oFyJJuJqtVar1+uNBggnJy/gbOIkv/EqDDbq9VqtVq3GExEoAt/lewr4rBBZkskoqlYyLcf1/KAchpVKFE0AcQxKAKoR/C9cjmE0guqVMCyDwXMd2+T7I+F6AbhrBU1R00uGadmO63qe7/tBEJSBEKgsA/9DYSgdBBDleS4IbMs0Sjrf66FEZEk1SlFFkWGalmXZtu0ALuANgNdcHIQYiDRNAwyoGLZvBVADHphPUVU1Tdf1Ugl0KESg1DKSazgKQVBe12gPjpv9IRLSFPC0QuFnFHhSADoAqgjgQ1D7zHkCP7pIzi2opAgYPXMywo878CTirEMRLqbfQDKenI1gEimGSgAewk10CoPwImIogpdHknwqNowkEKDEFCpH0MUUSkGozCqghLOhghy6NABlrxXKXgEKPs85x8jIv6FnG3k+2K4LAAAAAElFTkSuQmCC;shadow=1;sketch=1;curveFitting=1;jiggle=2;" vertex="1" parent="QRdIB-d-0XUhI7obMMeW-87">
          <mxGeometry width="84.17" height="50" as="geometry" />
        </mxCell>
        <mxCell id="QRdIB-d-0XUhI7obMMeW-89" value="&lt;span style=&quot;font-size: 18px;&quot;&gt;MM_ASO11&lt;/span&gt;&lt;div&gt;&lt;span style=&quot;font-size: 18px;&quot;&gt;MM:Material Document AS(700-799)&lt;/span&gt;&lt;/div&gt;" style="strokeColor=#0070F2;shadow=1;strokeWidth=2;rounded=0;whiteSpace=wrap;html=1;sketch=1;hachureGap=4;jiggle=2;curveFitting=1;fontFamily=72, sans-serif;fontSource=https%3A%2F%2Ffonts.googleapis.com%2Fcss%3Ffamily%3DArchitects%2BDaughter;" vertex="1" parent="QRdIB-d-0XUhI7obMMeW-87">
          <mxGeometry x="5.13" y="55" width="324.87" height="59.5" as="geometry" />
        </mxCell>
        <mxCell id="QRdIB-d-0XUhI7obMMeW-90" value="" style="group" vertex="1" connectable="0" parent="1">
          <mxGeometry x="-2017" y="-552" width="335" height="114.5" as="geometry" />
        </mxCell>
        <mxCell id="QRdIB-d-0XUhI7obMMeW-91" value="" style="shape=image;verticalLabelPosition=bottom;labelBackgroundColor=default;verticalAlign=top;aspect=fixed;imageAspect=0;image=data:image/png,iVBORw0KGgoAAAANSUhEUgAAAGUAAAA8CAMAAABII4TCAAAAAXNSR0IArs4c6QAAAARnQU1BAACxjwv8YQUAAAH1UExURQAAAAAAAAAAAAAAAAAAAAAAAAAAAAAAAAAAAAAAAAAAAAAAAAAAAAAAAAAAAAAAAAAAAAAAAAAAAAAAAAAAAAAAAAAAAAAAAAAAAAAAAAAAAAAAAAAAAAAAAAAAAAAAAAAAAAAAAAAAAAAAAAAAAAAAAAAAAAAAAAAAAAAAAAAAAAAAAAAAAAAAAAAAAAAAAAAAAAAAAAAAAAAAAAAAAAAAAAAAAAAAAAAAAAAAAAAAAAAAAAQICAAAAAAAAAAAAAAAAAAAAAIFBwAAAAAICwAKDQcPEggPEgALDwgPEgAOEgANEQANEgANEgAOEwkTFwkQFAkQFAANEgANEQAKDwALEAYMDgULDQAJDAULDQAJDAAeKQAjMAAqOREjKhQqMRkxOgAwQQ4dIgwWGgAHCQAHCQYzQwY6TAcoMxQsNBs6RB9BTgAPFAVAVREmLSRJVgBEXQ4fJShQXwAKDQMGBwUYHgsaHydRXwAFBwUTGC5fcQBKZgNMZgQHCShSYStYaCtYaS5fcChSYQBRcAFScAIDBAJdfgQJDDBhcgIFBgAAAABYeABjhwBojgBulgBznQB5pQB+rACEtACJuwCPwwCUygCa0gCf2QCl4QCq6ACw8DNoezZugjl1ikCCmUOIoUaPqUycuFavz1m212DD52PJ7mbQ9laT9xQAAACKdFJOUwABAgMEBQYHCAkKCwwNDg8QERITFBUWFxgZGhscHR4fICUpKi4yNTc+QkNERk5QU1RWWF9laXBzdnp7goKDhIeOj4+Qo6urtba4u77BxMrM0NHV3N7i5evs7O3v7+/v7+/w8PHy8/Pz8/Pz8/T09PT19fX29vb29vf39/j4+Pj4+Pj5+/v7+/v7/V+IQqIAAAAJcEhZcwAAFxEAABcRAcom8z8AAAQtSURBVFhH7Zj5d9tEEIATJ7Ik65YsK/IRSilnuMpNuTG03AQDhYK5ylEHyllKKfcNXSdN6xZakkIxAf5OZlajvtRaOdfyeH2v30+2dma+tzuSnnZHznMuM7oSFLceqMLaoNzVQBmcwiqhcISqDIVCKbkwtozxDDSAUHySTbXy4DEYzTOTUkpKcRC6rihJYCpbwUMKrG9eMTU1te0OYJrzxCD33glcCUQqkDq5argHHRdffutt09PPsO9fAn5aBPpiTuEYBn3OPkTnVZdpGtrARB6qOsDmG7fvZLuhdL+/9M9a+AudL7/Idj14y6VoAk+e5qadr37w+5+Utz6WTn+5e9ftnqYWEw1VXsaOLzZmSFn65HFD14qKWMO+kWT5mtlmScPZiCyz+z86sOEV++r9gz8wDzQq9iarYQsLP8+9vZ+98+bi6X7/b8pbJf3+H4tvzbCDe2aPLyywsmcbOq5ZxjIKFs6xI909nc4hdmhmZuZduFdP0Y2b5TcYPQBRPzLW6bzRne9RBRaVXQsnM8SS8muv1zvc7Xa/6+TxGYzOQdRJykhhccW3DegM9J+qp2Qs64fVosAxdd5/qp4i09KYKLtCy6hUS/z/WgqyLdj9gXsM3sVS+xI4hpa9k+Va6hHcyWr2qZRrqVV8fCqzlsKYREs19CxB82EqMi35zZdpiQJ4wQjbMi7Rkt8WmZbQEz2TuGCKREvZyWuLTEt+W4oSLZ64LZItea/KMakWeInltEWVaLFzFkyuhRbsP7aIFowsT81T0EY5+qxowbhlvLjpkX3vzf9CkevlxJFP9z52EUwla0nuMc248OaHntvX/na2d4Jy1sLJ3ly3vfe1R7dtwa9XgQQnM66oJdPxwy3X3nVf63XGnm+/AN90h+Gb7hiVyXIcRuch6pV2m7GPW/fffc0lYQBfleKp0JJphuX6YRRX643Jyauvu77ZbD7QarWeZHk8DaMPN5v33LB1a6Neq8ZRpew7FrReOBW04GR0w3K8oFyJJuJqtVar1+uNBggnJy/gbOIkv/EqDDbq9VqtVq3GExEoAt/lewr4rBBZkskoqlYyLcf1/KAchpVKFE0AcQxKAKoR/C9cjmE0guqVMCyDwXMd2+T7I+F6AbhrBU1R00uGadmO63qe7/tBEJSBEKgsA/9DYSgdBBDleS4IbMs0Sjrf66FEZEk1SlFFkWGalmXZtu0ALuANgNdcHIQYiDRNAwyoGLZvBVADHphPUVU1Tdf1Ugl0KESg1DKSazgKQVBe12gPjpv9IRLSFPC0QuFnFHhSADoAqgjgQ1D7zHkCP7pIzi2opAgYPXMywo878CTirEMRLqbfQDKenI1gEimGSgAewk10CoPwImIogpdHknwqNowkEKDEFCpH0MUUSkGozCqghLOhghy6NABlrxXKXgEKPs85x8jIv6FnG3k+2K4LAAAAAElFTkSuQmCC;shadow=1;sketch=1;curveFitting=1;jiggle=2;" vertex="1" parent="QRdIB-d-0XUhI7obMMeW-90">
          <mxGeometry width="84.17" height="50" as="geometry" />
        </mxCell>
        <mxCell id="QRdIB-d-0XUhI7obMMeW-92" value="&lt;span style=&quot;font-size: 18px;&quot;&gt;MM_EUO11&lt;/span&gt;&lt;div&gt;&lt;span style=&quot;font-size: 18px;&quot;&gt;MM:Material Document EU(100-299)&lt;/span&gt;&lt;/div&gt;" style="strokeColor=#0070F2;shadow=1;strokeWidth=2;rounded=0;whiteSpace=wrap;html=1;sketch=1;hachureGap=4;jiggle=2;curveFitting=1;fontFamily=72, sans-serif;fontSource=https%3A%2F%2Ffonts.googleapis.com%2Fcss%3Ffamily%3DArchitects%2BDaughter;" vertex="1" parent="QRdIB-d-0XUhI7obMMeW-90">
          <mxGeometry x="5.13" y="55" width="329.87" height="59.5" as="geometry" />
        </mxCell>
        <mxCell id="QRdIB-d-0XUhI7obMMeW-93" value="&lt;font style=&quot;font-size: 18px;&quot;&gt;MM_MIM2&lt;/font&gt;&lt;div&gt;&lt;font style=&quot;font-size: 18px;&quot;&gt;Logistics: MM Material Movement New&lt;/font&gt;&lt;/div&gt;" style="strokeColor=#0070F2;shadow=1;strokeWidth=2;rounded=0;whiteSpace=wrap;html=1;sketch=1;hachureGap=4;jiggle=2;curveFitting=1;fontFamily=72, sans-serif;" vertex="1" parent="1">
          <mxGeometry x="-1955" y="-1225" width="354" height="60" as="geometry" />
        </mxCell>
        <mxCell id="QRdIB-d-0XUhI7obMMeW-94" value="&lt;span style=&quot;font-size: 18px;&quot;&gt;MM_ODOC1_O&lt;/span&gt;&lt;br&gt;&lt;div&gt;&lt;span style=&quot;font-size: 18px;&quot;&gt;MM: Material Document - Outbound&lt;/span&gt;&lt;br&gt;&lt;/div&gt;" style="strokeColor=#0070F2;shadow=1;strokeWidth=2;rounded=0;whiteSpace=wrap;html=1;sketch=1;hachureGap=4;jiggle=2;curveFitting=1;fontFamily=72, sans-serif;fontSource=https%3A%2F%2Ffonts.googleapis.com%2Fcss%3Ffamily%3DArchitects%2BDaughter;" vertex="1" parent="1">
          <mxGeometry x="-2805.57" y="-693.17" width="248" height="92.17" as="geometry" />
        </mxCell>
        <mxCell id="QRdIB-d-0XUhI7obMMeW-95" value="" style="shape=image;verticalLabelPosition=bottom;labelBackgroundColor=default;verticalAlign=top;aspect=fixed;imageAspect=0;image=data:image/png,iVBORw0KGgoAAAANSUhEUgAAAIYAAAA8CAMAAACU9jKwAAAAAXNSR0IArs4c6QAAAARnQU1BAACxjwv8YQUAAADPUExURQAAAAAAAAAAAAAAAAAAAAAAAAAAAAAAAAAAAAAAAAAAAAAAAAAAAAAAAAAAAAAAAAAAAAAAAAAAAAAAAAAAAAAAAAAAAAAAAAAAAAAAAAAAAAAAAAAAAAAAAAAAAAAAAAAAAP8NA/UQAPQPAPIPAP4AAP0KAv8zDP01DP8AAP8qA/4DAP8YBuFeAN1vAf8UAv8DAOpIAf8DAfYbAM2aAOZNAP8AAP8NA/8mCf9AEP9aFv9gAP9yHP+MIv+SJP+ZJf+mKf+/L//AAP/GMP/MMigenE8AAAA0dFJOUwABAgMEBQYHCAkKCwwNDg8QERITFBUWFxgZGhscHR4fIE60tbbQ3Ojv7/P09PX5+fr7+/yagY+BAAAACXBIWXMAABcRAAAXEQHKJvM/AAACm0lEQVRoQ+2Y2ZbTMAxAu2RztrpN0iXMTOl0gGEJazA7A7T//03YjuYcHiw3cBzx0vvaWLpHUtpaozNn/pXxIEDwfsCZgYAkp9DPTgZCB4dENsBhKvHcokKCCORC6SSUgS8JgEeiL0/hhAkZULloEUiHsHsL4Ybise+d9tg9ORwNfIMYPfgKR8wcbkUIHpDRwBixOH6GHD34AUeMHG5fChYG0sNSDtTi+BFynOYDnDAiLVqRMF0PVAO3+Ak5evAJjphQFq3IlAeugVs4Gg1t0QqexVHgYdNhsXAzGp1FKxZ5IjWQctgsnIwGWLSimKUsxDRsFi64t2hFyTN0OHYvvt8Nyr1FK6p5FiMa49fPhuXVG7DQGlhTxuLXsHx5DxZSg6dMjyjk/gNKjVJrGItBqVHM1Av73zUWOTKh8g8GoQb6otBqoBNKq4GPxmRKqJEnaE8oNSyjQalhGQ2PUMMyGpQalp74hBrI7xq1BvpNPvECQg1zT/Ro0Gk015aehFQazTXek6kfEWk0e/T/nxoNIo1mj94NtAYj0Whu5NXAXIxuQkk0pIVsifm+pkbDCyk0mht9a0SKQaWhagEWmAZBU95ZLUAjeg530MHYp0xbGFuiNdQLG2e8WK7ri8ur7fahI7bb7dXlRb1ZlQuulhoWi64cfsiSnBfVar2p6wfOqOvNerWUErlsCKx4EAvoSsjSnM+LsqqW7qiqsizmPJeliAK7he7K1A8ilqT5jPO5U/gsz9JElkI2xGoB5fCDMGJxkqaZS9I0SWImJXrsQuWnaimsRCKmiN2gY0XSQUmcKIVCeciCeLCaDl2ho/VeT4OHWtXDht0l/Zf12kOJdC4u0TFV9B4SCv2oRJ9zBgTtK6GAAwMACc6c+StGo9+HPd6fS8FEcwAAAABJRU5ErkJggg==;sketch=1;hachureGap=4;jiggle=2;curveFitting=1;fontFamily=Architects Daughter;fontSource=https%3A%2F%2Ffonts.googleapis.com%2Fcss%3Ffamily%3DArchitects%2BDaughter;" vertex="1" parent="1">
          <mxGeometry x="-2816" y="-732" width="78.17" height="35" as="geometry" />
        </mxCell>
        <mxCell id="QRdIB-d-0XUhI7obMMeW-96" style="rounded=0;hachureGap=4;orthogonalLoop=1;jettySize=auto;html=1;entryX=0.5;entryY=1;entryDx=0;entryDy=0;fontFamily=Architects Daughter;fontSource=https%3A%2F%2Ffonts.googleapis.com%2Fcss%3Ffamily%3DArchitects%2BDaughter;flowAnimation=1;dashed=1;strokeWidth=2;exitX=0.5;exitY=0;exitDx=0;exitDy=0;" edge="1" parent="1" source="QRdIB-d-0XUhI7obMMeW-64" target="QRdIB-d-0XUhI7obMMeW-77">
          <mxGeometry relative="1" as="geometry">
            <mxPoint x="-2777" y="624" as="sourcePoint" />
            <mxPoint x="-2581" y="485" as="targetPoint" />
          </mxGeometry>
        </mxCell>
        <mxCell id="QRdIB-d-0XUhI7obMMeW-97" value="v&lt;span style=&quot;color: rgba(0, 0, 0, 0); font-family: monospace; font-size: 0px; text-align: start; background-color: rgb(251, 251, 251);&quot;&gt;%3CmxGraphModel%3E%3Croot%3E%3CmxCell%20id%3D%220%22%2F%3E%3CmxCell%20id%3D%221%22%20parent%3D%220%22%2F%3E%3CmxCell%20id%3D%222%22%20style%3D%22rounded%3D0%3BhachureGap%3D4%3BorthogonalLoop%3D1%3BjettySize%3Dauto%3Bhtml%3D1%3BentryX%3D0.47%3BentryY%3D0.964%3BentryDx%3D0%3BentryDy%3D0%3BfontFamily%3DArchitects%20Daughter%3BfontSource%3Dhttps%253A%252F%252Ffonts.googleapis.com%252Fcss%253Ffamily%253DArchitects%252BDaughter%3BflowAnimation%3D1%3Bdashed%3D1%3BstrokeWidth%3D2%3BentryPerimeter%3D0%3B%22%20edge%3D%221%22%20parent%3D%221%22%3E%3CmxGeometry%20relative%3D%221%22%20as%3D%22geometry%22%3E%3CmxPoint%20x%3D%22-2605%22%20y%3D%22157%22%20as%3D%22sourcePoint%22%2F%3E%3CmxPoint%20x%3D%22-2612%22%20y%3D%22-15%22%20as%3D%22targetPoint%22%2F%3E%3C%2FmxGeometry%3E%3C%2FmxCell%3E%3C%2Froot%3E%3C%2FmxGraphModel%3E&lt;/span&gt;" style="rounded=0;hachureGap=4;orthogonalLoop=1;jettySize=auto;html=1;entryX=0.47;entryY=0.964;entryDx=0;entryDy=0;fontFamily=Architects Daughter;fontSource=https%3A%2F%2Ffonts.googleapis.com%2Fcss%3Ffamily%3DArchitects%2BDaughter;flowAnimation=1;dashed=1;strokeWidth=2;entryPerimeter=0;" edge="1" parent="1" target="QRdIB-d-0XUhI7obMMeW-80">
          <mxGeometry relative="1" as="geometry">
            <mxPoint x="-2605" y="157" as="sourcePoint" />
            <mxPoint x="-2590" y="265" as="targetPoint" />
          </mxGeometry>
        </mxCell>
        <mxCell id="QRdIB-d-0XUhI7obMMeW-98" style="rounded=0;hachureGap=4;orthogonalLoop=1;jettySize=auto;html=1;entryX=0.538;entryY=0.852;entryDx=0;entryDy=0;fontFamily=Architects Daughter;fontSource=https%3A%2F%2Ffonts.googleapis.com%2Fcss%3Ffamily%3DArchitects%2BDaughter;flowAnimation=1;dashed=1;strokeWidth=2;entryPerimeter=0;exitX=0.465;exitY=0.038;exitDx=0;exitDy=0;exitPerimeter=0;" edge="1" parent="1" source="QRdIB-d-0XUhI7obMMeW-80" target="QRdIB-d-0XUhI7obMMeW-85">
          <mxGeometry relative="1" as="geometry">
            <mxPoint x="-2595" y="167" as="sourcePoint" />
            <mxPoint x="-2602" y="-5" as="targetPoint" />
          </mxGeometry>
        </mxCell>
        <mxCell id="QRdIB-d-0XUhI7obMMeW-99" value="" style="shape=image;verticalLabelPosition=bottom;labelBackgroundColor=default;verticalAlign=top;aspect=fixed;imageAspect=0;image=data:image/png,iVBORw0KGgoAAAANSUhEUgAAAEcAAAA9CAMAAADI14SKAAAAAXNSR0IArs4c6QAAAARnQU1BAACxjwv8YQUAAAGVUExURQAAAAAAAAAAAAAAAAAAAAAAAAAAAAAAAAAAAAAAAAAAAAAAAAAAAAAAAAAAAAAAAAAAAAAAAAAAAAAAAAAAAAAAAAAAAAAAAAAAAAAAAAAAAAAAAAAAAAAAAAAAAAAAAAAAAAAAAAAAAAAAAAAAAAAAAAAAAAAAAAAAAAAAAAAAAAAAAAAAAAAAAAAAAAAAAAAAAAAAAAAAAAAAAAAAAAAAAAAAAAAAAAAAAAAAAAAAAAAAAAAAAAAAAAAAAAcKBQAAAAcJBQAAAAcJBQcJBAcJBAYJBAYJBAYIBAQGAgYHBAQFAgQFAgQFAgMFAgcKAwMFAgcKAwcKAwYKAwYHAwQHAwQHAwQHAwQHAwcLBAoOBgoOBgoOBgYJBAYJBAYJBAYIAwYIAwECAQgLBAoOBQUHAwEBARUeDCQzEwcKBAwRBjJIGxYgDQgMBSo7FwkMBQ0UBxchDCU1FUZkJgUHAwoOBT5YIgEBAAYIAwoPBjVLHQMEAgAAAFuCMmCINGmVOXKiPnepQYC2RoS8SInDS43JTZLQUG9xMO4AAAB8dFJOUwABAgMEBQYHCAkKCwwNDg8QERITFBUWFxgZGhscHR4fICEiIyQlJicpKywtLzAxMjQ1NjpKS0xNTlBTWV9ka2tubm9xc3V3eIOLi42PkZSUlZiZoauusLGysrW2t8nKy97f4evv8PHx8fPz8/T19fb29vb3+Pj4+fn5+fzzdlIsAAAACXBIWXMAABcRAAAXEQHKJvM/AAAEeElEQVRYR+2W6ZvaVBTGJ2xJICSQjQBhCQzjWutS61qr1nHXutW6tY5WBTrV6dSt1juOjHD/7p5z7wWSQEKfx0/69P0wA/c9/M7NyV3O1n39HyRJkvj0LwQQLvE9JmGCxMCKTuEfEcPFhiOSAmGhxFhcPwAI3MxcayKl4NuFnwgi41MMk+VajZSk4BpJtucix+PHJAjL5fKgHA8VHgoxR4TbObQTQIQef/cUYPIFWZYLBSBFQJLUu3ZEST5fQMXdkAilk/EZoCiqqiqKHAmF3Ke/P6KUyApKZqD1EwIOnfx4VlaLJU0rFVW5sAQhZvwXBBBwS2AqAsR+GRVy6OTg2VJZNwy9XIJYnhOVOT0+Rp9oZZBW4lmSOQB6waiaZrWia0UGYqQ5hhKjUqkYzMuncujk9ku249hW1ZiDQHMMJaZlWWZFhwklcCTBoSfXX/M8z7URhMXOZrJnfhEYShzXdWyTW+kcenJzt9ms1xyIxjLkck8f/C0sSrw6OFalfA8cAL3ebjU8p6ojKH/2YCIM4Pg+pLCTOVKIA6D3u+2mZwOoqDwTwlDSxgx2FTlr6xPhAOiDoN2sIejFMIaSgCe4Rw7958aHHPTKr2EMJf2g43vwXKq8fv1ImQiHTg8/ClqN2oWbJ2KAi2z3GEdT2ToUP14KllqUA6BPuq3dGIaSQb/j1yyjBEtr/WPFOQC6/EYcwzjNmqmXlKTyrHDo9I8/4xhKdnqdhptS5kx2hfPz3pV98XEhMui1605aeVY4v+09/tCVn2bimxAZBC3PNrTk8sQ5d/ae2Nl+8MtbURDZ7kKZ08qTi3LufPPkA4Ne0PkiCiJQZtdMK0+Us/81YPrdTqv1+SgMIhvLkw9z9q8+CrPptv1mo3FpNBWjIMLKk7J6wpwZYHa2g06rUfdqXv3S4RJENpansODMbl19ZNCH7QUnjW07rndxCSKbVs+SMxt99TDsIjyALLNarVqOd/HGHERa9dTNlc3JgjMbfdbvBW2/jierXi7rFdPx3hsKEPG91M2VzQvObHQ5gMo0YTJwZZSKxVLZYCC+RUjDNfXks2fBmY0+7XRaPhydpoFXmKKoRQ1Bb/MtS1LPHihzXkHO9PBj3/cbnmuxIxWuebimGajOjxDiWmxTrCvPkjMdvlvHd22bFZgMXuLQXRQ4yNu9DiACR20x4a0vONPhO26t5jpwB5ZhMnh3gXIAwhrVXgUQYZdRGkcm0+FbpmXDTcrvZNZvgOYg23n59oTARJMea17n4ZtGpVrF25u3AZgULPAYqGKa5w5Iyo3MOLAOz0OnoevQTPBn4h3CAqSVDcN4/ndx6Sdz8ucUFVobaG6WXRIEMxAWW4WuSNOew86HeeK3YbGcOXjDrBNjlFAoZoEZQZtWLKrsJSZMh+XE/hEbQ/ay+TMJV6Th7mKqwouKRUIoa1RjFJ6G5WF2cqMqIlnLyzrjeCAHoY2UZAyLRBIXfhHjQnN7XZKoMBJj+X8xGBIbXp8kJhbJJAaiEh5KjCRqU9Am/77+G9raugtzRbokQ2TNnQAAAABJRU5ErkJggg==;shadow=1;sketch=1;curveFitting=1;jiggle=2;" vertex="1" parent="1">
          <mxGeometry x="-2628.57" y="280.5" width="71" height="61" as="geometry" />
        </mxCell>
        <mxCell id="QRdIB-d-0XUhI7obMMeW-100" style="rounded=0;hachureGap=4;orthogonalLoop=1;jettySize=auto;html=1;entryX=0.635;entryY=1.018;entryDx=0;entryDy=0;fontFamily=Architects Daughter;fontSource=https%3A%2F%2Ffonts.googleapis.com%2Fcss%3Ffamily%3DArchitects%2BDaughter;flowAnimation=1;dashed=1;strokeWidth=2;entryPerimeter=0;exitX=0.5;exitY=0;exitDx=0;exitDy=0;" edge="1" parent="1" source="QRdIB-d-0XUhI7obMMeW-85" target="QRdIB-d-0XUhI7obMMeW-94">
          <mxGeometry relative="1" as="geometry">
            <mxPoint x="-2603" y="-91" as="sourcePoint" />
            <mxPoint x="-2614" y="-433" as="targetPoint" />
          </mxGeometry>
        </mxCell>
        <mxCell id="QRdIB-d-0XUhI7obMMeW-101" style="rounded=0;hachureGap=4;orthogonalLoop=1;jettySize=auto;html=1;fontFamily=Architects Daughter;fontSource=https%3A%2F%2Ffonts.googleapis.com%2Fcss%3Ffamily%3DArchitects%2BDaughter;flowAnimation=1;dashed=1;strokeWidth=2;exitX=0.5;exitY=0;exitDx=0;exitDy=0;" edge="1" parent="1" source="QRdIB-d-0XUhI7obMMeW-94" target="QRdIB-d-0XUhI7obMMeW-58">
          <mxGeometry relative="1" as="geometry">
            <mxPoint x="-2626" y="-484" as="sourcePoint" />
            <mxPoint x="-2638" y="-589" as="targetPoint" />
          </mxGeometry>
        </mxCell>
        <mxCell id="QRdIB-d-0XUhI7obMMeW-102" value="" style="shape=image;verticalLabelPosition=bottom;labelBackgroundColor=default;verticalAlign=top;aspect=fixed;imageAspect=0;image=data:image/png,iVBORw0KGgoAAAANSUhEUgAAAEcAAAA9CAMAAADI14SKAAAAAXNSR0IArs4c6QAAAARnQU1BAACxjwv8YQUAAAGVUExURQAAAAAAAAAAAAAAAAAAAAAAAAAAAAAAAAAAAAAAAAAAAAAAAAAAAAAAAAAAAAAAAAAAAAAAAAAAAAAAAAAAAAAAAAAAAAAAAAAAAAAAAAAAAAAAAAAAAAAAAAAAAAAAAAAAAAAAAAAAAAAAAAAAAAAAAAAAAAAAAAAAAAAAAAAAAAAAAAAAAAAAAAAAAAAAAAAAAAAAAAAAAAAAAAAAAAAAAAAAAAAAAAAAAAAAAAAAAAAAAAAAAAAAAAAAAAcKBQAAAAcJBQAAAAcJBQcJBAcJBAYJBAYJBAYIBAQGAgYHBAQFAgQFAgQFAgMFAgcKAwMFAgcKAwcKAwYKAwYHAwQHAwQHAwQHAwQHAwcLBAoOBgoOBgoOBgYJBAYJBAYJBAYIAwYIAwECAQgLBAoOBQUHAwEBARUeDCQzEwcKBAwRBjJIGxYgDQgMBSo7FwkMBQ0UBxchDCU1FUZkJgUHAwoOBT5YIgEBAAYIAwoPBjVLHQMEAgAAAFuCMmCINGmVOXKiPnepQYC2RoS8SInDS43JTZLQUG9xMO4AAAB8dFJOUwABAgMEBQYHCAkKCwwNDg8QERITFBUWFxgZGhscHR4fICEiIyQlJicpKywtLzAxMjQ1NjpKS0xNTlBTWV9ka2tubm9xc3V3eIOLi42PkZSUlZiZoauusLGysrW2t8nKy97f4evv8PHx8fPz8/T19fb29vb3+Pj4+fn5+fzzdlIsAAAACXBIWXMAABcRAAAXEQHKJvM/AAAEeElEQVRYR+2W6ZvaVBTGJ2xJICSQjQBhCQzjWutS61qr1nHXutW6tY5WBTrV6dSt1juOjHD/7p5z7wWSQEKfx0/69P0wA/c9/M7NyV3O1n39HyRJkvj0LwQQLvE9JmGCxMCKTuEfEcPFhiOSAmGhxFhcPwAI3MxcayKl4NuFnwgi41MMk+VajZSk4BpJtucix+PHJAjL5fKgHA8VHgoxR4TbObQTQIQef/cUYPIFWZYLBSBFQJLUu3ZEST5fQMXdkAilk/EZoCiqqiqKHAmF3Ke/P6KUyApKZqD1EwIOnfx4VlaLJU0rFVW5sAQhZvwXBBBwS2AqAsR+GRVy6OTg2VJZNwy9XIJYnhOVOT0+Rp9oZZBW4lmSOQB6waiaZrWia0UGYqQ5hhKjUqkYzMuncujk9ku249hW1ZiDQHMMJaZlWWZFhwklcCTBoSfXX/M8z7URhMXOZrJnfhEYShzXdWyTW+kcenJzt9ms1xyIxjLkck8f/C0sSrw6OFalfA8cAL3ebjU8p6ojKH/2YCIM4Pg+pLCTOVKIA6D3u+2mZwOoqDwTwlDSxgx2FTlr6xPhAOiDoN2sIejFMIaSgCe4Rw7958aHHPTKr2EMJf2g43vwXKq8fv1ImQiHTg8/ClqN2oWbJ2KAi2z3GEdT2ToUP14KllqUA6BPuq3dGIaSQb/j1yyjBEtr/WPFOQC6/EYcwzjNmqmXlKTyrHDo9I8/4xhKdnqdhptS5kx2hfPz3pV98XEhMui1605aeVY4v+09/tCVn2bimxAZBC3PNrTk8sQ5d/ae2Nl+8MtbURDZ7kKZ08qTi3LufPPkA4Ne0PkiCiJQZtdMK0+Us/81YPrdTqv1+SgMIhvLkw9z9q8+CrPptv1mo3FpNBWjIMLKk7J6wpwZYHa2g06rUfdqXv3S4RJENpansODMbl19ZNCH7QUnjW07rndxCSKbVs+SMxt99TDsIjyALLNarVqOd/HGHERa9dTNlc3JgjMbfdbvBW2/jierXi7rFdPx3hsKEPG91M2VzQvObHQ5gMo0YTJwZZSKxVLZYCC+RUjDNfXks2fBmY0+7XRaPhydpoFXmKKoRQ1Bb/MtS1LPHihzXkHO9PBj3/cbnmuxIxWuebimGajOjxDiWmxTrCvPkjMdvlvHd22bFZgMXuLQXRQ4yNu9DiACR20x4a0vONPhO26t5jpwB5ZhMnh3gXIAwhrVXgUQYZdRGkcm0+FbpmXDTcrvZNZvgOYg23n59oTARJMea17n4ZtGpVrF25u3AZgULPAYqGKa5w5Iyo3MOLAOz0OnoevQTPBn4h3CAqSVDcN4/ndx6Sdz8ucUFVobaG6WXRIEMxAWW4WuSNOew86HeeK3YbGcOXjDrBNjlFAoZoEZQZtWLKrsJSZMh+XE/hEbQ/ay+TMJV6Th7mKqwouKRUIoa1RjFJ6G5WF2cqMqIlnLyzrjeCAHoY2UZAyLRBIXfhHjQnN7XZKoMBJj+X8xGBIbXp8kJhbJJAaiEh5KjCRqU9Am/77+G9raugtzRbokQ2TNnQAAAABJRU5ErkJggg==;shadow=1;sketch=1;curveFitting=1;jiggle=2;" vertex="1" parent="1">
          <mxGeometry x="-2705" y="-764" width="71" height="61" as="geometry" />
        </mxCell>
        <mxCell id="QRdIB-d-0XUhI7obMMeW-103" value="" style="group" vertex="1" connectable="0" parent="1">
          <mxGeometry x="-3430" y="-900" width="294" height="114.5" as="geometry" />
        </mxCell>
        <mxCell id="QRdIB-d-0XUhI7obMMeW-104" value="&lt;span style=&quot;font-size: 18px;&quot;&gt;MM_CBF&lt;b&gt;X&lt;/b&gt;3&lt;/span&gt;&lt;br&gt;&lt;div&gt;&lt;span style=&quot;font-size: 18px;&quot;&gt;MM AM&lt;/span&gt;&lt;br&gt;&lt;/div&gt;" style="strokeColor=#0070F2;shadow=1;strokeWidth=2;rounded=0;whiteSpace=wrap;html=1;sketch=1;hachureGap=4;jiggle=2;curveFitting=1;fontFamily=72, sans-serif;fontSource=https%3A%2F%2Ffonts.googleapis.com%2Fcss%3Ffamily%3DArchitects%2BDaughter;" vertex="1" parent="QRdIB-d-0XUhI7obMMeW-103">
          <mxGeometry x="5.13" y="55" width="288.87" height="59.5" as="geometry" />
        </mxCell>
        <mxCell id="QRdIB-d-0XUhI7obMMeW-105" value="" style="group" vertex="1" connectable="0" parent="QRdIB-d-0XUhI7obMMeW-103">
          <mxGeometry x="-6" y="-24.5" width="92" height="83" as="geometry" />
        </mxCell>
        <mxCell id="QRdIB-d-0XUhI7obMMeW-106" value="" style="shape=image;verticalLabelPosition=bottom;labelBackgroundColor=default;verticalAlign=top;aspect=fixed;imageAspect=0;image=data:image/png,iVBORw0KGgoAAAANSUhEUgAAAE0AAABGCAMAAAC+EOlBAAAAAXNSR0IArs4c6QAAAARnQU1BAACxjwv8YQUAAAFiUExURQAAAAAAAAAAAAAAAAAAAAAAAAAAAAAAAAAAAAAAAAAAAAAAAAAAAAAAAAAAAAAAAAAAAAAAAAAAAAAAAAAAAAAAAAAAAAAAAAAAAAAAAAAAAAAAAAAAAAAAAAAAAAAAAAAAAAAAAAAAAAAAAAAAAAAAAAAAAAAAAAAAAAAAAAAAAAAAAAUOEwUOEwUOEwUOEgUOEgQNEgQNEQQNEQQNEQQNEQQNEQQOFAQOFAQOFAQOFAQOFAELEgAKEAAKEAAHDgAKEAAHDgAHDQIHCgIHCgIHCgAMFQAECAAECBAuQxAuQgwkNQsgMAwkNQsgMAYUHQodKwACAwAfNQAfNgodKx5VfB5VewAJDwA+bQA/bQA/bgFBbwAMFQAFCAIHCgMHCgAAAAAjPAA4YABFdgBFdwBGeABJfgBPhgBPhwBUkABZmQBamQBamgBipwBiqABuvQBvvgBwvwBwwBlGZjCIxjKMzJre7/QAAABgdFJOUwABAgMEBQYHCAkKCwwNDg8QERITFBUWFxgZGhscHR4fICEiIyQlJicoOTo7bG1ub3F0dXZ3eHmztLW2t7jMzc7Oz9Dc3d7j7O3t7u/w8PHz8/T09PT19vf5+fn5+vv7/HWzT1AAAAAJcEhZcwAAFxEAABcRAcom8z8AAAURSURBVFhH7Zf5d9tEFIUbx7JkWbZl7bZkS3YCLWXf9wAthH0tUHALiCUQsAsJlP+f+2bGji29CTSH3+CenBOfGc+nO2807/ld+l//qna2pUYvJIXY2Wk0GurThXm0FhhoF5Kf1jz6sCkxqBd9RXKaKwkmraQ5IcUXUutYYZpYzaZhtJQMg4ANjItJEmOak2IZLdO0rLaQZZkEpOX0V/UsTLMSz36o3Nb1jt024RCrCXHmWZrW4wTs7T83dffdstdVPIBgeuVZmhYxYHEs7FbpueBh7bPK7ErX7bbkAacIG+JhyzL0Pbfr2M99pgalyLSDh7QMsVnFWIuCxsCW5TAOYe/5KuxWOXB7jm21WHME++aPLb0H2LLMRsC98LnCSCnTbq/TNmGuRqN9lt9t6dsbgC3LArgX67BlmUS+2+XNgbZb/r6lI0mbTtKXvv70o019KEynSej1O22W1mg0edpeMS5/3tKPN8XEJI191+FoZM3Q0SaViV8lrciSwO22TZbWZGmLcn+qoU3Hw1BDa+w2WxqazhtowWqnCiMlNmrqaGMdDTu9J9piUc7yjKchbn6/gzeEC1vL4mnFJOVpeRp5PZt5ewWtzdHm1/JsxNNwCAMcAkOjQ9iknUJHNxaL+cHlCU87fguvm9goF7YNGqEE7ZcvAUuHSXl6qqaEiHZ8+ABZ02z0jEagE9IPn3zx6pVJNkyItskD7fjw6gjWtDdB0dask9++v31wJR+nSRSXJycrHM3fufnT4YNZEg56HdOonaiiWR+rrLrSa5fzLB3GUQSawBEKuvOVgHmwpstHTcO0HdePh9mkmM729vZms2k+SUdxHIXVx7x5NRtSOlIJREHWInNGq+30BsHTasVKb0RRGIZRPBql4zwviiIvJmM4DmANyQ3eGgqyltiqYdnd/uPvqIwodff9Et7CMIjiZDjK0iwbj7N0hOzuD3qOLAvMTsmc2bYfq8CQ/hG4MAAwjCIAoeEwwZDvkjecwm69AspzMB+twZblKInjMPC9J9XWV3odRQZ1Vpir4fCjwHiEq1lj4FAFn6g+CDULx0DmmL0ikz9cqVkfiPSPmwVaNZ4IAc6hi5vFRg7e+JqFKpNENWcIQRR4roOr1ayXZ3rjKpdbZMsl8luaPFWHIaBxgNvAV0B9zcrHz7AhoDeYvw7iDdHQiowPATwH2izC1yxZT9WIkpooRLpkafS68Yv2cw1tNhnxqVxeBW7RguKmp7HezqNN82qVOaOJndbOlMLG1izQirGOdk511tYs5HKeNtXW03Um3xAtmh/cn40Snibqacdiw8bS5gf3ARbzNF091dEAk3VBjSgJ2vzaP6ynSke3X96nlO0HDG1+sH9+Pa3VrFdmlIu8gVenAYZXV/c7VdWsvhfGwxS5X2X/CL1Cv+8yIdhHccZvaMaaNGe0rE637wVhnAjFyF/UxzjdHhMCpCOkXjYdya2iynS6PXfg+UEQ+Nih2+85TsfuOPUQUDlFs8AmXtBE5EzLBq/XF4IrtGto0izb6br+dgjQ3siiwLVFZI7ctdDg2R0pm7oy9H54Bsp2JQSDVfnjYGuc7HOFiIQWlBpSYXkrBOgyUV90MLFXapuxWjS09I8aXGqWqSuthoCaSW1vKnDgUaste236IFp3yauGQBjTwiDF25AY4UMgGv1zYBJXlS4Ef8eSEgilsxH4rIbg7Av3KMXbEI1cjAWJxRWpqQtKQYTU0H9Wly79BWVgD242OWzDAAAAAElFTkSuQmCC;shadow=1;sketch=1;curveFitting=1;jiggle=2;" vertex="1" parent="QRdIB-d-0XUhI7obMMeW-105">
          <mxGeometry x="15" width="77" height="70" as="geometry" />
        </mxCell>
        <mxCell id="QRdIB-d-0XUhI7obMMeW-107" value="" style="shape=image;verticalLabelPosition=bottom;labelBackgroundColor=default;verticalAlign=top;aspect=fixed;imageAspect=0;image=data:image/png,iVBORw0KGgoAAAANSUhEUgAAAE0AAABGCAMAAAC+EOlBAAAAAXNSR0IArs4c6QAAAARnQU1BAACxjwv8YQUAAAFiUExURQAAAAAAAAAAAAAAAAAAAAAAAAAAAAAAAAAAAAAAAAAAAAAAAAAAAAAAAAAAAAAAAAAAAAAAAAAAAAAAAAAAAAAAAAAAAAAAAAAAAAAAAAAAAAAAAAAAAAAAAAAAAAAAAAAAAAAAAAAAAAAAAAAAAAAAAAAAAAAAAAAAAAAAAAAAAAAAAAUOEwUOEwUOEwUOEgUOEgQNEgQNEQQNEQQNEQQNEQQNEQQOFAQOFAQOFAQOFAQOFAELEgAKEAAKEAAHDgAKEAAHDgAHDQIHCgIHCgIHCgAMFQAECAAECBAuQxAuQgwkNQsgMAwkNQsgMAYUHQodKwACAwAfNQAfNgodKx5VfB5VewAJDwA+bQA/bQA/bgFBbwAMFQAFCAIHCgMHCgAAAAAjPAA4YABFdgBFdwBGeABJfgBPhgBPhwBUkABZmQBamQBamgBipwBiqABuvQBvvgBwvwBwwBlGZjCIxjKMzJre7/QAAABgdFJOUwABAgMEBQYHCAkKCwwNDg8QERITFBUWFxgZGhscHR4fICEiIyQlJicoOTo7bG1ub3F0dXZ3eHmztLW2t7jMzc7Oz9Dc3d7j7O3t7u/w8PHz8/T09PT19vf5+fn5+vv7/HWzT1AAAAAJcEhZcwAAFxEAABcRAcom8z8AAAURSURBVFhH7Zf5d9tEFIUbx7JkWbZl7bZkS3YCLWXf9wAthH0tUHALiCUQsAsJlP+f+2bGji29CTSH3+CenBOfGc+nO2807/ld+l//qna2pUYvJIXY2Wk0GurThXm0FhhoF5Kf1jz6sCkxqBd9RXKaKwkmraQ5IcUXUutYYZpYzaZhtJQMg4ANjItJEmOak2IZLdO0rLaQZZkEpOX0V/UsTLMSz36o3Nb1jt024RCrCXHmWZrW4wTs7T83dffdstdVPIBgeuVZmhYxYHEs7FbpueBh7bPK7ErX7bbkAacIG+JhyzL0Pbfr2M99pgalyLSDh7QMsVnFWIuCxsCW5TAOYe/5KuxWOXB7jm21WHME++aPLb0H2LLMRsC98LnCSCnTbq/TNmGuRqN9lt9t6dsbgC3LArgX67BlmUS+2+XNgbZb/r6lI0mbTtKXvv70o019KEynSej1O22W1mg0edpeMS5/3tKPN8XEJI191+FoZM3Q0SaViV8lrciSwO22TZbWZGmLcn+qoU3Hw1BDa+w2WxqazhtowWqnCiMlNmrqaGMdDTu9J9piUc7yjKchbn6/gzeEC1vL4mnFJOVpeRp5PZt5ewWtzdHm1/JsxNNwCAMcAkOjQ9iknUJHNxaL+cHlCU87fguvm9goF7YNGqEE7ZcvAUuHSXl6qqaEiHZ8+ABZ02z0jEagE9IPn3zx6pVJNkyItskD7fjw6gjWtDdB0dask9++v31wJR+nSRSXJycrHM3fufnT4YNZEg56HdOonaiiWR+rrLrSa5fzLB3GUQSawBEKuvOVgHmwpstHTcO0HdePh9mkmM729vZms2k+SUdxHIXVx7x5NRtSOlIJREHWInNGq+30BsHTasVKb0RRGIZRPBql4zwviiIvJmM4DmANyQ3eGgqyltiqYdnd/uPvqIwodff9Et7CMIjiZDjK0iwbj7N0hOzuD3qOLAvMTsmc2bYfq8CQ/hG4MAAwjCIAoeEwwZDvkjecwm69AspzMB+twZblKInjMPC9J9XWV3odRQZ1Vpir4fCjwHiEq1lj4FAFn6g+CDULx0DmmL0ikz9cqVkfiPSPmwVaNZ4IAc6hi5vFRg7e+JqFKpNENWcIQRR4roOr1ayXZ3rjKpdbZMsl8luaPFWHIaBxgNvAV0B9zcrHz7AhoDeYvw7iDdHQiowPATwH2izC1yxZT9WIkpooRLpkafS68Yv2cw1tNhnxqVxeBW7RguKmp7HezqNN82qVOaOJndbOlMLG1izQirGOdk511tYs5HKeNtXW03Um3xAtmh/cn40Snibqacdiw8bS5gf3ARbzNF091dEAk3VBjSgJ2vzaP6ynSke3X96nlO0HDG1+sH9+Pa3VrFdmlIu8gVenAYZXV/c7VdWsvhfGwxS5X2X/CL1Cv+8yIdhHccZvaMaaNGe0rE637wVhnAjFyF/UxzjdHhMCpCOkXjYdya2iynS6PXfg+UEQ+Nih2+85TsfuOPUQUDlFs8AmXtBE5EzLBq/XF4IrtGto0izb6br+dgjQ3siiwLVFZI7ctdDg2R0pm7oy9H54Bsp2JQSDVfnjYGuc7HOFiIQWlBpSYXkrBOgyUV90MLFXapuxWjS09I8aXGqWqSuthoCaSW1vKnDgUaste236IFp3yauGQBjTwiDF25AY4UMgGv1zYBJXlS4Ef8eSEgilsxH4rIbg7Av3KMXbEI1cjAWJxRWpqQtKQYTU0H9Wly79BWVgD242OWzDAAAAAElFTkSuQmCC;shadow=1;sketch=1;curveFitting=1;jiggle=2;" vertex="1" parent="QRdIB-d-0XUhI7obMMeW-105">
          <mxGeometry y="13" width="77" height="70" as="geometry" />
        </mxCell>
        <mxCell id="QRdIB-d-0XUhI7obMMeW-108" value="v&lt;span style=&quot;color: rgba(0, 0, 0, 0); font-family: monospace; font-size: 0px; text-align: start; background-color: rgb(251, 251, 251);&quot;&gt;%3CmxGraphModel%3E%3Croot%3E%3CmxCell%20id%3D%220%22%2F%3E%3CmxCell%20id%3D%221%22%20parent%3D%220%22%2F%3E%3CmxCell%20id%3D%222%22%20style%3D%22rounded%3D0%3BhachureGap%3D4%3BorthogonalLoop%3D1%3BjettySize%3Dauto%3Bhtml%3D1%3BentryX%3D0.47%3BentryY%3D0.964%3BentryDx%3D0%3BentryDy%3D0%3BfontFamily%3DArchitects%20Daughter%3BfontSource%3Dhttps%253A%252F%252Ffonts.googleapis.com%252Fcss%253Ffamily%253DArchitects%252BDaughter%3BflowAnimation%3D1%3Bdashed%3D1%3BstrokeWidth%3D2%3BentryPerimeter%3D0%3B%22%20edge%3D%221%22%20parent%3D%221%22%3E%3CmxGeometry%20relative%3D%221%22%20as%3D%22geometry%22%3E%3CmxPoint%20x%3D%22-2605%22%20y%3D%22157%22%20as%3D%22sourcePoint%22%2F%3E%3CmxPoint%20x%3D%22-2612%22%20y%3D%22-15%22%20as%3D%22targetPoint%22%2F%3E%3C%2FmxGeometry%3E%3C%2FmxCell%3E%3C%2Froot%3E%3C%2FmxGraphModel%3E&lt;/span&gt;" style="rounded=0;hachureGap=4;orthogonalLoop=1;jettySize=auto;html=1;entryX=0.5;entryY=1;entryDx=0;entryDy=0;fontFamily=Architects Daughter;fontSource=https%3A%2F%2Ffonts.googleapis.com%2Fcss%3Ffamily%3DArchitects%2BDaughter;flowAnimation=1;dashed=1;strokeWidth=2;exitX=0.5;exitY=0;exitDx=0;exitDy=0;" edge="1" parent="1" source="QRdIB-d-0XUhI7obMMeW-56" target="QRdIB-d-0XUhI7obMMeW-116">
          <mxGeometry relative="1" as="geometry">
            <mxPoint x="-2894" y="388" as="sourcePoint" />
            <mxPoint x="-2901" y="216" as="targetPoint" />
          </mxGeometry>
        </mxCell>
        <mxCell id="QRdIB-d-0XUhI7obMMeW-109" value="" style="group" vertex="1" connectable="0" parent="1">
          <mxGeometry x="-3388" y="-540" width="294" height="149" as="geometry" />
        </mxCell>
        <mxCell id="QRdIB-d-0XUhI7obMMeW-110" value="&lt;span style=&quot;font-size: 18px;&quot;&gt;MM_SBF&lt;b&gt;X&lt;/b&gt;1&amp;nbsp;&lt;/span&gt;&lt;div&gt;&lt;span style=&quot;font-size: 18px;&quot;&gt;MM Material Movement: (CDC+MOL) Line Item&lt;/span&gt;&lt;br&gt;&lt;/div&gt;" style="strokeColor=#0070F2;shadow=1;strokeWidth=2;rounded=0;whiteSpace=wrap;html=1;sketch=1;hachureGap=4;jiggle=2;curveFitting=1;fontFamily=72, sans-serif;fontSource=https%3A%2F%2Ffonts.googleapis.com%2Fcss%3Ffamily%3DArchitects%2BDaughter;" vertex="1" parent="QRdIB-d-0XUhI7obMMeW-109">
          <mxGeometry x="-78" y="55" width="372" height="94" as="geometry" />
        </mxCell>
        <mxCell id="QRdIB-d-0XUhI7obMMeW-111" value="" style="shape=image;verticalLabelPosition=bottom;labelBackgroundColor=default;verticalAlign=top;aspect=fixed;imageAspect=0;image=data:image/png,iVBORw0KGgoAAAANSUhEUgAAAGUAAAA8CAMAAABII4TCAAAAAXNSR0IArs4c6QAAAARnQU1BAACxjwv8YQUAAAH1UExURQAAAAAAAAAAAAAAAAAAAAAAAAAAAAAAAAAAAAAAAAAAAAAAAAAAAAAAAAAAAAAAAAAAAAAAAAAAAAAAAAAAAAAAAAAAAAAAAAAAAAAAAAAAAAAAAAAAAAAAAAAAAAAAAAAAAAAAAAAAAAAAAAAAAAAAAAAAAAAAAAAAAAAAAAAAAAAAAAAAAAAAAAAAAAAAAAAAAAAAAAAAAAAAAAAAAAAAAAAAAAAAAAAAAAAAAAAAAAAAAAQICAAAAAAAAAAAAAAAAAAAAAIFBwAAAAAICwAKDQcPEggPEgALDwgPEgAOEgANEQANEgANEgAOEwkTFwkQFAkQFAANEgANEQAKDwALEAYMDgULDQAJDAULDQAJDAAeKQAjMAAqOREjKhQqMRkxOgAwQQ4dIgwWGgAHCQAHCQYzQwY6TAcoMxQsNBs6RB9BTgAPFAVAVREmLSRJVgBEXQ4fJShQXwAKDQMGBwUYHgsaHydRXwAFBwUTGC5fcQBKZgNMZgQHCShSYStYaCtYaS5fcChSYQBRcAFScAIDBAJdfgQJDDBhcgIFBgAAAABYeABjhwBojgBulgBznQB5pQB+rACEtACJuwCPwwCUygCa0gCf2QCl4QCq6ACw8DNoezZugjl1ikCCmUOIoUaPqUycuFavz1m212DD52PJ7mbQ9laT9xQAAACKdFJOUwABAgMEBQYHCAkKCwwNDg8QERITFBUWFxgZGhscHR4fICUpKi4yNTc+QkNERk5QU1RWWF9laXBzdnp7goKDhIeOj4+Qo6urtba4u77BxMrM0NHV3N7i5evs7O3v7+/v7+/w8PHy8/Pz8/Pz8/T09PT19fX29vb29vf39/j4+Pj4+Pj5+/v7+/v7/V+IQqIAAAAJcEhZcwAAFxEAABcRAcom8z8AAAQtSURBVFhH7Zj5d9tEEIATJ7Ik65YsK/IRSilnuMpNuTG03AQDhYK5ylEHyllKKfcNXSdN6xZakkIxAf5OZlajvtRaOdfyeH2v30+2dma+tzuSnnZHznMuM7oSFLceqMLaoNzVQBmcwiqhcISqDIVCKbkwtozxDDSAUHySTbXy4DEYzTOTUkpKcRC6rihJYCpbwUMKrG9eMTU1te0OYJrzxCD33glcCUQqkDq5argHHRdffutt09PPsO9fAn5aBPpiTuEYBn3OPkTnVZdpGtrARB6qOsDmG7fvZLuhdL+/9M9a+AudL7/Idj14y6VoAk+e5qadr37w+5+Utz6WTn+5e9ftnqYWEw1VXsaOLzZmSFn65HFD14qKWMO+kWT5mtlmScPZiCyz+z86sOEV++r9gz8wDzQq9iarYQsLP8+9vZ+98+bi6X7/b8pbJf3+H4tvzbCDe2aPLyywsmcbOq5ZxjIKFs6xI909nc4hdmhmZuZduFdP0Y2b5TcYPQBRPzLW6bzRne9RBRaVXQsnM8SS8muv1zvc7Xa/6+TxGYzOQdRJykhhccW3DegM9J+qp2Qs64fVosAxdd5/qp4i09KYKLtCy6hUS/z/WgqyLdj9gXsM3sVS+xI4hpa9k+Va6hHcyWr2qZRrqVV8fCqzlsKYREs19CxB82EqMi35zZdpiQJ4wQjbMi7Rkt8WmZbQEz2TuGCKREvZyWuLTEt+W4oSLZ64LZItea/KMakWeInltEWVaLFzFkyuhRbsP7aIFowsT81T0EY5+qxowbhlvLjpkX3vzf9CkevlxJFP9z52EUwla0nuMc248OaHntvX/na2d4Jy1sLJ3ly3vfe1R7dtwa9XgQQnM66oJdPxwy3X3nVf63XGnm+/AN90h+Gb7hiVyXIcRuch6pV2m7GPW/fffc0lYQBfleKp0JJphuX6YRRX643Jyauvu77ZbD7QarWeZHk8DaMPN5v33LB1a6Neq8ZRpew7FrReOBW04GR0w3K8oFyJJuJqtVar1+uNBggnJy/gbOIkv/EqDDbq9VqtVq3GExEoAt/lewr4rBBZkskoqlYyLcf1/KAchpVKFE0AcQxKAKoR/C9cjmE0guqVMCyDwXMd2+T7I+F6AbhrBU1R00uGadmO63qe7/tBEJSBEKgsA/9DYSgdBBDleS4IbMs0Sjrf66FEZEk1SlFFkWGalmXZtu0ALuANgNdcHIQYiDRNAwyoGLZvBVADHphPUVU1Tdf1Ugl0KESg1DKSazgKQVBe12gPjpv9IRLSFPC0QuFnFHhSADoAqgjgQ1D7zHkCP7pIzi2opAgYPXMywo878CTirEMRLqbfQDKenI1gEimGSgAewk10CoPwImIogpdHknwqNowkEKDEFCpH0MUUSkGozCqghLOhghy6NABlrxXKXgEKPs85x8jIv6FnG3k+2K4LAAAAAElFTkSuQmCC;shadow=1;sketch=1;curveFitting=1;jiggle=2;" vertex="1" parent="1">
          <mxGeometry x="-3462" y="-513" width="84.17" height="50" as="geometry" />
        </mxCell>
        <mxCell id="QRdIB-d-0XUhI7obMMeW-112" value="" style="shape=image;verticalLabelPosition=bottom;labelBackgroundColor=default;verticalAlign=top;aspect=fixed;imageAspect=0;image=data:image/png,iVBORw0KGgoAAAANSUhEUgAAAEcAAAA9CAMAAADI14SKAAAAAXNSR0IArs4c6QAAAARnQU1BAACxjwv8YQUAAAGVUExURQAAAAAAAAAAAAAAAAAAAAAAAAAAAAAAAAAAAAAAAAAAAAAAAAAAAAAAAAAAAAAAAAAAAAAAAAAAAAAAAAAAAAAAAAAAAAAAAAAAAAAAAAAAAAAAAAAAAAAAAAAAAAAAAAAAAAAAAAAAAAAAAAAAAAAAAAAAAAAAAAAAAAAAAAAAAAAAAAAAAAAAAAAAAAAAAAAAAAAAAAAAAAAAAAAAAAAAAAAAAAAAAAAAAAAAAAAAAAAAAAAAAAAAAAAAAAcKBQAAAAcJBQAAAAcJBQcJBAcJBAYJBAYJBAYIBAQGAgYHBAQFAgQFAgQFAgMFAgcKAwMFAgcKAwcKAwYKAwYHAwQHAwQHAwQHAwQHAwcLBAoOBgoOBgoOBgYJBAYJBAYJBAYIAwYIAwECAQgLBAoOBQUHAwEBARUeDCQzEwcKBAwRBjJIGxYgDQgMBSo7FwkMBQ0UBxchDCU1FUZkJgUHAwoOBT5YIgEBAAYIAwoPBjVLHQMEAgAAAFuCMmCINGmVOXKiPnepQYC2RoS8SInDS43JTZLQUG9xMO4AAAB8dFJOUwABAgMEBQYHCAkKCwwNDg8QERITFBUWFxgZGhscHR4fICEiIyQlJicpKywtLzAxMjQ1NjpKS0xNTlBTWV9ka2tubm9xc3V3eIOLi42PkZSUlZiZoauusLGysrW2t8nKy97f4evv8PHx8fPz8/T19fb29vb3+Pj4+fn5+fzzdlIsAAAACXBIWXMAABcRAAAXEQHKJvM/AAAEeElEQVRYR+2W6ZvaVBTGJ2xJICSQjQBhCQzjWutS61qr1nHXutW6tY5WBTrV6dSt1juOjHD/7p5z7wWSQEKfx0/69P0wA/c9/M7NyV3O1n39HyRJkvj0LwQQLvE9JmGCxMCKTuEfEcPFhiOSAmGhxFhcPwAI3MxcayKl4NuFnwgi41MMk+VajZSk4BpJtucix+PHJAjL5fKgHA8VHgoxR4TbObQTQIQef/cUYPIFWZYLBSBFQJLUu3ZEST5fQMXdkAilk/EZoCiqqiqKHAmF3Ke/P6KUyApKZqD1EwIOnfx4VlaLJU0rFVW5sAQhZvwXBBBwS2AqAsR+GRVy6OTg2VJZNwy9XIJYnhOVOT0+Rp9oZZBW4lmSOQB6waiaZrWia0UGYqQ5hhKjUqkYzMuncujk9ku249hW1ZiDQHMMJaZlWWZFhwklcCTBoSfXX/M8z7URhMXOZrJnfhEYShzXdWyTW+kcenJzt9ms1xyIxjLkck8f/C0sSrw6OFalfA8cAL3ebjU8p6ojKH/2YCIM4Pg+pLCTOVKIA6D3u+2mZwOoqDwTwlDSxgx2FTlr6xPhAOiDoN2sIejFMIaSgCe4Rw7958aHHPTKr2EMJf2g43vwXKq8fv1ImQiHTg8/ClqN2oWbJ2KAi2z3GEdT2ToUP14KllqUA6BPuq3dGIaSQb/j1yyjBEtr/WPFOQC6/EYcwzjNmqmXlKTyrHDo9I8/4xhKdnqdhptS5kx2hfPz3pV98XEhMui1605aeVY4v+09/tCVn2bimxAZBC3PNrTk8sQ5d/ae2Nl+8MtbURDZ7kKZ08qTi3LufPPkA4Ne0PkiCiJQZtdMK0+Us/81YPrdTqv1+SgMIhvLkw9z9q8+CrPptv1mo3FpNBWjIMLKk7J6wpwZYHa2g06rUfdqXv3S4RJENpansODMbl19ZNCH7QUnjW07rndxCSKbVs+SMxt99TDsIjyALLNarVqOd/HGHERa9dTNlc3JgjMbfdbvBW2/jierXi7rFdPx3hsKEPG91M2VzQvObHQ5gMo0YTJwZZSKxVLZYCC+RUjDNfXks2fBmY0+7XRaPhydpoFXmKKoRQ1Bb/MtS1LPHihzXkHO9PBj3/cbnmuxIxWuebimGajOjxDiWmxTrCvPkjMdvlvHd22bFZgMXuLQXRQ4yNu9DiACR20x4a0vONPhO26t5jpwB5ZhMnh3gXIAwhrVXgUQYZdRGkcm0+FbpmXDTcrvZNZvgOYg23n59oTARJMea17n4ZtGpVrF25u3AZgULPAYqGKa5w5Iyo3MOLAOz0OnoevQTPBn4h3CAqSVDcN4/ndx6Sdz8ucUFVobaG6WXRIEMxAWW4WuSNOew86HeeK3YbGcOXjDrBNjlFAoZoEZQZtWLKrsJSZMh+XE/hEbQ/ay+TMJV6Th7mKqwouKRUIoa1RjFJ6G5WF2cqMqIlnLyzrjeCAHoY2UZAyLRBIXfhHjQnN7XZKoMBJj+X8xGBIbXp8kJhbJJAaiEh5KjCRqU9Am/77+G9raugtzRbokQ2TNnQAAAABJRU5ErkJggg==;shadow=1;sketch=1;curveFitting=1;jiggle=2;" vertex="1" parent="1">
          <mxGeometry x="-3337" y="-659" width="67.51" height="58" as="geometry" />
        </mxCell>
        <mxCell id="QRdIB-d-0XUhI7obMMeW-113" style="rounded=0;hachureGap=4;orthogonalLoop=1;jettySize=auto;html=1;entryX=0.5;entryY=1;entryDx=0;entryDy=0;fontFamily=Architects Daughter;fontSource=https%3A%2F%2Ffonts.googleapis.com%2Fcss%3Ffamily%3DArchitects%2BDaughter;flowAnimation=1;dashed=1;strokeWidth=2;exitX=0.459;exitY=0.032;exitDx=0;exitDy=0;exitPerimeter=0;" edge="1" parent="1" source="QRdIB-d-0XUhI7obMMeW-110" target="QRdIB-d-0XUhI7obMMeW-104">
          <mxGeometry relative="1" as="geometry">
            <mxPoint x="-2603" y="-91" as="sourcePoint" />
            <mxPoint x="-2614" y="-433" as="targetPoint" />
          </mxGeometry>
        </mxCell>
        <mxCell id="QRdIB-d-0XUhI7obMMeW-114" style="rounded=0;hachureGap=4;orthogonalLoop=1;jettySize=auto;html=1;entryX=0.477;entryY=1.025;entryDx=0;entryDy=0;fontFamily=Architects Daughter;fontSource=https%3A%2F%2Ffonts.googleapis.com%2Fcss%3Ffamily%3DArchitects%2BDaughter;flowAnimation=1;dashed=1;strokeWidth=2;entryPerimeter=0;exitX=0.5;exitY=0;exitDx=0;exitDy=0;" edge="1" parent="1" source="QRdIB-d-0XUhI7obMMeW-116" target="QRdIB-d-0XUhI7obMMeW-110">
          <mxGeometry relative="1" as="geometry">
            <mxPoint x="-3025" y="-99" as="sourcePoint" />
            <mxPoint x="-3325" y="-760" as="targetPoint" />
          </mxGeometry>
        </mxCell>
        <mxCell id="QRdIB-d-0XUhI7obMMeW-115" value="" style="group" vertex="1" connectable="0" parent="1">
          <mxGeometry x="-3464" y="-135" width="337.42999999999984" height="127.34" as="geometry" />
        </mxCell>
        <mxCell id="QRdIB-d-0XUhI7obMMeW-116" value="&lt;span style=&quot;font-size: 18px;&quot;&gt;MM_SBF1&lt;/span&gt;&lt;br&gt;&lt;div&gt;&lt;span style=&quot;background-color: initial; font-size: 18px;&quot;&gt;Material Movements: Line Item (Delta)&lt;/span&gt;&lt;span style=&quot;font-size: 18px;&quot;&gt;&amp;nbsp;&lt;/span&gt;&lt;br&gt;&lt;/div&gt;" style="strokeColor=#0070F2;shadow=1;strokeWidth=2;rounded=0;whiteSpace=wrap;html=1;sketch=1;hachureGap=4;jiggle=2;curveFitting=1;fontFamily=72, sans-serif;fontSource=https%3A%2F%2Ffonts.googleapis.com%2Fcss%3Ffamily%3DArchitects%2BDaughter;" vertex="1" parent="QRdIB-d-0XUhI7obMMeW-115">
          <mxGeometry y="35.17" width="337.43" height="92.17" as="geometry" />
        </mxCell>
        <mxCell id="QRdIB-d-0XUhI7obMMeW-117" value="" style="shape=image;verticalLabelPosition=bottom;labelBackgroundColor=default;verticalAlign=top;aspect=fixed;imageAspect=0;image=data:image/png,iVBORw0KGgoAAAANSUhEUgAAAIYAAAA8CAMAAACU9jKwAAAAAXNSR0IArs4c6QAAAARnQU1BAACxjwv8YQUAAADPUExURQAAAAAAAAAAAAAAAAAAAAAAAAAAAAAAAAAAAAAAAAAAAAAAAAAAAAAAAAAAAAAAAAAAAAAAAAAAAAAAAAAAAAAAAAAAAAAAAAAAAAAAAAAAAAAAAAAAAAAAAAAAAAAAAAAAAP8NA/UQAPQPAPIPAP4AAP0KAv8zDP01DP8AAP8qA/4DAP8YBuFeAN1vAf8UAv8DAOpIAf8DAfYbAM2aAOZNAP8AAP8NA/8mCf9AEP9aFv9gAP9yHP+MIv+SJP+ZJf+mKf+/L//AAP/GMP/MMigenE8AAAA0dFJOUwABAgMEBQYHCAkKCwwNDg8QERITFBUWFxgZGhscHR4fIE60tbbQ3Ojv7/P09PX5+fr7+/yagY+BAAAACXBIWXMAABcRAAAXEQHKJvM/AAACm0lEQVRoQ+2Y2ZbTMAxAu2RztrpN0iXMTOl0gGEJazA7A7T//03YjuYcHiw3cBzx0vvaWLpHUtpaozNn/pXxIEDwfsCZgYAkp9DPTgZCB4dENsBhKvHcokKCCORC6SSUgS8JgEeiL0/hhAkZULloEUiHsHsL4Ybise+d9tg9ORwNfIMYPfgKR8wcbkUIHpDRwBixOH6GHD34AUeMHG5fChYG0sNSDtTi+BFynOYDnDAiLVqRMF0PVAO3+Ak5evAJjphQFq3IlAeugVs4Gg1t0QqexVHgYdNhsXAzGp1FKxZ5IjWQctgsnIwGWLSimKUsxDRsFi64t2hFyTN0OHYvvt8Nyr1FK6p5FiMa49fPhuXVG7DQGlhTxuLXsHx5DxZSg6dMjyjk/gNKjVJrGItBqVHM1Av73zUWOTKh8g8GoQb6otBqoBNKq4GPxmRKqJEnaE8oNSyjQalhGQ2PUMMyGpQalp74hBrI7xq1BvpNPvECQg1zT/Ro0Gk015aehFQazTXek6kfEWk0e/T/nxoNIo1mj94NtAYj0Whu5NXAXIxuQkk0pIVsifm+pkbDCyk0mht9a0SKQaWhagEWmAZBU95ZLUAjeg530MHYp0xbGFuiNdQLG2e8WK7ri8ur7fahI7bb7dXlRb1ZlQuulhoWi64cfsiSnBfVar2p6wfOqOvNerWUErlsCKx4EAvoSsjSnM+LsqqW7qiqsizmPJeliAK7he7K1A8ilqT5jPO5U/gsz9JElkI2xGoB5fCDMGJxkqaZS9I0SWImJXrsQuWnaimsRCKmiN2gY0XSQUmcKIVCeciCeLCaDl2ho/VeT4OHWtXDht0l/Zf12kOJdC4u0TFV9B4SCv2oRJ9zBgTtK6GAAwMACc6c+StGo9+HPd6fS8FEcwAAAABJRU5ErkJggg==;sketch=1;hachureGap=4;jiggle=2;curveFitting=1;fontFamily=Architects Daughter;fontSource=https%3A%2F%2Ffonts.googleapis.com%2Fcss%3Ffamily%3DArchitects%2BDaughter;" vertex="1" parent="QRdIB-d-0XUhI7obMMeW-115">
          <mxGeometry x="32" width="78.17" height="35" as="geometry" />
        </mxCell>
        <mxCell id="QRdIB-d-0XUhI7obMMeW-118" value="" style="shape=image;verticalLabelPosition=bottom;labelBackgroundColor=default;verticalAlign=top;aspect=fixed;imageAspect=0;image=data:image/png,iVBORw0KGgoAAAANSUhEUgAAAEcAAAA9CAMAAADI14SKAAAAAXNSR0IArs4c6QAAAARnQU1BAACxjwv8YQUAAAGVUExURQAAAAAAAAAAAAAAAAAAAAAAAAAAAAAAAAAAAAAAAAAAAAAAAAAAAAAAAAAAAAAAAAAAAAAAAAAAAAAAAAAAAAAAAAAAAAAAAAAAAAAAAAAAAAAAAAAAAAAAAAAAAAAAAAAAAAAAAAAAAAAAAAAAAAAAAAAAAAAAAAAAAAAAAAAAAAAAAAAAAAAAAAAAAAAAAAAAAAAAAAAAAAAAAAAAAAAAAAAAAAAAAAAAAAAAAAAAAAAAAAAAAAAAAAAAAAcKBQAAAAcJBQAAAAcJBQcJBAcJBAYJBAYJBAYIBAQGAgYHBAQFAgQFAgQFAgMFAgcKAwMFAgcKAwcKAwYKAwYHAwQHAwQHAwQHAwQHAwcLBAoOBgoOBgoOBgYJBAYJBAYJBAYIAwYIAwECAQgLBAoOBQUHAwEBARUeDCQzEwcKBAwRBjJIGxYgDQgMBSo7FwkMBQ0UBxchDCU1FUZkJgUHAwoOBT5YIgEBAAYIAwoPBjVLHQMEAgAAAFuCMmCINGmVOXKiPnepQYC2RoS8SInDS43JTZLQUG9xMO4AAAB8dFJOUwABAgMEBQYHCAkKCwwNDg8QERITFBUWFxgZGhscHR4fICEiIyQlJicpKywtLzAxMjQ1NjpKS0xNTlBTWV9ka2tubm9xc3V3eIOLi42PkZSUlZiZoauusLGysrW2t8nKy97f4evv8PHx8fPz8/T19fb29vb3+Pj4+fn5+fzzdlIsAAAACXBIWXMAABcRAAAXEQHKJvM/AAAEeElEQVRYR+2W6ZvaVBTGJ2xJICSQjQBhCQzjWutS61qr1nHXutW6tY5WBTrV6dSt1juOjHD/7p5z7wWSQEKfx0/69P0wA/c9/M7NyV3O1n39HyRJkvj0LwQQLvE9JmGCxMCKTuEfEcPFhiOSAmGhxFhcPwAI3MxcayKl4NuFnwgi41MMk+VajZSk4BpJtucix+PHJAjL5fKgHA8VHgoxR4TbObQTQIQef/cUYPIFWZYLBSBFQJLUu3ZEST5fQMXdkAilk/EZoCiqqiqKHAmF3Ke/P6KUyApKZqD1EwIOnfx4VlaLJU0rFVW5sAQhZvwXBBBwS2AqAsR+GRVy6OTg2VJZNwy9XIJYnhOVOT0+Rp9oZZBW4lmSOQB6waiaZrWia0UGYqQ5hhKjUqkYzMuncujk9ku249hW1ZiDQHMMJaZlWWZFhwklcCTBoSfXX/M8z7URhMXOZrJnfhEYShzXdWyTW+kcenJzt9ms1xyIxjLkck8f/C0sSrw6OFalfA8cAL3ebjU8p6ojKH/2YCIM4Pg+pLCTOVKIA6D3u+2mZwOoqDwTwlDSxgx2FTlr6xPhAOiDoN2sIejFMIaSgCe4Rw7958aHHPTKr2EMJf2g43vwXKq8fv1ImQiHTg8/ClqN2oWbJ2KAi2z3GEdT2ToUP14KllqUA6BPuq3dGIaSQb/j1yyjBEtr/WPFOQC6/EYcwzjNmqmXlKTyrHDo9I8/4xhKdnqdhptS5kx2hfPz3pV98XEhMui1605aeVY4v+09/tCVn2bimxAZBC3PNrTk8sQ5d/ae2Nl+8MtbURDZ7kKZ08qTi3LufPPkA4Ne0PkiCiJQZtdMK0+Us/81YPrdTqv1+SgMIhvLkw9z9q8+CrPptv1mo3FpNBWjIMLKk7J6wpwZYHa2g06rUfdqXv3S4RJENpansODMbl19ZNCH7QUnjW07rndxCSKbVs+SMxt99TDsIjyALLNarVqOd/HGHERa9dTNlc3JgjMbfdbvBW2/jierXi7rFdPx3hsKEPG91M2VzQvObHQ5gMo0YTJwZZSKxVLZYCC+RUjDNfXks2fBmY0+7XRaPhydpoFXmKKoRQ1Bb/MtS1LPHihzXkHO9PBj3/cbnmuxIxWuebimGajOjxDiWmxTrCvPkjMdvlvHd22bFZgMXuLQXRQ4yNu9DiACR20x4a0vONPhO26t5jpwB5ZhMnh3gXIAwhrVXgUQYZdRGkcm0+FbpmXDTcrvZNZvgOYg23n59oTARJMea17n4ZtGpVrF25u3AZgULPAYqGKa5w5Iyo3MOLAOz0OnoevQTPBn4h3CAqSVDcN4/ndx6Sdz8ucUFVobaG6WXRIEMxAWW4WuSNOew86HeeK3YbGcOXjDrBNjlFAoZoEZQZtWLKrsJSZMh+XE/hEbQ/ay+TMJV6Th7mKqwouKRUIoa1RjFJ6G5WF2cqMqIlnLyzrjeCAHoY2UZAyLRBIXfhHjQnN7XZKoMBJj+X8xGBIbXp8kJhbJJAaiEh5KjCRqU9Am/77+G9raugtzRbokQ2TNnQAAAABJRU5ErkJggg==;shadow=1;sketch=1;curveFitting=1;jiggle=2;" vertex="1" parent="1">
          <mxGeometry x="-3317" y="-297" width="67.51" height="58" as="geometry" />
        </mxCell>
        <mxCell id="QRdIB-d-0XUhI7obMMeW-119" value="" style="shape=image;verticalLabelPosition=bottom;labelBackgroundColor=default;verticalAlign=top;aspect=fixed;imageAspect=0;image=data:image/png,iVBORw0KGgoAAAANSUhEUgAAAFUAAABKCAMAAAD9q+gmAAAAAXNSR0IArs4c6QAAAARnQU1BAACxjwv8YQUAAAHdUExURQAAAAAAAAAAAAAAAAAAAAAAAAAAAAAAAAAAAAAAAAAAAAAAAAAAAAAAAAAAAAAAAAAAAAAAAAAAAAAAAAAAAAAAAAAAAAAAAAAAAAAAAAAAAAAAAAAAAAAAAAAAAAAAAAAAAAAAAAAAAAAAAAAAAAAAAAAAAAAAAAAAAAAAAAAAAAAAAAAAAAAAAAAAAAAAAAAAAAAAAAAAAAAAAAAAAAAAAAAAAAAAAAAAAAAAAAAAAAAAAAAAAAAAAAAAAAAAAAAAAAAAAAAAAAAAAAAAAAAAAAAAAAAAAAAAAAAAAAAAAAAAAAAAAAAAAAAAAAAAAAAAAAAAAAgGAAgGAAgGAAgGAAAAAAcGAAcGAAcFAAcFAAcFAAcFAAcFAAwJAAwJAAsJAAsJAAkHAAsIAAsIAA4KAAkHAAoIAAoIADMmADMmADMmADMmABUQAAYFABUQABgSAAgGAAwJABgSAEExAGFJAFQ/AFxGAHpcAAMCAAoIAFQ/AFxFAAMCAAQDAAAAAAgGAAkHAAoIABAMABgSACAYACgeADAkADgqAEg2AFA8AFhCAFpEAGBIAGhOAHhaAH9gAIdmAJdyAJ94AKd+ALeKAL+QAMeWAM+cANeiAN+oAOeuAO+0APe6AP/AAIw4rmsAAAB/dFJOUwABAgMEBQYHCAkKCwwNDg8QERITFBUWFxgZGhscHR4fICEiIyQlJicoKSorLC0xMjM1Njc4OTo7PD9ARkhKTU9RUlNUVVZXWFlaW1xdXl9ye4GEhYaHiImLjZCSk5TEx8nK19jZ29ze3+/w8fL09fX29/f39/f5+fn6+vr6+/ztnrQCAAAACXBIWXMAABcRAAAXEQHKJvM/AAAFDUlEQVRYR+3Y93faVhQHcA+mEEgCxN7BGOymI22a7pGJ485075EOt6Ft2nSmbtWUNDhx7NShxMZDf2vvfe9pGBAgw4/+nmNbCPw5l/eueHpMHOYwB84kDXs0cjzww0gaenq0iJ9eINYUzXhY8eLPly8gOU0zFle8+Iu6ffm1qWmHw4lxMJc9fbAgqgL7usPpcmNc4I7KUhTZNzweL8dxXg91R1ElhiL7lo/3+/28z+uxxeIk7I+BIvu2KEmiEOA5j9vpwEFg/2cZpnTEjAJ75R1ZDockwe+DarHY/iwhaDOaE9TQzT3yZ/vKu/FYVA6JyA4aA0aybjQS0tDWnz9q7HupZCwCLDeIJeY0dCNtRz3yZxr6/cKHOvt+JhUHluesh/ZzpU+u3SaQ2voLHvygsx9kgQ0KvNdNhpZJ5ijklT2z21ijB616C34rH5nZmCwFrIfWWu1AVaX8sYlNRmEMLIu1VDtRVSke/cRg04lI0LpYK7ULVZXZyqtX2/T49y9KtFib6la9SQ/u/rNND5S5V65u0cPlLx/IpeOy5Ic2sKUabJOxigl9qJjP4BBwHmguO2oXq+jo0rFZpvpsqx1s828dfbhcKuZhBA5S6362WTfQyuxMATo2fIBxxRjsdQN9pFIuHclDZ4Usr67JvqqJNdA5RDNJKNWyX7vUvdVNetBe3YHfOkuzvHRcQ+U+HwRd6r/rK3fwAtpobNzEx/vYDhQ/tIZSt1b2ANxsI71GPBML6DygOQ21ul4nO9U7t3bhza80YBj21lfJKZ1dXnp0vgJoOhENSwY6hKo2b+BlD2Ow2digZzT2thkN8LDMAtqr1B6qunOdGPe0VoIQdu3aifsqcE0BGhIDPq/bEp2YnOpUt+lk4XSxZoAAu9ZQjs4RFNcsQNntC4PMgeWqQ/2PWBsot1e0IUC2savMl2cKGawU1lc2+73QHmoTPlWhAUihd9fZScjWLnwSzh7B65Qs2n3QHqp6s0VEkNs36FBoUcoz+JFCrihofksUhnW6U92pa+Nav0f+6lGg1KS+tPYeUgyU2qViU9HsrxRULBXev+UVxdJTtYxSzCWjfVZALaA6bKiFTL+lSo9NNZ+KhYSBpeJk2VGzZP0bolRbKs6V5R2AHlSdNlSYKzIAfVHbtfZb/owQ9duvvoZc0lL7iRmq+mutVmNnSf6AK2DwXFF15smnnn7m2edOnj5zrrpwfvHl75ipqrU3X3phcfH8QrVaPXf2zKmTJ/D+emCphHU43RwvBMOReCKVzuYKj5vUF0vFQj6XzaRTyUR82L0AK9bl4fyCFJIjsXgylXnMUC8twgqVBjAWi0Zksm+xvF81h6hOt4fjA4IURDhx/BtmglrNphOwXwmHQ0FjjzWMylgvbPkCIhQcPWZSz8LdP+ytREEIwH4Q9plD7gdBRdYFLgewIIUfNKmnYuR987wPtq7G3nWgyliylQaYD4j3m9TnYdH3+6BGD+yyXXT/PgyKY0B3Wk5SsC9Q+o3uiTBP4J2EF/ftIDpsfSdAWNwUYsHAijC48QRMfAQXfbiTQBGeBhLN4VBaLoUdlA2G5UhEDgdFipIaGTmsiSGvJwOMrF8QpSC2ErYnND193yTs9UMH/4exnM/vD0Ar+aA98UpiJnuhzTDW6SLfgWArjeXbFY0lXYa9hLM0ookhrPblEjHHgGrlaqHzzp4aJaCAy4IPxoFS1hR2dgxh4DjJw4yQiYn/AVONP5FsOPafAAAAAElFTkSuQmCC;shadow=1;sketch=1;curveFitting=1;jiggle=2;" vertex="1" parent="1">
          <mxGeometry x="-2050" y="1023" width="57.43" height="50" as="geometry" />
        </mxCell>
        <mxCell id="QRdIB-d-0XUhI7obMMeW-122" value="" style="rounded=0;hachureGap=4;orthogonalLoop=1;jettySize=auto;html=1;fontFamily=Architects Daughter;fontSource=https%3A%2F%2Ffonts.googleapis.com%2Fcss%3Ffamily%3DArchitects%2BDaughter;flowAnimation=1;dashed=1;strokeWidth=2;entryX=0.5;entryY=1;entryDx=0;entryDy=0;" edge="1" parent="1" source="QRdIB-d-0XUhI7obMMeW-32" target="QRdIB-d-0XUhI7obMMeW-36">
          <mxGeometry relative="1" as="geometry">
            <mxPoint x="-1623" y="948" as="sourcePoint" />
            <mxPoint x="-1690" y="-883" as="targetPoint" />
          </mxGeometry>
        </mxCell>
        <mxCell id="QRdIB-d-0XUhI7obMMeW-36" value="" style="shape=image;verticalLabelPosition=bottom;labelBackgroundColor=default;verticalAlign=top;aspect=fixed;imageAspect=0;image=data:image/png,iVBORw0KGgoAAAANSUhEUgAAAEcAAAA9CAMAAADI14SKAAAAAXNSR0IArs4c6QAAAARnQU1BAACxjwv8YQUAAAGVUExURQAAAAAAAAAAAAAAAAAAAAAAAAAAAAAAAAAAAAAAAAAAAAAAAAAAAAAAAAAAAAAAAAAAAAAAAAAAAAAAAAAAAAAAAAAAAAAAAAAAAAAAAAAAAAAAAAAAAAAAAAAAAAAAAAAAAAAAAAAAAAAAAAAAAAAAAAAAAAAAAAAAAAAAAAAAAAAAAAAAAAAAAAAAAAAAAAAAAAAAAAAAAAAAAAAAAAAAAAAAAAAAAAAAAAAAAAAAAAAAAAAAAAAAAAAAAAcKBQAAAAcJBQAAAAcJBQcJBAcJBAYJBAYJBAYIBAQGAgYHBAQFAgQFAgQFAgMFAgcKAwMFAgcKAwcKAwYKAwYHAwQHAwQHAwQHAwQHAwcLBAoOBgoOBgoOBgYJBAYJBAYJBAYIAwYIAwECAQgLBAoOBQUHAwEBARUeDCQzEwcKBAwRBjJIGxYgDQgMBSo7FwkMBQ0UBxchDCU1FUZkJgUHAwoOBT5YIgEBAAYIAwoPBjVLHQMEAgAAAFuCMmCINGmVOXKiPnepQYC2RoS8SInDS43JTZLQUG9xMO4AAAB8dFJOUwABAgMEBQYHCAkKCwwNDg8QERITFBUWFxgZGhscHR4fICEiIyQlJicpKywtLzAxMjQ1NjpKS0xNTlBTWV9ka2tubm9xc3V3eIOLi42PkZSUlZiZoauusLGysrW2t8nKy97f4evv8PHx8fPz8/T19fb29vb3+Pj4+fn5+fzzdlIsAAAACXBIWXMAABcRAAAXEQHKJvM/AAAEeElEQVRYR+2W6ZvaVBTGJ2xJICSQjQBhCQzjWutS61qr1nHXutW6tY5WBTrV6dSt1juOjHD/7p5z7wWSQEKfx0/69P0wA/c9/M7NyV3O1n39HyRJkvj0LwQQLvE9JmGCxMCKTuEfEcPFhiOSAmGhxFhcPwAI3MxcayKl4NuFnwgi41MMk+VajZSk4BpJtucix+PHJAjL5fKgHA8VHgoxR4TbObQTQIQef/cUYPIFWZYLBSBFQJLUu3ZEST5fQMXdkAilk/EZoCiqqiqKHAmF3Ke/P6KUyApKZqD1EwIOnfx4VlaLJU0rFVW5sAQhZvwXBBBwS2AqAsR+GRVy6OTg2VJZNwy9XIJYnhOVOT0+Rp9oZZBW4lmSOQB6waiaZrWia0UGYqQ5hhKjUqkYzMuncujk9ku249hW1ZiDQHMMJaZlWWZFhwklcCTBoSfXX/M8z7URhMXOZrJnfhEYShzXdWyTW+kcenJzt9ms1xyIxjLkck8f/C0sSrw6OFalfA8cAL3ebjU8p6ojKH/2YCIM4Pg+pLCTOVKIA6D3u+2mZwOoqDwTwlDSxgx2FTlr6xPhAOiDoN2sIejFMIaSgCe4Rw7958aHHPTKr2EMJf2g43vwXKq8fv1ImQiHTg8/ClqN2oWbJ2KAi2z3GEdT2ToUP14KllqUA6BPuq3dGIaSQb/j1yyjBEtr/WPFOQC6/EYcwzjNmqmXlKTyrHDo9I8/4xhKdnqdhptS5kx2hfPz3pV98XEhMui1605aeVY4v+09/tCVn2bimxAZBC3PNrTk8sQ5d/ae2Nl+8MtbURDZ7kKZ08qTi3LufPPkA4Ne0PkiCiJQZtdMK0+Us/81YPrdTqv1+SgMIhvLkw9z9q8+CrPptv1mo3FpNBWjIMLKk7J6wpwZYHa2g06rUfdqXv3S4RJENpansODMbl19ZNCH7QUnjW07rndxCSKbVs+SMxt99TDsIjyALLNarVqOd/HGHERa9dTNlc3JgjMbfdbvBW2/jierXi7rFdPx3hsKEPG91M2VzQvObHQ5gMo0YTJwZZSKxVLZYCC+RUjDNfXks2fBmY0+7XRaPhydpoFXmKKoRQ1Bb/MtS1LPHihzXkHO9PBj3/cbnmuxIxWuebimGajOjxDiWmxTrCvPkjMdvlvHd22bFZgMXuLQXRQ4yNu9DiACR20x4a0vONPhO26t5jpwB5ZhMnh3gXIAwhrVXgUQYZdRGkcm0+FbpmXDTcrvZNZvgOYg23n59oTARJMea17n4ZtGpVrF25u3AZgULPAYqGKa5w5Iyo3MOLAOz0OnoevQTPBn4h3CAqSVDcN4/ndx6Sdz8ucUFVobaG6WXRIEMxAWW4WuSNOew86HeeK3YbGcOXjDrBNjlFAoZoEZQZtWLKrsJSZMh+XE/hEbQ/ay+TMJV6Th7mKqwouKRUIoa1RjFJ6G5WF2cqMqIlnLyzrjeCAHoY2UZAyLRBIXfhHjQnN7XZKoMBJj+X8xGBIbXp8kJhbJJAaiEh5KjCRqU9Am/77+G9raugtzRbokQ2TNnQAAAABJRU5ErkJggg==;shadow=1;sketch=1;curveFitting=1;jiggle=2;" vertex="1" parent="1">
          <mxGeometry x="-1682" y="273.41" width="71" height="61" as="geometry" />
        </mxCell>
      </root>
    </mxGraphModel>
  </diagram>
</mxfile>
